<svg xmlns="http://www.w3.org/2000/svg" xmlns:xlink="http://www.w3.org/1999/xlink" viewBox="0 0 1454 664"><defs><style>.cls-1{fill:none;}.cls-2{isolation:isolate;}.cls-3{fill:#fff;}.cls-4{fill:#434343;}.cls-12,.cls-13,.cls-14,.cls-15,.cls-16,.cls-17,.cls-18,.cls-19,.cls-20,.cls-21,.cls-22,.cls-23,.cls-24,.cls-25,.cls-26,.cls-27,.cls-28,.cls-29,.cls-32,.cls-33,.cls-4,.cls-5,.cls-6{fill-rule:evenodd;}.cls-5{fill:#f1c232;}.cls-6{fill:#ffe599;}.cls-7{fill:#ffe066;}.cls-8{fill:#fcb400;}.cls-9{fill:#2a2b2a;}.cls-10,.cls-12{fill:#f0c54d;}.cls-11{clip-path:url(#clip-path);}.cls-13{fill:#e47a00;}.cls-14{fill:#fdd000;}.cls-15{fill:#ffccb8;}.cls-17{fill:#2d2925;}.cls-18{fill:#31274f;}.cls-19{fill:#2b2b2b;}.cls-20{fill:#f1f1f1;opacity:0.5;mix-blend-mode:soft-light;}.cls-21{fill:#22316d;}.cls-22{fill:#282828;}.cls-23{fill:#336b99;}.cls-24{fill:#3d7cba;}.cls-25{fill:#153b60;}.cls-26,.cls-28{fill:#fefefe;}.cls-26{opacity:0.3;}.cls-27{fill:#eee;}.cls-29{fill:#3b569e;}.cls-30{fill:#3e3938;}.cls-31{fill:#1d3673;}.cls-32{fill:#2d3d7d;}.cls-33{fill:#261302;}</style><clipPath id="clip-path" transform="translate(88 128)"><rect class="cls-1" width="1366" height="406"/></clipPath></defs><title>about-bg</title><g class="cls-2"><g id="Layer_2" data-name="Layer 2"><g id="Layer_1-2" data-name="Layer 1"><rect class="cls-3" x="88" y="128" width="1366" height="406"/><path class="cls-4" d="M714.82,96.54a1,1,0,0,0-.76-.4c-3-.11-7,1.59-11.83,5s-9.65,11.48-7.84,5.15C695.63,102,691,91,688.44,87.57c-1.89-2.51-3.5-3.5-4.77-2.93-1.59.71-2,3.62-1.84,4.5a20.82,20.82,0,0,1-1.78,6.22c-1,1.86-.1,3.67,1.09,4.86-1.23.27-5,1.49-4.7,6.64a9.71,9.71,0,0,0,2.19,6.14,7.52,7.52,0,0,0,3.13,2,1.46,1.46,0,0,0,.54.08c4.64,0,12.22-6.89,10.63-4.79a17.41,17.41,0,0,0-1.39,6.24c-.29,1.44-.5,2.9.25,3.5a1.39,1.39,0,0,0,.89.27,5.5,5.5,0,0,0,2.14-.6,17.08,17.08,0,0,0,5.55-4.27c1.75-2,2.72-4.09,2.72-5.85a4.62,4.62,0,0,0,3.84-2.19,59.47,59.47,0,0,1,4.9-6.21A6.06,6.06,0,0,0,715,97.37,1,1,0,0,0,714.82,96.54Z" transform="translate(88 128)"/><path class="cls-5" d="M692.11,106.52c.52.09.85,1.35.58,1.8a.68.68,0,0,1-.27.26,63.24,63.24,0,0,1-6.15,3.73c-2.76,1.27-4.9,2-5.74.81-2.92-3-3.61-12.75,2.39-10.79C686,103.32,690.52,106.23,692.11,106.52Z" transform="translate(88 128)"/><path class="cls-6" d="M687.54,89.87a1.93,1.93,0,1,1-.79-2.62A1.93,1.93,0,0,1,687.54,89.87Z" transform="translate(88 128)"/><path class="cls-6" d="M685.42,93.91a1.21,1.21,0,1,1-.5-1.64A1.21,1.21,0,0,1,685.42,93.91Z" transform="translate(88 128)"/><path class="cls-6" d="M688.55,92.07a.6.6,0,0,1-.82.25.61.61,0,1,1,.57-1.07A.61.61,0,0,1,688.55,92.07Z" transform="translate(88 128)"/><path class="cls-6" d="M684.6,98.49a1.28,1.28,0,0,1-1.73.52,1.28,1.28,0,0,1,1.2-2.25A1.28,1.28,0,0,1,684.6,98.49Z" transform="translate(88 128)"/><path class="cls-5" d="M693.16,105.15a22.09,22.09,0,0,1-4.58-6c-2.06-4-2.3-5.54-1.13-6a2.66,2.66,0,0,1,3.4,1.47,27.29,27.29,0,0,1,2.47,7.32,22.29,22.29,0,0,0,.44,2.7C693.91,105.28,693.76,105.69,693.16,105.15Z" transform="translate(88 128)"/><path class="cls-5" d="M692.57,105.93a28.28,28.28,0,0,1-5.58-3.66c-1.63-1.67-2-2.42-1.47-2.82a1.4,1.4,0,0,1,1.92.22c.24.25.56.62.89,1,1.53,2,2.19,3.23,4.39,5C693,105.89,693,106.15,692.57,105.93Z" transform="translate(88 128)"/><path class="cls-6" d="M681.88,103.62c0,.29-.31.56-.77.61s-.84-.16-.87-.45.32-.56.77-.61S681.85,103.33,681.88,103.62Z" transform="translate(88 128)"/><path class="cls-6" d="M681.17,106c0,.29-.33.55-.78.59s-.84-.18-.86-.47.33-.56.78-.59S681.14,105.69,681.17,106Z" transform="translate(88 128)"/><path class="cls-6" d="M681.3,108c.08.28-.22.6-.66.71s-.85,0-.93-.31.23-.6.67-.71S681.23,107.72,681.3,108Z" transform="translate(88 128)"/><path class="cls-6" d="M680.31,110.63c-.15-.24,0-.64.43-.88s.82-.22,1,0,0,.64-.42.88S680.47,110.88,680.31,110.63Z" transform="translate(88 128)"/><path class="cls-6" d="M682,112.55c-.23-.17-.21-.61.05-1s.68-.53.91-.36.22.61,0,1S682.28,112.72,682,112.55Z" transform="translate(88 128)"/><path class="cls-6" d="M683.57,104.31c.92,0,4.06,1.54,6.13,2.38s3,1.38-.63,1.58C681.68,108.7,680.11,104.35,683.57,104.31Z" transform="translate(88 128)"/><path class="cls-6" d="M685.06,109.41a21.19,21.19,0,0,1,3.71-.35c1.2-.09,1.85-.06.08,1C685.22,112.11,683.33,110.31,685.06,109.41Z" transform="translate(88 128)"/><path class="cls-5" d="M695.44,107.76c-.22-.24-1.61.3-1.77.7a.85.85,0,0,0-.06.31c0,.69-1,4.41-.89,6.43.15,2.3-.78,4.37.18,4.17,2.57,0,11-7.33,8-9.7C699.38,108.48,696.1,108.51,695.44,107.76Z" transform="translate(88 128)"/><path class="cls-6" d="M699.7,112.07a.73.73,0,0,0-.1.78c.12.29.35.4.52.25a.72.72,0,0,0,.1-.78C700.1,112,699.87,111.92,699.7,112.07Z" transform="translate(88 128)"/><path class="cls-6" d="M698.6,113.8a.73.73,0,0,0-.08.78c.12.28.36.39.53.24a.74.74,0,0,0,.09-.78C699,113.76,698.77,113.65,698.6,113.8Z" transform="translate(88 128)"/><path class="cls-6" d="M697.43,114.86a.77.77,0,0,0-.2.78c.08.32.29.48.47.37a.78.78,0,0,0,.19-.79C697.81,114.9,697.61,114.74,697.43,114.86Z" transform="translate(88 128)"/><path class="cls-6" d="M696.27,116.9c.18-.05.35-.38.36-.74s-.14-.6-.32-.55-.35.38-.36.74S696.08,117,696.27,116.9Z" transform="translate(88 128)"/><path class="cls-6" d="M694.65,117c.17,0,.41-.22.53-.58s.08-.68-.09-.72-.4.21-.53.57S694.48,116.94,694.65,117Z" transform="translate(88 128)"/><path class="cls-6" d="M698.78,111.48c-.28-.53-2.14-1.48-3.26-2.2s-1.71-.94-.69,1.25C696.92,115,699.84,113.5,698.78,111.48Z" transform="translate(88 128)"/><path class="cls-6" d="M695.45,113.48a13.5,13.5,0,0,0-1-2.34c-.32-.74-.54-1.1-.56.49C693.9,114.9,695.5,115,695.45,113.48Z" transform="translate(88 128)"/><path class="cls-4" d="M695,105.91a36.42,36.42,0,0,0-2.9,4.88c-1.35,2.74-1.7,4.55-1.32,4.65s1-2.75,1.9-4a7,7,0,0,0,1.12-2.06,14.3,14.3,0,0,0,1.55-1.32,3.06,3.06,0,0,0,.7-2.33C695.93,105,695.46,105.36,695,105.91Z" transform="translate(88 128)"/><path class="cls-4" d="M696.75,105a.71.71,0,1,0-.55.84A.7.7,0,0,0,696.75,105Z" transform="translate(88 128)"/><path class="cls-4" d="M696.25,105l-.16-.11c.07-.14,1.71-3.46,2.62-4.13a4.57,4.57,0,0,1,2.45-.65l0,.18a4.5,4.5,0,0,0-2.36.62,12.42,12.42,0,0,0-2,3.06,8.74,8.74,0,0,1,2.15-2.12,15.12,15.12,0,0,1,3.16-.86l.06.18A14.72,14.72,0,0,0,699,102C698,102.47,696.27,104.93,696.25,105Z" transform="translate(88 128)"/><path class="cls-4" d="M701.59,100.14c0,.12-.15.21-.38.21s-.42-.08-.44-.2.15-.2.37-.21S701.57,100,701.59,100.14Z" transform="translate(88 128)"/><path class="cls-4" d="M702.57,100.85c0,.11-.08.25-.28.31s-.42,0-.47-.08.08-.25.29-.31S702.52,100.74,702.57,100.85Z" transform="translate(88 128)"/><path class="cls-6" d="M710.38,98.58a1.11,1.11,0,0,0,1.11,1.34,1.61,1.61,0,0,0,1.55-1.3,1.11,1.11,0,0,0-1.11-1.34A1.61,1.61,0,0,0,710.38,98.58Z" transform="translate(88 128)"/><path class="cls-6" d="M708,101.85a.71.71,0,0,0,.69.84,1,1,0,0,0,1-.82.71.71,0,0,0-.7-.84A1,1,0,0,0,708,101.85Z" transform="translate(88 128)"/><path class="cls-6" d="M707.38,99.43a.36.36,0,0,0,.35.42.5.5,0,0,0,.48-.41.34.34,0,0,0-.34-.42A.51.51,0,0,0,707.38,99.43Z" transform="translate(88 128)"/><path class="cls-6" d="M705.62,104.84a.73.73,0,0,0,.73.88,1,1,0,0,0,1-.86.73.73,0,0,0-.73-.88A1.06,1.06,0,0,0,705.62,104.84Z" transform="translate(88 128)"/><path class="cls-5" d="M697.91,106.83a17.77,17.77,0,0,0,5.06-2c2.82-1.69,3.62-2.55,3.16-3.2a1.75,1.75,0,0,0-2.5-.25,23.76,23.76,0,0,0-4.46,3.56c-.66.76-1.14,1.22-1.39,1.46S697.35,107,697.91,106.83Z" transform="translate(88 128)"/><path class="cls-5" d="M698,107.41a20.3,20.3,0,0,0,4.62-.33c1.61-.46,2.12-.79,2-1.2s-.5-.69-1.15-.5a9.51,9.51,0,0,0-.92.32,17.86,17.86,0,0,1-4.53,1.5C697.8,107.24,697.71,107.41,698,107.41Z" transform="translate(88 128)"/><path class="cls-4" d="M490.52,93.57a.42.42,0,0,1,.36-.19c1.43,0,3.35.76,5.7,2.42s4.64,5.53,3.77,2.48c-.59-2.1,1.64-7.39,2.87-9,.91-1.21,1.68-1.68,2.29-1.41.77.34,1,1.74.89,2.17a9.89,9.89,0,0,0,.86,3,2,2,0,0,1-.53,2.34A2.81,2.81,0,0,1,509,98.54a4.66,4.66,0,0,1-1.05,3,3.58,3.58,0,0,1-1.51,1,.68.68,0,0,1-.26,0c-2.23,0-5.88-3.32-5.12-2.3a8.12,8.12,0,0,1,.67,3c.14.69.24,1.39-.12,1.68a.65.65,0,0,1-.43.13,2.57,2.57,0,0,1-1-.29,8.14,8.14,0,0,1-2.67-2,4.61,4.61,0,0,1-1.31-2.82,2.22,2.22,0,0,1-1.85-1,26.89,26.89,0,0,0-2.36-3,2.93,2.93,0,0,1-1.5-1.84A.45.45,0,0,1,490.52,93.57Z" transform="translate(88 128)"/><path class="cls-5" d="M501.45,98.38c-.25,0-.41.65-.28.86a.33.33,0,0,0,.13.13,31.4,31.4,0,0,0,3,1.8c1.33.61,2.36,1,2.77.39,1.4-1.43,1.73-6.14-1.15-5.2C504.41,96.84,502.21,98.24,501.45,98.38Z" transform="translate(88 128)"/><path class="cls-6" d="M503.65,90.36a.93.93,0,0,0,1.26.39.94.94,0,1,0-1.26-.39Z" transform="translate(88 128)"/><path class="cls-6" d="M504.67,92.31a.59.59,0,0,0,.79.24.58.58,0,1,0-.55-1A.59.59,0,0,0,504.67,92.31Z" transform="translate(88 128)"/><path class="cls-6" d="M503.16,91.42a.3.3,0,0,0,.4.12.29.29,0,1,0-.4-.12Z" transform="translate(88 128)"/><path class="cls-6" d="M505.07,94.51a.61.61,0,1,0,.25-.83A.61.61,0,0,0,505.07,94.51Z" transform="translate(88 128)"/><path class="cls-5" d="M500.94,97.72a10.62,10.62,0,0,0,2.21-2.88c1-1.91,1.1-2.66.54-2.88a1.29,1.29,0,0,0-1.64.71,13.13,13.13,0,0,0-1.18,3.52,10.14,10.14,0,0,1-.22,1.3C500.58,97.78,500.65,98,500.94,97.72Z" transform="translate(88 128)"/><path class="cls-5" d="M501.23,98.09a13.61,13.61,0,0,0,2.69-1.76c.78-.8.95-1.16.7-1.35a.65.65,0,0,0-.92.1,6.58,6.58,0,0,0-.43.5A11.17,11.17,0,0,1,501.15,98C501,98.08,501,98.2,501.23,98.09Z" transform="translate(88 128)"/><path class="cls-6" d="M506.38,97c0,.14.15.27.36.29s.41-.07.42-.21-.15-.27-.37-.29S506.39,96.84,506.38,97Z" transform="translate(88 128)"/><path class="cls-6" d="M506.72,98.12c0,.14.16.26.37.28s.41-.08.42-.22-.16-.27-.38-.29S506.73,98,506.72,98.12Z" transform="translate(88 128)"/><path class="cls-6" d="M506.65,99.09c0,.14.11.3.32.35s.41,0,.45-.15-.11-.29-.32-.34S506.69,99,506.65,99.09Z" transform="translate(88 128)"/><path class="cls-6" d="M507.13,100.36c.07-.12,0-.31-.21-.42a.34.34,0,0,0-.47,0c-.07.12,0,.31.21.42S507.05,100.48,507.13,100.36Z" transform="translate(88 128)"/><path class="cls-6" d="M506.3,101.28c.11-.08.1-.29,0-.47s-.32-.25-.44-.17-.1.29,0,.47S506.18,101.36,506.3,101.28Z" transform="translate(88 128)"/><path class="cls-6" d="M505.56,97.31a19.28,19.28,0,0,0-2.95,1.15c-.94.39-1.43.66.3.76C506.47,99.43,507.22,97.34,505.56,97.31Z" transform="translate(88 128)"/><path class="cls-6" d="M504.84,99.77a10.87,10.87,0,0,0-1.78-.17c-.58,0-.9,0,0,.46C504.76,101.07,505.68,100.21,504.84,99.77Z" transform="translate(88 128)"/><path class="cls-5" d="M499.85,99c.1-.12.77.14.85.33a.4.4,0,0,1,0,.15,21.69,21.69,0,0,1,.43,3.1c-.08,1.1.37,2.1-.09,2-1.24,0-5.28-3.53-3.85-4.66C498,99.32,499.53,99.34,499.85,99Z" transform="translate(88 128)"/><path class="cls-6" d="M497.79,101.05a.34.34,0,0,1,0,.38c0,.13-.17.19-.25.12a.38.38,0,0,1,0-.38C497.6,101,497.71,101,497.79,101.05Z" transform="translate(88 128)"/><path class="cls-6" d="M498.32,101.88a.36.36,0,0,1,0,.38c-.06.13-.17.19-.25.11a.32.32,0,0,1,0-.37C498.13,101.86,498.24,101.81,498.32,101.88Z" transform="translate(88 128)"/><path class="cls-6" d="M498.89,102.39a.37.37,0,0,1,.09.38c0,.15-.13.23-.22.18a.37.37,0,0,1-.09-.38C498.7,102.42,498.8,102.34,498.89,102.39Z" transform="translate(88 128)"/><path class="cls-6" d="M499.45,103.38c-.09,0-.17-.19-.18-.36s.07-.29.16-.26.17.18.17.35S499.54,103.4,499.45,103.38Z" transform="translate(88 128)"/><path class="cls-6" d="M500.23,103.41c-.09,0-.2-.1-.26-.27s0-.33,0-.35.2.1.26.28S500.31,103.39,500.23,103.41Z" transform="translate(88 128)"/><path class="cls-6" d="M498.24,100.77a7.57,7.57,0,0,1,1.57-1.06c.51-.33.82-.46.33.6C499.13,102.48,497.73,101.74,498.24,100.77Z" transform="translate(88 128)"/><path class="cls-6" d="M499.84,101.73a5.55,5.55,0,0,1,.47-1.12c.15-.36.26-.54.27.23C500.59,102.41,499.82,102.45,499.84,101.73Z" transform="translate(88 128)"/><path class="cls-4" d="M500,98.08a18.44,18.44,0,0,1,1.4,2.36c.65,1.32.82,2.18.63,2.23s-.47-1.32-.91-1.94a3.57,3.57,0,0,1-.54-1,7.24,7.24,0,0,1-.74-.64,1.43,1.43,0,0,1-.34-1.12C499.61,97.64,499.84,97.82,500,98.08Z" transform="translate(88 128)"/><path class="cls-4" d="M499.21,97.65a.34.34,0,0,1,.41-.27.35.35,0,0,1,.27.41.35.35,0,0,1-.41.26A.34.34,0,0,1,499.21,97.65Z" transform="translate(88 128)"/><path class="cls-4" d="M499.45,97.62l.08-.05a8.57,8.57,0,0,0-1.26-2,2.25,2.25,0,0,0-1.18-.31v.08a2.19,2.19,0,0,1,1.13.3,5.9,5.9,0,0,1,1,1.48,4.32,4.32,0,0,0-1-1,7.36,7.36,0,0,0-1.52-.42l0,.09a6.74,6.74,0,0,1,1.5.41A6,6,0,0,1,499.45,97.62Z" transform="translate(88 128)"/><path class="cls-4" d="M496.89,95.31s.07.1.18.1.2,0,.21-.1-.07-.1-.18-.1S496.9,95.25,496.89,95.31Z" transform="translate(88 128)"/><path class="cls-4" d="M496.41,95.65s0,.12.14.15.2,0,.22,0,0-.12-.14-.15A.19.19,0,0,0,496.41,95.65Z" transform="translate(88 128)"/><path class="cls-6" d="M492.65,94.55a.53.53,0,0,1-.53.65.77.77,0,0,1-.75-.63.53.53,0,0,1,.53-.64A.76.76,0,0,1,492.65,94.55Z" transform="translate(88 128)"/><path class="cls-6" d="M493.81,96.13a.34.34,0,0,1-.34.4.46.46,0,0,1-.46-.39.33.33,0,0,1,.33-.4A.48.48,0,0,1,493.81,96.13Z" transform="translate(88 128)"/><path class="cls-6" d="M494.09,95a.16.16,0,0,1-.16.2.22.22,0,0,1-.23-.19.16.16,0,0,1,.16-.2A.23.23,0,0,1,494.09,95Z" transform="translate(88 128)"/><path class="cls-6" d="M494.94,97.57a.34.34,0,0,1-.35.42.5.5,0,0,1-.49-.41.35.35,0,0,1,.35-.42A.49.49,0,0,1,494.94,97.57Z" transform="translate(88 128)"/><path class="cls-5" d="M498.66,98.53a8.52,8.52,0,0,1-2.44-1c-1.36-.81-1.74-1.23-1.52-1.54a.85.85,0,0,1,1.2-.12,11.35,11.35,0,0,1,2.15,1.71c.32.37.55.59.67.71S498.92,98.59,498.66,98.53Z" transform="translate(88 128)"/><path class="cls-5" d="M498.6,98.81a10.62,10.62,0,0,1-2.23-.16c-.77-.23-1-.38-1-.58s.24-.33.55-.24a3.36,3.36,0,0,1,.45.15,8.73,8.73,0,0,0,2.18.73C498.71,98.73,498.75,98.81,498.6,98.81Z" transform="translate(88 128)"/><circle class="cls-7" cx="846.38" cy="59.44" r="14.62" transform="translate(323.68 776.45) rotate(-47.98)"/><circle class="cls-8" cx="846.38" cy="59.44" r="13.9" transform="translate(669.5 993.5) rotate(-75.83)"/><circle class="cls-7" cx="846.38" cy="59.44" r="11.04" transform="translate(702.91 1003.72) rotate(-78.19)"/><path class="cls-9" d="M842.72,53.23h2.21a6.17,6.17,0,0,1,3.71,1.32,6.41,6.41,0,0,1,.78.73,6.09,6.09,0,0,1,1.63,4.07v.2a6.2,6.2,0,0,1-1.86,4.33,5.59,5.59,0,0,1-1.21.91,6.63,6.63,0,0,1-.88.45,5.63,5.63,0,0,1-1.81.41h-2.72a1,1,0,0,1-.52-.25,1,1,0,0,1-.34-.77,1,1,0,0,1,.61-.94,1.2,1.2,0,0,1,.47-.1h2.05a4,4,0,0,0,2.83-1.11,5.17,5.17,0,0,0,.7-.88,3.91,3.91,0,0,0,.61-2v-.22a4,4,0,0,0-1-2.53,4.13,4.13,0,0,0-3.3-1.5h-.92V57a1.06,1.06,0,0,1-.77,1.08l-.26,0h0a1,1,0,0,1-1-.62,1.13,1.13,0,0,1-.09-.45V54.28a1,1,0,0,1,.66-1A1,1,0,0,1,842.72,53.23Z" transform="translate(88 128)"/><path class="cls-8" d="M842.78,59.84h.06a1.08,1.08,0,0,1,.88.48,1.17,1.17,0,0,1,.19.63,1.06,1.06,0,0,1-.6,1,1.12,1.12,0,0,1-.49.13,1.1,1.1,0,0,1-1-.65,1.16,1.16,0,0,1-.1-.46,1.08,1.08,0,0,1,.59-1A1.15,1.15,0,0,1,842.78,59.84Z" transform="translate(88 128)"/><path class="cls-10" d="M597.43,220H693s.51-24.5-22.85-21.7c0,0-5.71-14.22-24.37-10.92S627,205,627,205s-13.58-4.06-17.39,8.89C609.61,213.91,599.08,214.54,597.43,220Z" transform="translate(88 128)"/><g class="cls-11"><polygon class="cls-12" points="0.04 0 846 664 0 664 0.04 0"/><path class="cls-12" d="M492.47,183.87C505,201.57,504,247.67,504,247.67l6.75.34c7.71-38,3.66-69.53-13.43-93.1-6.36-8.77-24.09,1.84-4.86,29Z" transform="translate(88 128)"/><polygon class="cls-13" points="575.84 349.67 612 350.74 611.25 386.06 609.29 386.17 570.03 383.68 575.84 349.67"/><polygon class="cls-14" points="574.44 350.26 610.02 351.52 609.29 386.17 568.08 383.82 574.44 350.26"/><path class="cls-15" d="M473.74,98.92c-10,0-17.34,9-18.57,23.65-.64,7.74-1.23,16.31,1.42,19.8,2.88,3.8,8.72,4.39,13.43,4.39,10,0,18.91-9.55,20.14-24.19s-6.43-23.65-16.42-23.65Z" transform="translate(88 128)"/><path class="cls-15" d="M463.3,138.13c-.14,1.34-1.79,17.9-1.79,17.9s20.69-.17,20.55-1.2,2.79-18.15,2.79-18.15Z" transform="translate(88 128)"/><path class="cls-16" d="M445.31,394.91a40.29,40.29,0,0,1-4.05,2.23c-.42.06-13.71,5.78-13.87,6.2s.89.78,2.15,1.23,12.2.87,12.2.87,9.55.75,9.83-.26-.81-8.71-.81-8.71l-4.69-1.53Z" transform="translate(88 128)"/><path class="cls-17" d="M490.1,393.93l-1.56,2-.14.53a33,33,0,0,0-5.17,7.43c-.7,2,3.16,1.62,3.16,1.62h0c.95.39,5.11.53,8.07.42h0c1.64-.06,2.93-.2,3-.42.36-.67-1-9.3-1-9.3Z" transform="translate(88 128)"/><path class="cls-16" d="M486.39,405.52a24.6,24.6,0,0,0,5.86.45c.76,0,1.52,0,2.21,0,1.65,0,2.93-.19,3-.41.37-.68-1-9.3-1-9.3l-6.42-2.29-1.56,2,1.81.06Z" transform="translate(88 128)"/><path class="cls-18" d="M442.58,253.79l-2.6,12,1.28,131.1h9.44l15.83-118.68,22,117.78,8,.28-3-132.1-4.36-11.51c-14-22.06-34.9-21-46.54,1.18Z" transform="translate(88 128)"/><path class="cls-19" d="M440,265.73l1.29,131.11h9.43l15.83-118.68,1.72-7.48L490.35,396l6.17.22-3-132.1-4.36-11.5c-14-22.06-34.9-21-46.54,1.17Z" transform="translate(88 128)"/><polygon class="cls-19" points="554.53 406.16 576.54 523.94 578.35 524 556.25 398.68 554.53 406.16"/><path class="cls-20" d="M486.39,405.52l4-9.52-1.81-.06-.14.53c-.53.22-4.44,5.48-5.17,7.43S486.39,405.52,486.39,405.52Z" transform="translate(88 128)"/><path class="cls-21" d="M486.78,148.77c0-.81-1.23-6.43-1.48-6.48s-15-.39-19,1-6.45,5.33-6.45,5.33Z" transform="translate(88 128)"/><path class="cls-12" d="M460.53,148.6c3.52-3,21.47-3.44,26.08-.95a125.35,125.35,0,0,1,10.72,7.26c1.57,20.94-8.32,64.73-3.79,101.86-13.3-.3-41.5,1.51-54.79,1.18.14-18.41,3-99.38,21.78-109.35Z" transform="translate(88 128)"/><path class="cls-22" d="M482.84,140.72c-6.14.54-14.1-3.46-15.66-9.13s4.52-6.45,3.93-10.58-4.41-3.55-5.89-2.23S463,120.7,463,120.7l-1.54.67,3-12.48s-6.22-.17-9.18-4.88,2.68-10.34,5-11.09,1.34,1.48,5.33,2.82,14.05,0,19.66,2.79,7.1,10.36,7.1,10.36,3.09-1.34,5,4.13c2.4,6.87-8.35,27.17-14.52,27.7Z" transform="translate(88 128)"/><path class="cls-15" d="M398.21,103c.47-1.59,3.88-4.89,4.18-6.06s-2.4-2.12-2.4-2.12,1.85-1.48.39-3-4.74-.28-5.27-.25a4.08,4.08,0,0,0-2.26.53,4.4,4.4,0,0,0-.76.81,1.62,1.62,0,0,0-.81,1.14c-.28.92,1.2,9.27,1.73,9.08s5.2-.17,5.2-.17Z" transform="translate(88 128)"/><path class="cls-12" d="M452.29,173c8.8-.2,21.14-17.23,9.22-24.8-24.91-1-52.89-5.45-62.86-46.07l-7.34-.2c-7.82,34.63,29.65,67.77,61,71.07Z" transform="translate(88 128)"/><path class="cls-15" d="M505.26,257.25a6,6,0,0,0-3.85-2.54c-2-.31-3.8-.7-4.86.56s-.64,3.07,1.23,4.8,7.37,2.09,9.1.81a4.66,4.66,0,0,0,1.73-3.44Z" transform="translate(88 128)"/><path class="cls-20" d="M447.77,172.31c-30.27-5.81-63.92-37.42-56.46-70.4l1.17,0L395,102l.14,1c.61,4.52,3.79,23.23,16.67,37.83,9.32,10.56,27.05,18.07,38.89,22.18,7,2.4,11.84,3.63,11.84,3.63-2.84,3.63-6.78,6.22-10.22,6.31-1.48-.17-3-.4-4.52-.67Z" transform="translate(88 128)"/><path class="cls-20" d="M438.75,258c.08-13,1.56-57.27,9-85.64,1.54.27,3,.5,4.52.67,3.44-.09,7.38-2.68,10.22-6.31,0,0-13.54,34.51-13.54,48.8,0,7.29,1.09,18.13,2.18,27,1,8.57,2,15.33,2,15.33-4.25.11-8.18.19-11.54.16-1,0-2,0-2.9,0Z" transform="translate(88 128)"/><path class="cls-20" d="M441.65,258c3.36,0,7.29-.05,11.54-.16l-5.7,18.26-1.09,119v1.79h-5.14L440,265.74Z" transform="translate(88 128)"/><path class="cls-20" d="M427.47,403.29c1.06-.79,13.37-6.09,13.79-6.15a2.59,2.59,0,0,0,.73-.3h4.41s-11.64,4-18.93,6.45Z" transform="translate(88 128)"/><path class="cls-23" d="M374.42,224.93H155.31a8,8,0,0,0-8.07,9.32l19.6,146.37A11.07,11.07,0,0,0,177.4,390H396.54a8,8,0,0,0,8.07-9.33L385,234.25a11,11,0,0,0-10.56-9.32Z" transform="translate(88 128)"/><path class="cls-24" d="M373.81,231.88h-216a3.35,3.35,0,0,0-3.38,3.91l19.21,143.3A4.57,4.57,0,0,0,178,383h216a3.33,3.33,0,0,0,3.38-3.88l-19.21-143.3a4.6,4.6,0,0,0-4.41-3.91Z" transform="translate(88 128)"/><polygon class="cls-25" points="325.88 397.1 259.25 397.1 268.58 465.9 335.2 465.9 325.88 397.1"/><path class="cls-25" d="M176.22,389.87h327.6v6.67a6.72,6.72,0,0,1-6.7,6.7H182.9a6.72,6.72,0,0,1-6.68-6.7Z" transform="translate(88 128)"/><path class="cls-24" d="M176.22,389.87H340v6.67a6.71,6.71,0,0,1-6.7,6.7H182.9a6.72,6.72,0,0,1-6.68-6.7Z" transform="translate(88 128)"/><path class="cls-26" d="M270.91,161.29H303.3l28.26,167.59a3.39,3.39,0,0,1,.45,0,11.87,11.87,0,0,1,10.8,6.92,14.49,14.49,0,0,1,24.44,10.53,14.18,14.18,0,0,1-2.6,8.23l.17.34a24.57,24.57,0,0,1,21.72,16.2A17.81,17.81,0,0,1,395,368.9c.39,0,.75,0,1,0l1.37,10.22a3.33,3.33,0,0,1-3.38,3.88H178a4.57,4.57,0,0,1-4.41-3.88l-1.17-8.74a24.66,24.66,0,0,1,7.65-1.45,17.93,17.93,0,0,1,8.49,2.18A24.56,24.56,0,0,1,198,359a14.72,14.72,0,0,1-.61-4.18,14.58,14.58,0,0,1,20-13.52,17.33,17.33,0,0,1,27.62-4.8Z" transform="translate(88 128)"/><path class="cls-27" d="M396.06,368.87l1.37,10.22a3.33,3.33,0,0,1-3.38,3.88H297.49c0-.28,0-.59,0-.87a12.84,12.84,0,0,1,12.84-12.84,12.61,12.61,0,0,1,6.37,1.7,27.54,27.54,0,0,1,40.85-19.85,21.67,21.67,0,0,1,1.28-5.22,22.28,22.28,0,0,1,20.86-14.41,22,22,0,0,1,11.84,3.41Z" transform="translate(88 128)"/><path class="cls-27" d="M229.58,352.67c12.32,0,22.82,9.08,26.87,21.78a20,20,0,0,1,13.62-5.52c8.58,0,16,5.72,19.61,14H178a4.57,4.57,0,0,1-4.41-3.88l-1.17-8.74-4.19-31.25c7.76,1.62,14.13,8,16.72,16.51a21.72,21.72,0,0,1,10.17-.87,21.75,21.75,0,0,1,6.62,2.18,25,25,0,0,1,7.31,5.81c5.22-6.2,12.48-10.06,20.52-10.06Z" transform="translate(88 128)"/><path class="cls-25" d="M320.56,263.63l-5.36-31.75h58.61a4.6,4.6,0,0,1,4.41,3.91L382,263.63Z" transform="translate(88 128)"/><path class="cls-25" d="M260.47,231.88l-4.69,31.75H158.13l-3.74-27.84a3.35,3.35,0,0,1,3.38-3.91Z" transform="translate(88 128)"/><polygon class="cls-27" points="460.63 398.5 429.89 398.5 434.19 430.25 464.94 430.25 460.63 398.5"/><path class="cls-27" d="M245.17,248.13H173.63a3.13,3.13,0,0,0-3.13,3.13h0a3.12,3.12,0,0,0,3.13,3.12h71.54a3.13,3.13,0,0,0,3.12-3.12h0a3.14,3.14,0,0,0-3.12-3.13Z" transform="translate(88 128)"/><path class="cls-27" d="M229.11,277h-40.8a1.8,1.8,0,0,0-1.78,1.79h0a1.8,1.8,0,0,0,1.78,1.79h40.8a1.8,1.8,0,0,0,1.79-1.79h0a1.8,1.8,0,0,0-1.79-1.79Z" transform="translate(88 128)"/><path class="cls-27" d="M230,286.55H189.21a1.8,1.8,0,0,0-1.79,1.79h0a1.8,1.8,0,0,0,1.79,1.79H230a1.8,1.8,0,0,0,1.79-1.79h0a1.8,1.8,0,0,0-1.79-1.79Z" transform="translate(88 128)"/><path class="cls-27" d="M230.7,296.66H209.84a1.8,1.8,0,0,0-1.78,1.79h0a1.8,1.8,0,0,0,1.78,1.78H230.7a1.8,1.8,0,0,0,1.79-1.78h0a1.8,1.8,0,0,0-1.79-1.79Z" transform="translate(88 128)"/><polygon class="cls-28" points="326.02 440.83 271.74 440.83 274.17 458.73 328.42 458.73 326.02 440.83"/><path class="cls-27" d="M376.43,308.7H341.31a1.55,1.55,0,0,0-1.57,1.53h0a1.56,1.56,0,0,0,1.57,1.56h35.12a1.56,1.56,0,0,0,1.57-1.56h0a1.55,1.55,0,0,0-1.57-1.53Z" transform="translate(88 128)"/><path class="cls-27" d="M377.21,316.93H342.09a1.56,1.56,0,0,0-1.57,1.54h0a1.55,1.55,0,0,0,1.57,1.53h35.12a1.55,1.55,0,0,0,1.57-1.53h0a1.56,1.56,0,0,0-1.57-1.54Z" transform="translate(88 128)"/><path class="cls-27" d="M377.8,325.64H359.85a1.55,1.55,0,0,0-1.54,1.54h0a1.55,1.55,0,0,0,1.54,1.54H377.8a1.55,1.55,0,0,0,1.56-1.54h0a1.55,1.55,0,0,0-1.56-1.54Z" transform="translate(88 128)"/><path class="cls-27" d="M368.45,255H353.62a1.3,1.3,0,0,0-1.31,1.28h0a1.3,1.3,0,0,0,1.31,1.31h14.83a1.31,1.31,0,0,0,1.31-1.31h0a1.3,1.3,0,0,0-1.31-1.28Z" transform="translate(88 128)"/><path class="cls-27" d="M342.73,255H327.9a1.3,1.3,0,0,0-1.31,1.28h0a1.31,1.31,0,0,0,1.31,1.31h14.83a1.3,1.3,0,0,0,1.31-1.31h0a1.3,1.3,0,0,0-1.31-1.28Z" transform="translate(88 128)"/><path class="cls-29" d="M407.9,389.87H467a4.93,4.93,0,0,1-4.64,3.35H412.51a4.89,4.89,0,0,1-4.61-3.35Z" transform="translate(88 128)"/><rect class="cls-30" x="360.84" y="520.3" width="4.86" height="5.84"/><rect class="cls-31" x="365.7" y="520.3" width="18.29" height="5.84"/><rect class="cls-30" x="326.97" y="520.3" width="4.83" height="5.84"/><rect class="cls-31" x="331.8" y="520.3" width="18.29" height="5.84"/><polygon class="cls-26" points="261.63 340 180.9 340 192.21 423.35 272.91 423.35 261.63 340"/><polygon class="cls-26" points="303.23 246.59 222.51 246.59 233.79 329.94 314.51 329.94 303.23 246.59"/><polygon class="cls-24" points="222.51 246.59 303.23 246.59 304.77 258.01 224.04 258.01 222.51 246.59"/><polygon class="cls-24" points="180.9 340 261.63 340 263.16 351.39 182.47 351.39 180.9 340"/><path class="cls-27" d="M208.84,137.3H168a1.8,1.8,0,0,0-1.78,1.79h0a1.8,1.8,0,0,0,1.78,1.79h40.8a1.8,1.8,0,0,0,1.79-1.79h0a1.8,1.8,0,0,0-1.79-1.79Z" transform="translate(88 128)"/><path class="cls-27" d="M209.73,146.85H180.5a1.8,1.8,0,0,0-1.79,1.79h0a1.8,1.8,0,0,0,1.79,1.79h29.23a1.81,1.81,0,0,0,1.82-1.79h0a1.81,1.81,0,0,0-1.82-1.79Z" transform="translate(88 128)"/><path class="cls-27" d="M210.43,157H189.57a1.8,1.8,0,0,0-1.79,1.79h0a1.8,1.8,0,0,0,1.79,1.79h20.86a1.8,1.8,0,0,0,1.79-1.79h0a1.8,1.8,0,0,0-1.79-1.79Z" transform="translate(88 128)"/><path class="cls-27" d="M211.94,169.08H180.5a1.78,1.78,0,0,0-1.79,1.79h0a1.8,1.8,0,0,0,1.79,1.78h31.44a1.8,1.8,0,0,0,1.78-1.78h0a1.78,1.78,0,0,0-1.78-1.79Z" transform="translate(88 128)"/><path class="cls-27" d="M212.86,178.6h-40.8a1.8,1.8,0,0,0-1.78,1.79h0a1.8,1.8,0,0,0,1.78,1.81h40.8a1.81,1.81,0,0,0,1.79-1.81h0a1.8,1.8,0,0,0-1.79-1.79Z" transform="translate(88 128)"/><path class="cls-27" d="M213.53,188.74H192.67a1.78,1.78,0,0,0-1.79,1.78h0a1.8,1.8,0,0,0,1.79,1.79h20.86a1.8,1.8,0,0,0,1.79-1.79h0a1.78,1.78,0,0,0-1.79-1.78Z" transform="translate(88 128)"/><polygon class="cls-27" points="240.91 359.63 210.19 359.63 214.49 391.38 245.21 391.38 240.91 359.63"/><path class="cls-27" d="M163.44,270.58h-40.8a1.81,1.81,0,0,0-1.79,1.82h0a1.8,1.8,0,0,0,1.79,1.78h40.8a1.8,1.8,0,0,0,1.78-1.78h0a1.81,1.81,0,0,0-1.78-1.82Z" transform="translate(88 128)"/><path class="cls-27" d="M156.37,280.55H135.51a1.8,1.8,0,0,0-1.79,1.79h0a1.78,1.78,0,0,0,1.79,1.78h20.86a1.78,1.78,0,0,0,1.79-1.78h0a1.8,1.8,0,0,0-1.79-1.79Z" transform="translate(88 128)"/><path class="cls-14" d="M156.82,121.25a2.68,2.68,0,0,0-2.71,3,3.43,3.43,0,0,0,3.32,3,2.69,2.69,0,0,0,2.71-3,3.4,3.4,0,0,0-3.32-3Z" transform="translate(88 128)"/><path class="cls-32" d="M144.36,121.19a2.66,2.66,0,0,0-2.7,3,3.41,3.41,0,0,0,3.29,3,2.68,2.68,0,0,0,2.71-3,3.4,3.4,0,0,0-3.3-3Z" transform="translate(88 128)"/><path class="cls-14" d="M115.44,215.18a2.66,2.66,0,0,0-2.71,3,3.38,3.38,0,0,0,3.29,3,2.66,2.66,0,0,0,2.71-3,3.4,3.4,0,0,0-3.29-3Z" transform="translate(88 128)"/><path class="cls-32" d="M103,215.12a2.68,2.68,0,0,0-2.7,3,3.38,3.38,0,0,0,3.29,3,2.69,2.69,0,0,0,2.74-3,3.41,3.41,0,0,0-3.33-3Z" transform="translate(88 128)"/><path class="cls-15" d="M498.4,319.72s.2,5.37.11,8.49-.78,5.67.45,5.64c1,0,1.53-5.64,2-5.75.3-.08,1.34,8.77,2.62,9s-.7-9-.39-9,3.21,8.85,4.36,8.21-2.1-8.69-1.82-9.24,4.44,7.62,5.61,6.78-4.16-7.51-3.76-7.79,5.72,5,6.45,4.11-10.17-10.95-10.17-10.95Z" transform="translate(88 128)"/><path class="cls-24" d="M438,275.89c19.23,10,60.59,46.29,60.59,46.29l6.14-2.79c-16.89-35.63-51.88-51.94-77.85-65.09-9.66-4.91-18.37,6.26,11.12,21.59Z" transform="translate(88 128)"/><path class="cls-15" d="M363.64,228.19c-6,8-3.12,19.33,7.85,29,5.78,5.14,12.34,10.75,16.73,10.73,4.74-.06,8.68-4.39,11.5-8.16,6-8,3.66-20.86-7.32-30.57s-22.81-9-28.76-1Z" transform="translate(88 128)"/><path class="cls-15" d="M388.91,254.94c.48,1.23,8,15.3,8,15.3S416.31,258,414.1,255.92,402,243.33,402,243.33Z" transform="translate(88 128)"/><path class="cls-23" d="M414.66,253.66a38.4,38.4,0,0,0-4.27-5.11c-.28,0-13.55,6.56-16.48,9.55s-3.29,7.68-3.29,7.68Z" transform="translate(88 128)"/><path class="cls-19" d="M459.92,337.46c3.69,1.73,7.4,7.23,7.4,7.23,2.18,11.59-5.36,58.08-12.34,61.23-4.91,2.21-13,.56-15.41-2.68S443.08,347,443.08,347Z" transform="translate(88 128)"/><path class="cls-19" d="M465.09,387.88c10.47-2.4,40.65-1.75,40.65-1.75l1,6.56s-43.7,11.37-53.44,13.8-7.69-5.87-7.69-5.87c-3.88-11.95,9-10.31,19.44-12.74Z" transform="translate(88 128)"/><path class="cls-16" d="M502,389.48c.37-.31,2.38-3.05,3.77-3.35s6.09.83,6.65,3-1.31,4.61-1.06,5.53,1.37,9.5-.92,10.72-11.45,2-11.51.31,4.11-3.68,3.94-7.26-.87-8.93-.87-8.93Z" transform="translate(88 128)"/><path class="cls-19" d="M441.19,340.16l-23.12,12.23s-28.35,33.34-27.84,44.18,2.45,15,14.52,9.35S449.26,357.14,452,346.2s-10.77-6-10.77-6Z" transform="translate(88 128)"/><path class="cls-24" d="M391.23,265.5c1.76-4.27,17.54-12.87,22.79-12.76a126.92,126.92,0,0,1,12.84,1.56c10.95,17.93,38.9,32.81,43.17,92.34-11-2.09-41.16.59-53.14,6.37,12.29-50.12-37.8-70.06-25.66-87.51Z" transform="translate(88 128)"/><path class="cls-33" d="M402.6,245.92c-3.27,5.25-11.26,9.22-16.7,7.1s-2.46-7.51-6.14-9.5-5.51,1.43-5.31,3.41.22,2.93.22,2.93l-.42,1.62L366,241.65s-3.83,4.89-9.39,4.44c-13.12-1.09,9-25,13.58-27.31,5.61-2.82,12.53.51,12.53.51s.78-3.3,6.31-1.57c7,2.18,16.79,22.95,13.55,28.2Z" transform="translate(88 128)"/><path class="cls-15" d="M353.51,360.16s-3.63,1.78-4.58,2-5.14,3.46-5.14,3.46-7.46,15.24-5.72,14.94,4.38-6.09,4.38-6.09a20,20,0,0,0,3.32,2.09c1.09.42,6,1,6.9-.55a4.82,4.82,0,0,0,.22-3.58l.73-3Z" transform="translate(88 128)"/><path class="cls-24" d="M391.9,264.69c-22.9,76.4-29.43,72.63-43,97.48l4.69,6.62c1.73-2.46,90.36-99.33,38.28-104.1Z" transform="translate(88 128)"/><path class="cls-19" d="M404.05,389.87c10.47-2.43,40.57-1.34,40.57-1.34l1,6.56S408.13,406,398.38,408.41s-8.91-5.17-8.91-5.17c-1.17-12.4,4.11-11,14.58-13.37Z" transform="translate(88 128)"/><path class="cls-16" d="M440.93,391.46c.4-.31,2.41-3.07,3.8-3.35s6.06.84,6.62,3-1.28,4.63-1,5.55,1.34,9.47-.95,10.7-11.45,2-11.51.31,4.14-3.69,3.94-7.26-.87-8.91-.87-8.91Z" transform="translate(88 128)"/><path class="cls-20" d="M428.84,349.27A62.29,62.29,0,0,0,418,352.53c-.36.17-.72.34-1.06.48,6.15-25.1-3.35-42.64-12.81-56.07,4-9.52,5.58-18,2.82-24,1,1.62,13.62,21.25,17.87,31.89,3.71,9.21,4.05,33.81,4.07,41.83v2.57Z" transform="translate(88 128)"/><path class="cls-20" d="M390.34,394.92a20.85,20.85,0,0,1,1.59-5s0-.05,0-.08a65.7,65.7,0,0,1,3.91-7.37c.5-.84,1-1.71,1.59-2.57,1.81-2.88,3.82-5.81,5.89-8.66C410,362,417,353.71,418,352.53a62.29,62.29,0,0,1,10.89-3.26s-14.8,16-24.54,29.23a75.1,75.1,0,0,0-7.23,11.37s0,0,0,.05c-.22.53-.45,1-.59,1.48a29.88,29.88,0,0,0-1.76,11.84,24.69,24.69,0,0,0,.79,5.14c0,.17.08.34.11.5-6.79.42-6.12-5.64-6.12-5.64C389.08,399.22,389.39,396.65,390.34,394.92Z" transform="translate(88 128)"/><path class="cls-20" d="M369,328.72c.47-1,1-2,1.48-3.08.78-1.75,1.62-3.63,2.48-5.64.42-1,.84-2,1.29-3.07.67-1.62,1.34-3.35,2-5.14.36-.92.72-1.87,1.09-2.82,2.31-6.19,4.88-13.51,7.73-22.28,1.37-4.24,2.82-8.82,4.36-13.79.16-.56.33-1.12.53-1.71.36-1.22.75-2.51,1.14-3.79.23-.73.45-1.46.67-2.21a.44.44,0,0,1,.06-.17.56.56,0,0,0,.14.09,3,3,0,0,1,1.28,1.2c1.37,2,2.79,6.84,1.31,17.53a38.24,38.24,0,0,1-1.95,7.21c-1.28,3.63-3.13,7.87-5.31,12.48-3.23,6.9-7.28,14.6-11.53,22.11-.58,1-1.17,2.07-1.76,3.08-.81,1.45-1.64,2.87-2.45,4.27-1.74,2.93-3.44,5.81-5.11,8.51-5.09,8.24-9.75,15.19-12.9,19.22a19.22,19.22,0,0,1-3.22,3.43l-1.39-1.95v0c2.57-4.72,4.88-8.44,7.12-11.84l2.54-3.8c1.81-2.76,3.6-5.5,5.47-8.71a1.1,1.1,0,0,0,.2-.31c1.51-2.57,3-5.42,4.69-8.79Z" transform="translate(88 128)"/><path class="cls-20" d="M343.79,365.66s4.19-3.21,5.14-3.46l1.39,1.95c-6.39,4.27-4.21,2.9-5.33,3.77s-7.06,11.53-7.06,11.53c.83-3.49,5.86-13.79,5.86-13.79Z" transform="translate(88 128)"/><circle class="cls-7" cx="286.91" cy="141.94" r="42.04" transform="translate(71.66 372.45) rotate(-45)"/><circle class="cls-8" cx="286.91" cy="141.94" r="39.98" transform="translate(167.03 513.36) rotate(-75.83)"/><circle class="cls-7" cx="286.91" cy="141.94" r="31.74" transform="translate(177.23 521.71) rotate(-78.19)"/><path class="cls-9" d="M276.37,124.08h6.37a17.72,17.72,0,0,1,10.67,3.8,23.23,23.23,0,0,1,2.24,2.09,17.43,17.43,0,0,1,4.68,11.72v.57q0,6.77-5.33,12.45a16.88,16.88,0,0,1-3.49,2.63,17.54,17.54,0,0,1-2.52,1.27,15.8,15.8,0,0,1-5.23,1.19H276a2.62,2.62,0,0,1-1.5-.73,3,3,0,0,1-1-2.21,2.94,2.94,0,0,1,1.73-2.7,3.4,3.4,0,0,1,1.36-.27h5.89a11.49,11.49,0,0,0,8.15-3.22,14.66,14.66,0,0,0,2-2.5,11.56,11.56,0,0,0,1.74-5.87v-.63a11.54,11.54,0,0,0-2.76-7.29,11.85,11.85,0,0,0-9.49-4.32h-2.65v4.84a3,3,0,0,1-2.21,3.09,4,4,0,0,1-.75.09h0a2.94,2.94,0,0,1-2.75-1.78,3.26,3.26,0,0,1-.25-1.29v-7.9a2.94,2.94,0,0,1,1.9-2.82A2.62,2.62,0,0,1,276.37,124.08Z" transform="translate(88 128)"/><path class="cls-8" d="M276.56,143.11h.16a3.11,3.11,0,0,1,2.53,1.37,3.22,3.22,0,0,1,.54,1.8,3.09,3.09,0,0,1-1.71,2.78,3.46,3.46,0,0,1-1.42.35,3.17,3.17,0,0,1-2.9-1.85,3.79,3.79,0,0,1-.27-1.32,3.12,3.12,0,0,1,1.69-2.78A3.24,3.24,0,0,1,276.56,143.11Z" transform="translate(88 128)"/></g></g></g></g></svg>