<svg width="32" height="32" viewBox="0 0 32 32" fill="none" xmlns="http://www.w3.org/2000/svg">
<path d="M23.6214 4.8973C22.4498 3.72572 20.5502 3.72572 19.3787 4.8973L15.9242 8.3518C15.6279 7.00654 14.4287 5.99998 12.9944 5.99998H6.99438C5.33754 5.99998 3.99438 7.34312 3.99438 8.99998V24.996C3.99438 26.0166 4.504 26.9182 5.28266 27.4602C5.76916 27.8004 6.36128 28 7 28H23C24.6568 28 26 26.6568 26 25V19C26 17.6019 25.0436 16.4272 23.7496 16.0944L27.1626 12.6813C28.3342 11.5097 28.3342 9.6102 27.1626 8.43862L23.6214 4.8973ZM15.9944 12.8383L19.1561 16H15.9944V12.8383ZM13.9944 16H5.99438V8.99998C5.99438 8.4477 6.4421 7.99998 6.99438 7.99998H12.9944C13.5467 7.99998 13.9944 8.4477 13.9944 8.99998V16ZM6.42322 25.817C6.16716 25.636 6 25.3374 6 25V18H13.9944V25.996H6.99438C6.78204 25.996 6.58514 25.9298 6.42322 25.817ZM15.9944 26V18H23C23.5522 18 24 18.4477 24 19V25C24 25.5522 23.5522 26 23 26H15.9944Z" fill="#3160F1"/>
</svg>
