<svg xmlns="http://www.w3.org/2000/svg" viewBox="0 0 38.57 35.81"><defs><style>.cls-1{fill:#434343;}.cls-1,.cls-2,.cls-3{fill-rule:evenodd;}.cls-2{fill:#f1c232;}.cls-3{fill:#ffe599;}</style></defs><title>Asset 3</title><g id="Layer_2" data-name="Layer 2"><g id="Layer_1-2" data-name="Layer 1"><path class="cls-1" d="M38.39,12.06a1,1,0,0,0-.76-.41c-3-.1-7,1.59-11.83,5S16.16,28.16,18,21.82c1.24-4.34-3.39-15.34-6-18.74C10.12.57,8.52-.41,7.24.15c-1.59.71-2,3.62-1.84,4.51a20.58,20.58,0,0,1-1.78,6.22c-1,1.86-.1,3.66,1.09,4.86-1.22.26-5,1.49-4.7,6.63A9.72,9.72,0,0,0,2.2,28.52a7.58,7.58,0,0,0,3.14,2,1.6,1.6,0,0,0,.53.08c4.64,0,12.22-6.89,10.63-4.79a17.41,17.41,0,0,0-1.39,6.24c-.28,1.44-.5,2.89.26,3.49a1.34,1.34,0,0,0,.88.27,5.5,5.5,0,0,0,2.14-.6A17.18,17.18,0,0,0,24,31a9.56,9.56,0,0,0,2.71-5.86A4.58,4.58,0,0,0,30.5,22.9a59.47,59.47,0,0,1,4.9-6.21,6,6,0,0,0,3.13-3.8A.94.94,0,0,0,38.39,12.06Z"/><path class="cls-2" d="M15.69,22c.51.09.85,1.35.58,1.79a.7.7,0,0,1-.28.26,62.84,62.84,0,0,1-6.15,3.74c-2.76,1.27-4.9,2-5.74.81-2.91-3-3.61-12.75,2.39-10.79C9.53,18.84,14.1,21.75,15.69,22Z"/><path class="cls-3" d="M11.12,5.39a1.94,1.94,0,1,1-.8-2.62A1.95,1.95,0,0,1,11.12,5.39Z"/><path class="cls-3" d="M9,9.43a1.21,1.21,0,1,1-.5-1.64A1.22,1.22,0,0,1,9,9.43Z"/><path class="cls-3" d="M12.12,7.59a.62.62,0,0,1-.82.25A.61.61,0,0,1,11.06,7a.6.6,0,1,1,1.06.57Z"/><path class="cls-3" d="M8.17,14a1.28,1.28,0,1,1-.53-1.72A1.28,1.28,0,0,1,8.17,14Z"/><path class="cls-2" d="M16.74,20.66a21.77,21.77,0,0,1-4.59-6c-2.06-4-2.29-5.54-1.12-6a2.65,2.65,0,0,1,3.4,1.47,27.28,27.28,0,0,1,2.46,7.32,23.81,23.81,0,0,0,.45,2.7C17.48,20.8,17.33,21.2,16.74,20.66Z"/><path class="cls-2" d="M16.14,21.45a29,29,0,0,1-5.58-3.66c-1.63-1.68-2-2.42-1.46-2.82a1.37,1.37,0,0,1,1.91.22,12.44,12.44,0,0,1,.89,1c1.54,1.95,2.2,3.22,4.4,4.95C16.58,21.41,16.55,21.66,16.14,21.45Z"/><path class="cls-3" d="M5.45,19.14c0,.29-.31.56-.76.6s-.84-.15-.87-.44.31-.57.76-.61S5.42,18.84,5.45,19.14Z"/><path class="cls-3" d="M4.74,21.49c0,.3-.33.56-.78.59s-.84-.17-.86-.46.33-.56.78-.59S4.72,21.2,4.74,21.49Z"/><path class="cls-3" d="M4.88,23.52c.07.29-.23.61-.67.72s-.85,0-.92-.31.22-.6.66-.72S4.8,23.24,4.88,23.52Z"/><path class="cls-3" d="M3.89,26.15c-.16-.25,0-.64.42-.88s.82-.23,1,0,0,.65-.42.88S4,26.4,3.89,26.15Z"/><path class="cls-3" d="M5.62,28.07c-.24-.17-.22-.61,0-1s.67-.53.91-.35.21.6,0,1S5.85,28.24,5.62,28.07Z"/><path class="cls-3" d="M7.14,19.83c.92,0,4.06,1.54,6.13,2.38s3,1.37-.63,1.58C5.25,24.21,3.69,19.87,7.14,19.83Z"/><path class="cls-3" d="M8.64,24.93a21,21,0,0,1,3.7-.35c1.2-.1,1.86-.06.09,1C8.8,27.63,6.9,25.83,8.64,24.93Z"/><path class="cls-2" d="M19,23.28c-.21-.25-1.61.29-1.77.7a.8.8,0,0,0-.06.3c0,.7-1,4.41-.89,6.43.16,2.31-.77,4.38.18,4.17,2.57,0,11-7.33,8-9.69C23,24,19.67,24,19,23.28Z"/><path class="cls-3" d="M23.27,27.59a.72.72,0,0,0-.1.78c.12.28.35.4.52.25a.71.71,0,0,0,.1-.78C23.68,27.55,23.44,27.44,23.27,27.59Z"/><path class="cls-3" d="M22.18,29.32a.73.73,0,0,0-.09.78c.13.28.36.38.53.23a.73.73,0,0,0,.09-.78C22.58,29.27,22.35,29.17,22.18,29.32Z"/><path class="cls-3" d="M21,30.38a.76.76,0,0,0-.19.78c.07.32.28.48.46.36a.76.76,0,0,0,.19-.78C21.39,30.42,21.18,30.26,21,30.38Z"/><path class="cls-3" d="M19.84,32.42c.19-.05.35-.38.36-.74s-.13-.6-.32-.55-.35.38-.36.74S19.65,32.47,19.84,32.42Z"/><path class="cls-3" d="M18.22,32.5c.17,0,.41-.22.53-.58s.09-.68-.08-.73-.41.22-.53.58S18.05,32.45,18.22,32.5Z"/><path class="cls-3" d="M22.35,27c-.28-.54-2.14-1.48-3.26-2.2s-1.71-.95-.69,1.25C20.5,30.55,23.42,29,22.35,27Z"/><path class="cls-3" d="M19,29a12.89,12.89,0,0,0-1-2.34c-.33-.74-.55-1.1-.57.49C17.47,30.41,19.07,30.5,19,29Z"/><path class="cls-1" d="M18.6,21.42a37,37,0,0,0-2.9,4.89C14.35,29.05,14,30.86,14.39,31s1-2.76,1.89-4a7.19,7.19,0,0,0,1.12-2.06A14.3,14.3,0,0,0,19,23.54a3.09,3.09,0,0,0,.7-2.34C19.5,20.51,19,20.88,18.6,21.42Z"/><path class="cls-1" d="M20.33,20.52a.71.71,0,1,0-.56.84A.72.72,0,0,0,20.33,20.52Z"/><path class="cls-1" d="M19.83,20.47l-.16-.11c.07-.14,1.71-3.47,2.61-4.14a4.7,4.7,0,0,1,2.46-.65l0,.18a4.55,4.55,0,0,0-2.35.62,12.5,12.5,0,0,0-2.05,3.07,8.6,8.6,0,0,1,2.16-2.12,14.21,14.21,0,0,1,3.16-.86l.05.17a15.91,15.91,0,0,0-3.11.85C21.58,18,19.84,20.44,19.83,20.47Z"/><path class="cls-1" d="M25.16,15.66c0,.11-.15.21-.37.21s-.43-.09-.45-.2.15-.21.37-.21S25.14,15.55,25.16,15.66Z"/><path class="cls-1" d="M26.14,16.37c.05.11-.07.25-.28.31s-.42,0-.46-.08.07-.25.28-.31S26.1,16.26,26.14,16.37Z"/><path class="cls-3" d="M34,14.09a1.11,1.11,0,0,0,1.1,1.35,1.6,1.6,0,0,0,1.55-1.3,1.12,1.12,0,0,0-1.1-1.35A1.6,1.6,0,0,0,34,14.09Z"/><path class="cls-3" d="M31.56,17.36a.69.69,0,0,0,.69.84,1,1,0,0,0,1-.81.69.69,0,0,0-.69-.84A1,1,0,0,0,31.56,17.36Z"/><path class="cls-3" d="M31,14.94a.34.34,0,0,0,.34.42.48.48,0,0,0,.48-.4.34.34,0,0,0-.34-.42A.48.48,0,0,0,31,14.94Z"/><path class="cls-3" d="M29.19,20.35a.74.74,0,0,0,.73.89,1.06,1.06,0,0,0,1-.86.72.72,0,0,0-.73-.88A1,1,0,0,0,29.19,20.35Z"/><path class="cls-2" d="M21.48,22.35a17.77,17.77,0,0,0,5.06-2.05c2.82-1.69,3.62-2.55,3.16-3.2a1.74,1.74,0,0,0-2.49-.25,23.43,23.43,0,0,0-4.47,3.55,19.29,19.29,0,0,1-1.39,1.47C21,22.18,20.93,22.47,21.48,22.35Z"/><path class="cls-2" d="M21.6,22.93a20.48,20.48,0,0,0,4.63-.34c1.6-.46,2.11-.79,2-1.2a.84.84,0,0,0-1.15-.5,9.11,9.11,0,0,0-.93.33,17.73,17.73,0,0,1-4.53,1.5C21.37,22.76,21.28,22.93,21.6,22.93Z"/></g></g></svg>