<svg xmlns="http://www.w3.org/2000/svg" viewBox="0 0 29.18 31.73"><defs><style>.cls-1{fill:#434343;}.cls-1,.cls-2,.cls-3,.cls-4{fill-rule:evenodd;}.cls-2{fill:#f1c232;}.cls-3{fill:#125563;}.cls-4{fill:#ffe599;}</style></defs><title>bf-left</title><g id="Layer_2" data-name="Layer 2"><g id="Layer_1-2" data-name="Layer 1"><path class="cls-1" d="M4.83,21.36C1.55,14.28.66,9.81,3.72,2.59,4.44.89,5.08,0,5.65,0A1.64,1.64,0,0,1,6.79.76a4.26,4.26,0,0,1,1,2.85A3.5,3.5,0,0,1,8.26,7.1a2.34,2.34,0,0,1,.62,2A3.33,3.33,0,0,1,10,11.2a12.29,12.29,0,0,1,1.09-1.55c4.13-4.95,7.69-7,8.95-6.43a1.36,1.36,0,0,1,.68.92,6.35,6.35,0,0,1-.45,4.19,6.39,6.39,0,0,1-.93,3.23,4.2,4.2,0,0,1,.13,3,4.29,4.29,0,0,1-.74,3.35,5.7,5.7,0,0,1,2.64.18,7.29,7.29,0,0,1,3.78,3.58,4.35,4.35,0,0,1,.46,3.15,2.48,2.48,0,0,1,.07,1.71c-.08.32-.12.49,0,.7a5.55,5.55,0,0,0,1.32.88c1.09.6,2.21,1.23,2.13,2a.55.55,0,0,1-.31.5c-.38.17-.91-.21-1.46-.61a3.69,3.69,0,0,0-.64-.4,2.3,2.3,0,0,1-.33-.1c-.71-.24-2.21-.76-3.52,1.43v0a1.54,1.54,0,0,1-1.62.76,3,3,0,0,1-.92-.34c-1.54-.79-.62-.35-2.63-1.4a50.12,50.12,0,0,0-4.67-2.22l-1.72-.58a8.32,8.32,0,0,0-1.78-.26,8.06,8.06,0,0,0-.46-.67,29.52,29.52,0,0,0-3.6-3.84,2.61,2.61,0,0,0-.45-.31.63.63,0,0,0,0-.19A.65.65,0,0,0,4.83,21.36Z"/><path class="cls-2" d="M9,26.57a.18.18,0,0,0,.19.07c2.91-.76,7.75,1.67,10,3a4.92,4.92,0,0,0,2,.72,1.44,1.44,0,0,0,1.37-.49,7.83,7.83,0,0,0,1.37-2.29.2.2,0,0,0-.06-.21h.07a.2.2,0,0,0,.1-.12,4.71,4.71,0,0,0,.18-2,5.88,5.88,0,0,0,.37-1.7.19.19,0,0,0-.08-.16l-.12-.09a.15.15,0,0,0,.11,0,.17.17,0,0,0,.09-.16,6,6,0,0,0-.68-2.59l0,0a6.75,6.75,0,0,0-2.53-1.82h0c-2.21-.76-5.1.48-7,1.53a33.39,33.39,0,0,0-4.44,2.93c-.66.5-1.33,1-1.95,1.58,0,0,0,0,0,0a.15.15,0,0,0-.11.12.16.16,0,0,0,0,.16C9.06,26.61,7.47,24.28,9,26.57Z"/><path class="cls-2" d="M6.47,4.54c.64-1-.68-2.25-.93-1.89-4.12,6-2.54,13.71.12,20,.27.27,1.19,1.23,1.24,1.21A.17.17,0,0,0,7,23.72a38.15,38.15,0,0,1,.58-4.89,25.71,25.71,0,0,1,1.36-5C9.7,12,10,11,7.92,9.4a.21.21,0,0,0-.15,0l-.07,0C8,8.86,7.37,7.24,7,7.56c.1-.18.21-.35.32-.51a.17.17,0,0,0,0-.1C7.4,6.58,7,4.26,6.47,4.54Z"/><path class="cls-1" d="M5.51,22.39a29.52,29.52,0,0,1,3.6,3.84c1.77,2.28,1.28,4.44,1,4.6S9.72,28,8.63,27a5.55,5.55,0,0,1-1.35-1.63,13.12,13.12,0,0,1-1.69-.92,2.89,2.89,0,0,1-1.09-2C4.5,21.72,5,22,5.51,22.39Z"/><path class="cls-1" d="M3.74,21.89a.68.68,0,1,1,.67.67A.67.67,0,0,1,3.74,21.89Z"/><path class="cls-1" d="M4.27,21.65l-.11.13C4,21.68,1.07,19.37.52,18.35a4.82,4.82,0,0,1-.41-2.46l.17,0a4.74,4.74,0,0,0,.39,2.36,14.91,14.91,0,0,0,2.68,2.64,10.36,10.36,0,0,1-1.79-2.52A16,16,0,0,1,1,15.21h.17a15.9,15.9,0,0,0,.55,3.13A15.5,15.5,0,0,0,4.27,21.65Z"/><path class="cls-3" d="M.22,15.52c.11,0,.18.18.17.39s-.12.38-.22.38S0,16.1,0,15.89.12,15.51.22,15.52Z"/><path class="cls-3" d="M1,14.75c.1,0,.22.13.26.34s0,.4-.11.42-.22-.13-.27-.34S.85,14.77,1,14.75Z"/><path class="cls-1" d="M6.87,22c-1.06-3.9-1.78-7.52-.4-11.17,0,0,.21-.82.21-.85.3-2.8-2.2-3.82-3-.31-1.1,5.09.8,10.66,3,15.18C6.77,24,6.81,23,6.87,22Z"/><path class="cls-4" d="M6.24,23.06q-3.55-8-2.13-13.71C4.78,6.67,7,7.81,6.16,10.63q-1.53,4.86.66,12.3l0,.68C6.59,23.4,6.4,23.22,6.24,23.06Z"/><path class="cls-1" d="M5.9,13A23,23,0,0,0,6.2,23l.84.83a42.68,42.68,0,0,1,1.67-9c.66-2.06.45-3.26-.09-3.8a1.44,1.44,0,0,0-1.72,0A2.63,2.63,0,0,0,5.9,13Z"/><path class="cls-4" d="M8.5,14.64C9.93,10.88,7,10.36,6.34,12.47c-.89,2.74-.81,6.13,0,10.1.09-.48.18-.94.21-1.28a29,29,0,0,1,1.6-5.76c.09-.31.19-.6.3-.89ZM7.21,24l.06.07V24Z"/><path class="cls-2" d="M18.63,6.3c-.67-.41-1.74.06-2.88.87-5,3.64-7.28,8-8.38,14-.07.7-.38,1.95-.38,2.68l.62.66a2.77,2.77,0,0,0,.6-.51,40.07,40.07,0,0,1,4.49-3.29,20.49,20.49,0,0,1,4.51-2.2c1.86-.59,1.64-3.85,1.09-3.77.49-.41.06-2.55-.48-3.1a.19.19,0,0,0-.1,0C18.76,11.15,19.3,6.71,18.63,6.3Z"/><path class="cls-1" d="M9,21.53c1.45-3.78,3-7.13,6.27-9.26l.67-.56c1.89-2.09.48-4.38-2.21-2C9.79,13.18,8,18.79,7.18,23.76,7.73,23,8.32,22.28,9,21.53Z"/><path class="cls-4" d="M7.58,23.24Q9.35,13.72,14.2,9.66c2.11-1.76,3.27.49.89,2.25q-4.1,3-6.71,10.32C8.1,22.57,7.83,22.91,7.58,23.24Z"/><path class="cls-1" d="M14,12.9C10.8,15.6,8.71,19.78,7.3,23.6a40.44,40.44,0,0,1,7.81-7.52C19.71,12.73,16.24,11,14,12.9Z"/><path class="cls-4" d="M15.07,15.79C12.45,17.5,10,20.41,7.44,24.28l-.05-.05c1.92-5.37,4.23-9.31,7.21-11.47C16.4,11.46,18.44,13.59,15.07,15.79Z"/><path class="cls-1" d="M14.74,16.08a32.92,32.92,0,0,0-7.31,7.36c-.09.11-.23.19-.25.32a1.8,1.8,0,0,1,0,.22l.35.38a32,32,0,0,1,7.66-5.28A5.73,5.73,0,0,0,17,18C18.11,16.81,18,13.93,14.74,16.08Z"/><path class="cls-4" d="M15.77,18.49a27.42,27.42,0,0,0-8.46,5.66l0,0a34.74,34.74,0,0,1,7.29-7.57C17.9,14.22,18.08,17.52,15.77,18.49Z"/></g></g></svg>