<svg width="32" height="32" viewBox="0 0 32 32" fill="none" xmlns="http://www.w3.org/2000/svg">
<path d="M18.6667 10.6667H20.0001C20.3537 10.6667 20.6928 10.5262 20.9429 10.2761C21.1929 10.0261 21.3334 9.68696 21.3334 9.33333C21.3334 8.97971 21.1929 8.64057 20.9429 8.39052C20.6928 8.14048 20.3537 8 20.0001 8H18.6667C18.3131 8 17.974 8.14048 17.7239 8.39052C17.4739 8.64057 17.3334 8.97971 17.3334 9.33333C17.3334 9.68696 17.4739 10.0261 17.7239 10.2761C17.974 10.5262 18.3131 10.6667 18.6667 10.6667ZM18.6667 16H20.0001C20.3537 16 20.6928 15.8595 20.9429 15.6095C21.1929 15.3594 21.3334 15.0203 21.3334 14.6667C21.3334 14.313 21.1929 13.9739 20.9429 13.7239C20.6928 13.4738 20.3537 13.3333 20.0001 13.3333H18.6667C18.3131 13.3333 17.974 13.4738 17.7239 13.7239C17.4739 13.9739 17.3334 14.313 17.3334 14.6667C17.3334 15.0203 17.4739 15.3594 17.7239 15.6095C17.974 15.8595 18.3131 16 18.6667 16ZM12.0001 10.6667H13.3334C13.687 10.6667 14.0262 10.5262 14.2762 10.2761C14.5263 10.0261 14.6667 9.68696 14.6667 9.33333C14.6667 8.97971 14.5263 8.64057 14.2762 8.39052C14.0262 8.14048 13.687 8 13.3334 8H12.0001C11.6465 8 11.3073 8.14048 11.0573 8.39052C10.8072 8.64057 10.6667 8.97971 10.6667 9.33333C10.6667 9.68696 10.8072 10.0261 11.0573 10.2761C11.3073 10.5262 11.6465 10.6667 12.0001 10.6667ZM12.0001 16H13.3334C13.687 16 14.0262 15.8595 14.2762 15.6095C14.5263 15.3594 14.6667 15.0203 14.6667 14.6667C14.6667 14.313 14.5263 13.9739 14.2762 13.7239C14.0262 13.4738 13.687 13.3333 13.3334 13.3333H12.0001C11.6465 13.3333 11.3073 13.4738 11.0573 13.7239C10.8072 13.9739 10.6667 14.313 10.6667 14.6667C10.6667 15.0203 10.8072 15.3594 11.0573 15.6095C11.3073 15.8595 11.6465 16 12.0001 16ZM28.0001 26.6667H26.6667V4C26.6667 3.64638 26.5263 3.30724 26.2762 3.05719C26.0262 2.80714 25.687 2.66667 25.3334 2.66667H6.66675C6.31313 2.66667 5.97399 2.80714 5.72394 3.05719C5.47389 3.30724 5.33341 3.64638 5.33341 4V26.6667H4.00008C3.64646 26.6667 3.30732 26.8071 3.05727 27.0572C2.80722 27.3072 2.66675 27.6464 2.66675 28C2.66675 28.3536 2.80722 28.6928 3.05727 28.9428C3.30732 29.1929 3.64646 29.3333 4.00008 29.3333H28.0001C28.3537 29.3333 28.6928 29.1929 28.9429 28.9428C29.1929 28.6928 29.3334 28.3536 29.3334 28C29.3334 27.6464 29.1929 27.3072 28.9429 27.0572C28.6928 26.8071 28.3537 26.6667 28.0001 26.6667ZM17.3334 26.6667H14.6667V21.3333H17.3334V26.6667ZM24.0001 26.6667H20.0001V20C20.0001 19.6464 19.8596 19.3072 19.6096 19.0572C19.3595 18.8071 19.0204 18.6667 18.6667 18.6667H13.3334C12.9798 18.6667 12.6407 18.8071 12.3906 19.0572C12.1406 19.3072 12.0001 19.6464 12.0001 20V26.6667H8.00008V5.33333H24.0001V26.6667Z" fill="#FDBE34"/>
</svg>
