<svg xmlns="http://www.w3.org/2000/svg" viewBox="0 0 19.45 19.45"><defs><style>.cls-1{fill:#2a2b2a;opacity:0.4;}</style></defs><title>date-icon</title><g id="Layer_2" data-name="Layer 2"><g id="Layer_1-2" data-name="Layer 1"><path class="cls-1" d="M11.78,8.89H13.3v4l-2.14,1.82-1-1.16,1.61-1.37Zm5.39-7.37h-.91V0H14.74V1.52h-10V0H3.19V1.52H2.28A2.28,2.28,0,0,0,0,3.8V17.17a2.28,2.28,0,0,0,2.28,2.28H7.7a8.49,8.49,0,0,1-1.13-.95c-.18-.18-.35-.37-.52-.57H2.28a.76.76,0,0,1-.76-.76V7.1H6.05l.52-.57a8.49,8.49,0,0,1,1.13-1H1.52V3.8A.76.76,0,0,1,2.28,3h.91V4.56H4.71V3h10V4.56h1.52V3h.91a.76.76,0,0,1,.76.76V5.17h1.52V3.8A2.28,2.28,0,0,0,17.17,1.52Zm.76,6.69a6.91,6.91,0,1,0-5.39,11.24h0l.62,0L13,17.91l-.48,0h0v0a5.4,5.4,0,1,1,4.35-8.59H15.27v1.52h4.18V6.69H17.93Zm-3.61,9.42.5,1.43a7.24,7.24,0,0,0,1.53-.75L15.51,17A5.74,5.74,0,0,1,14.32,17.63Zm2.2-1.46,1.12,1a7.11,7.11,0,0,0,1-1.39l-1.33-.72A5.17,5.17,0,0,1,16.52,16.17Zm1.25-2.32,1.47.37a6.78,6.78,0,0,0,.21-1.68H17.93A5.73,5.73,0,0,1,17.77,13.85Z"/></g></g></svg>