<svg xmlns="http://www.w3.org/2000/svg" width="38" height="38" viewBox="0 0 38 38"><defs><style>.a{fill:none;}.b{fill:#f7a500;}</style></defs><rect class="a" width="38" height="38"/><path class="b" d="M21.459,5.881h0a1.577,1.577,0,0,0,0,2.232L27.6,14.256H3.583A1.588,1.588,0,0,0,2,15.84H2a1.588,1.588,0,0,0,1.583,1.583H27.618l-6.143,6.143a1.577,1.577,0,0,0,0,2.232h0a1.577,1.577,0,0,0,2.232,0l8.851-8.851a1.577,1.577,0,0,0,0-2.233L23.692,5.881A1.577,1.577,0,0,0,21.459,5.881Z" transform="translate(1.167 3.16)"/></svg>