<svg xmlns="http://www.w3.org/2000/svg" xmlns:xlink="http://www.w3.org/1999/xlink" viewBox="0 0 353.01 470.68"><defs><style>.cls-1{fill:#fffffd;}.cls-2{fill:url(#linear-gradient);}.cls-3{font-size:38.82px;font-family:FlamanteRoundMedium;}.cls-3,.cls-4,.cls-5{fill:#2a2b2a;}.cls-4{font-size:4.7px;font-family:CorsaGrotesk-Thin, CorsaGrotesk Thin;font-weight:200;}.cls-6{fill:#f0c54d;}</style><linearGradient id="linear-gradient" y1="235.34" x2="353.01" y2="235.34" gradientUnits="userSpaceOnUse"><stop offset="0" stop-color="#f0c54d"/><stop offset="1" stop-color="#d8ae48"/></linearGradient></defs><title>Asset 1</title><g id="Layer_2" data-name="Layer 2"><g id="Layer_1-2" data-name="Layer 1"><polygon class="cls-1" points="215.79 29 305.79 103 313.79 253 238.79 349 135.27 335.73 58.79 294 16.79 189 70.79 66 215.79 29"/><path class="cls-2" d="M176.77,0h-1A176,176,0,0,0,0,176.25c0,21.14,8.57,72.14,34.49,113,32.6,51.33,127.92,164.38,141.88,180.88,0,0,.29.75.45.56.18.19.49-.56.49-.56,13.91-16.54,109-129.81,141.46-181.21C344.6,248,353,197,353,175.83,352.87,78.63,274-.1,176.77,0Zm-.11,306.94a127.36,127.36,0,1,1,127.2-127.5A127.37,127.37,0,0,1,176.66,306.94Z"/><text class="cls-3" transform="translate(130.98 227.7)">Dinger</text><text class="cls-4" transform="translate(212.13 236.19)">ONE FOR ALL. </text><path class="cls-5" d="M159.27,102h16.28q14.14,0,27.28,9.71a60,60,0,0,1,5.71,5.34q12,13.67,12,30v1.44q0,17.3-13.61,31.81-5.55,5.07-8.92,6.73a45.43,45.43,0,0,1-6.46,3.26q-8.22,3-13.34,3h-20a6.69,6.69,0,0,1-3.85-1.87,7.65,7.65,0,0,1-2.45-5.66c0-3,1.47-5.28,4.43-6.88a8.47,8.47,0,0,1,3.47-.7h15.05A29.39,29.39,0,0,0,195.68,170a38.65,38.65,0,0,0,5.18-6.4,29.64,29.64,0,0,0,4.43-15v-1.61q0-9.76-7-18.62-9.35-11.05-24.23-11h-6.78v12.38a7.7,7.7,0,0,1-5.66,7.9,10.72,10.72,0,0,1-1.92.21h-.06a7.52,7.52,0,0,1-7-4.53,8.56,8.56,0,0,1-.64-3.31V109.74q0-5,4.85-7.21A6.9,6.9,0,0,1,159.27,102Z"/><path class="cls-6" d="M159.75,150.61h.43a7.9,7.9,0,0,1,6.46,3.53,8.11,8.11,0,0,1,1.39,4.59q0,4.53-4.38,7.1a9.09,9.09,0,0,1-3.63.9q-4.8,0-7.42-4.75a9.51,9.51,0,0,1-.69-3.36c0-3,1.44-5.35,4.32-7.1A8.18,8.18,0,0,1,159.75,150.61Z"/></g></g></svg>