<svg xmlns="http://www.w3.org/2000/svg" viewBox="0 0 29.24 29.24"><defs><style>.cls-1{fill:#ffe066;}.cls-2{fill:#fcb400;}.cls-3{fill:#2a2b2a;}</style></defs><title>Asset 2</title><g id="Layer_2" data-name="Layer 2"><g id="Layer_1-2" data-name="Layer 1"><circle class="cls-1" cx="14.62" cy="14.62" r="14.62" transform="translate(-6.03 15.7) rotate(-47.98)"/><circle class="cls-2" cx="14.62" cy="14.62" r="13.9" transform="translate(-3.13 25.22) rotate(-75.83)"/><circle class="cls-1" cx="14.62" cy="14.62" r="11.04" transform="translate(-2.68 25.94) rotate(-78.19)"/><path class="cls-3" d="M11,8.41h2.21a6.17,6.17,0,0,1,3.71,1.32,6.41,6.41,0,0,1,.78.73,6.09,6.09,0,0,1,1.63,4.07v.2a6.2,6.2,0,0,1-1.86,4.33,5.59,5.59,0,0,1-1.21.91,6.63,6.63,0,0,1-.88.45,5.63,5.63,0,0,1-1.81.41H10.81a.9.9,0,0,1-.52-.25,1,1,0,0,1-.34-.77,1,1,0,0,1,.61-.94,1.2,1.2,0,0,1,.47-.1h2.05a4,4,0,0,0,2.83-1.11,5.17,5.17,0,0,0,.7-.88,3.91,3.91,0,0,0,.61-2v-.21a4,4,0,0,0-1-2.54,4.13,4.13,0,0,0-3.3-1.5H12v1.68a1.06,1.06,0,0,1-.77,1.08l-.26,0h0a1,1,0,0,1-1-.62,1.13,1.13,0,0,1-.09-.45V9.46a1,1,0,0,1,.66-1A1,1,0,0,1,11,8.41Z"/><path class="cls-2" d="M11,15h.06a1.08,1.08,0,0,1,.88.48,1.17,1.17,0,0,1,.19.63,1.06,1.06,0,0,1-.6,1,1.12,1.12,0,0,1-.49.13,1.11,1.11,0,0,1-1-.65,1.36,1.36,0,0,1-.1-.46,1.09,1.09,0,0,1,.59-1A1.15,1.15,0,0,1,11,15Z"/></g></g></svg>