<svg xmlns="http://www.w3.org/2000/svg" viewBox="0 0 57.21 70.21"><defs><style>.cls-1{font-size:20.13px;font-family:FlamanteRoundMedium;}.cls-1,.cls-2,.cls-3{fill:#2a2b2a;}.cls-2{font-size:2.44px;font-family:CorsaGrotesk-Thin, CorsaGrotesk Thin;font-weight:200;}.cls-4{fill:#f0c54d;}</style></defs><title>dinger-logo</title><g id="Layer_2" data-name="Layer 2"><g id="Layer_1-2" data-name="Layer 1"><text class="cls-1" transform="translate(0 65.18)">Dinger</text><text class="cls-2" transform="translate(42.08 69.59)">ONE FOR ALL. </text><path class="cls-3" d="M14.67,0h8.44A23.47,23.47,0,0,1,37.26,5a29.52,29.52,0,0,1,3,2.77,23,23,0,0,1,6.2,15.52v.75q0,9-7.06,16.5a22.54,22.54,0,0,1-4.62,3.49,24.71,24.71,0,0,1-3.35,1.69,21.09,21.09,0,0,1-6.92,1.57H14.12a3.43,3.43,0,0,1-2-1,4,4,0,0,1-1.28-2.93,3.9,3.9,0,0,1,2.3-3.57A4.45,4.45,0,0,1,15,39.5h7.81a15.23,15.23,0,0,0,10.79-4.26,19.89,19.89,0,0,0,2.69-3.32,15.35,15.35,0,0,0,2.29-7.78v-.83a15.32,15.32,0,0,0-3.65-9.66A15.69,15.69,0,0,0,22.31,7.92H18.8v6.42a4,4,0,0,1-2.94,4.09,5.07,5.07,0,0,1-1,.12h0a3.92,3.92,0,0,1-3.66-2.36,4.42,4.42,0,0,1-.33-1.71V4A3.88,3.88,0,0,1,13.37.28,3.43,3.43,0,0,1,14.67,0Z"/><path class="cls-4" d="M14.92,25.21h.22A4.09,4.09,0,0,1,18.49,27a4.19,4.19,0,0,1,.72,2.38,4.08,4.08,0,0,1-2.27,3.68,4.75,4.75,0,0,1-1.88.47,4.23,4.23,0,0,1-3.85-2.46,4.93,4.93,0,0,1-.36-1.75,4.14,4.14,0,0,1,2.24-3.68A4.28,4.28,0,0,1,14.92,25.21Z"/></g></g></svg>