<svg xmlns="http://www.w3.org/2000/svg" viewBox="0 0 309.14 216.94"><defs><style>.cls-1{isolation:isolate;}.cls-2,.cls-3{opacity:0.5;}.cls-3,.cls-5{fill:#f5f5f5;}.cls-4{fill:#f0c54d;}.cls-6{mix-blend-mode:soft-light;}</style></defs><title>Asset 10</title><g class="cls-1"><g id="Layer_2" data-name="Layer 2"><g id="Layer_1-2" data-name="Layer 1"><g class="cls-2"><circle class="cls-3" cx="13.56" cy="53.53" r="13.56"/><path class="cls-4" d="M9.91,47.35h2.21a6.13,6.13,0,0,1,3.69,1.32,8.24,8.24,0,0,1,.77.72,6,6,0,0,1,1.62,4.06v.19A6.18,6.18,0,0,1,16.36,58a5.59,5.59,0,0,1-1.21.91,5.55,5.55,0,0,1-.87.44,5.63,5.63,0,0,1-1.81.41H9.77a.87.87,0,0,1-.52-.25,1,1,0,0,1-.33-.77,1,1,0,0,1,.59-.93,1.27,1.27,0,0,1,.47-.09h2a4,4,0,0,0,2.82-1.12,5.17,5.17,0,0,0,.7-.86,4,4,0,0,0,.6-2v-.22a4,4,0,0,0-1-2.52,4.09,4.09,0,0,0-3.28-1.5H11V51.1a1.05,1.05,0,0,1-.77,1.07l-.26,0h0a1,1,0,0,1-1-.62,1.12,1.12,0,0,1-.08-.45V48.4a1,1,0,0,1,.65-1A1.15,1.15,0,0,1,9.91,47.35Z"/><path class="cls-5" d="M10,53.94H10a1.05,1.05,0,0,1,.87.47,1.09,1.09,0,0,1-.4,1.58,1.16,1.16,0,0,1-.5.13,1.1,1.1,0,0,1-1-.65A1.29,1.29,0,0,1,8.92,55a1.06,1.06,0,0,1,.58-1A1.13,1.13,0,0,1,10,53.94Z"/><circle class="cls-3" cx="55.14" cy="13.56" r="13.56"/><path class="cls-4" d="M51.49,7.38H53.7a6.16,6.16,0,0,1,3.69,1.31,8.68,8.68,0,0,1,.77.73,6,6,0,0,1,1.62,4.05v.2A6.15,6.15,0,0,1,57.94,18a5.71,5.71,0,0,1-1.21.92,6.61,6.61,0,0,1-.87.44,5.63,5.63,0,0,1-1.81.41h-2.7a.94.94,0,0,1-.52-.25,1.06,1.06,0,0,1-.33-.77,1,1,0,0,1,.6-.93,1,1,0,0,1,.47-.1h2a4,4,0,0,0,2.82-1.11,4.8,4.8,0,0,0,.7-.87,4,4,0,0,0,.6-2v-.22a4,4,0,0,0-.95-2.52,4.11,4.11,0,0,0-3.28-1.49h-.92v1.67a1,1,0,0,1-.77,1.07l-.26,0h0a1,1,0,0,1-1-.61,1.12,1.12,0,0,1-.08-.45V8.43a1,1,0,0,1,.65-1A.9.9,0,0,1,51.49,7.38Z"/><path class="cls-5" d="M51.56,14h.06A1.09,1.09,0,0,1,52.09,16a1.29,1.29,0,0,1-.5.12,1.1,1.1,0,0,1-1-.64,1.29,1.29,0,0,1-.09-.45,1.09,1.09,0,0,1,.58-1A1.13,1.13,0,0,1,51.56,14Z"/><circle class="cls-3" cx="102.14" cy="53.53" r="13.56"/><path class="cls-4" d="M98.5,47.35h2.2a6.09,6.09,0,0,1,3.69,1.32,7,7,0,0,1,.78.72,6,6,0,0,1,1.62,4.06v.19A6.19,6.19,0,0,1,104.94,58a5.84,5.84,0,0,1-1.2.91,6.32,6.32,0,0,1-.88.44,5.59,5.59,0,0,1-1.8.41H98.35a.9.9,0,0,1-.52-.25,1,1,0,0,1-.33-.77,1,1,0,0,1,.6-.93,1.19,1.19,0,0,1,.47-.09h2a4,4,0,0,0,2.82-1.12,5.75,5.75,0,0,0,.7-.86,4,4,0,0,0,.6-2v-.22a4,4,0,0,0-1-2.52,4.08,4.08,0,0,0-3.28-1.5h-.92V51.1a1,1,0,0,1-.76,1.07l-.26,0h0a1,1,0,0,1-1-.62,1.13,1.13,0,0,1-.09-.45V48.4a1,1,0,0,1,.66-1A1.09,1.09,0,0,1,98.5,47.35Z"/><path class="cls-5" d="M98.56,53.94h.06a1.05,1.05,0,0,1,.87.47,1.09,1.09,0,0,1-.4,1.58,1.12,1.12,0,0,1-.49.13,1.11,1.11,0,0,1-1-.65A1.29,1.29,0,0,1,97.5,55a1.06,1.06,0,0,1,.58-1A1.13,1.13,0,0,1,98.56,53.94Z"/><g class="cls-6"><path class="cls-5" d="M9.91,7.38h2.21a6.19,6.19,0,0,1,3.69,1.31,8.68,8.68,0,0,1,.77.73,6,6,0,0,1,1.62,4.05v.2A6.15,6.15,0,0,1,16.36,18a5.71,5.71,0,0,1-1.21.92,6.61,6.61,0,0,1-.87.44,5.63,5.63,0,0,1-1.81.41H9.77a.94.94,0,0,1-.52-.25,1.06,1.06,0,0,1-.33-.77,1,1,0,0,1,.59-.93,1.1,1.1,0,0,1,.47-.1h2a4,4,0,0,0,2.82-1.11,4.8,4.8,0,0,0,.7-.87,4,4,0,0,0,.6-2v-.22a4,4,0,0,0-1-2.52,4.11,4.11,0,0,0-3.28-1.49H11v1.67a1,1,0,0,1-.77,1.07l-.26,0h0a1,1,0,0,1-1-.61,1.12,1.12,0,0,1-.08-.45V8.43a1,1,0,0,1,.65-1A.9.9,0,0,1,9.91,7.38Z"/></g><path class="cls-5" d="M10,14H10A1.09,1.09,0,0,1,10.51,16a1.29,1.29,0,0,1-.5.12,1.09,1.09,0,0,1-1-.64,1.29,1.29,0,0,1-.09-.45,1.09,1.09,0,0,1,.58-1A1.13,1.13,0,0,1,10,14Z"/><g class="cls-6"><path class="cls-5" d="M51.49,47.35H53.7a6.11,6.11,0,0,1,3.69,1.32,8.24,8.24,0,0,1,.77.72,6,6,0,0,1,1.62,4.06v.19A6.18,6.18,0,0,1,57.94,58a6.18,6.18,0,0,1-3.89,1.76h-2.7a.87.87,0,0,1-.52-.25,1,1,0,0,1-.33-.77,1,1,0,0,1,.6-.93,1.19,1.19,0,0,1,.47-.09h2a4,4,0,0,0,2.82-1.12,5.17,5.17,0,0,0,.7-.86,4,4,0,0,0,.6-2v-.22a4,4,0,0,0-.95-2.52,4.09,4.09,0,0,0-3.28-1.5h-.92V51.1a1.05,1.05,0,0,1-.77,1.07l-.26,0h0a1,1,0,0,1-1-.62,1.12,1.12,0,0,1-.08-.45V48.4a1,1,0,0,1,.65-1A1.15,1.15,0,0,1,51.49,47.35Z"/></g><path class="cls-5" d="M51.56,53.94h.06a1.05,1.05,0,0,1,.87.47,1.09,1.09,0,0,1-.4,1.58,1.16,1.16,0,0,1-.5.13,1.11,1.11,0,0,1-1-.65A1.29,1.29,0,0,1,50.5,55a1.06,1.06,0,0,1,.58-1A1.13,1.13,0,0,1,51.56,53.94Z"/><circle class="cls-3" cx="201.57" cy="53.53" r="13.56"/><path class="cls-4" d="M197.93,47.35h2.2a6.14,6.14,0,0,1,3.7,1.32,8.24,8.24,0,0,1,.77.72,6,6,0,0,1,1.62,4.06v.19A6.22,6.22,0,0,1,204.38,58a6.12,6.12,0,0,1-1.21.91,6.32,6.32,0,0,1-.88.44,5.59,5.59,0,0,1-1.8.41h-2.71a.9.9,0,0,1-.52-.25,1,1,0,0,1-.33-.77,1,1,0,0,1,.6-.93,1.23,1.23,0,0,1,.47-.09h2a4,4,0,0,0,2.82-1.12,5.17,5.17,0,0,0,.7-.86,4,4,0,0,0,.6-2v-.22a4,4,0,0,0-1-2.52,4.08,4.08,0,0,0-3.28-1.5H199V51.1a1.05,1.05,0,0,1-.77,1.07l-.26,0h0a1,1,0,0,1-.95-.62,1.13,1.13,0,0,1-.09-.45V48.4a1,1,0,0,1,.66-1A1.09,1.09,0,0,1,197.93,47.35Z"/><path class="cls-5" d="M198,53.94h.06a1.08,1.08,0,0,1,.88.47,1.15,1.15,0,0,1,.18.62,1.05,1.05,0,0,1-.59,1,1.07,1.07,0,0,1-1.5-.52,1.29,1.29,0,0,1-.09-.45,1.07,1.07,0,0,1,.59-1A1.09,1.09,0,0,1,198,53.94Z"/><g class="cls-6"><path class="cls-5" d="M148.21,47.35h2.21a6.13,6.13,0,0,1,3.69,1.32,8.24,8.24,0,0,1,.77.72,6,6,0,0,1,1.62,4.06v.19A6.18,6.18,0,0,1,154.66,58a6.18,6.18,0,0,1-3.89,1.76h-2.7a.87.87,0,0,1-.52-.25,1,1,0,0,1-.33-.77,1,1,0,0,1,.6-.93,1.18,1.18,0,0,1,.46-.09h2a4,4,0,0,0,2.82-1.12,5.17,5.17,0,0,0,.7-.86,4,4,0,0,0,.6-2v-.22a4,4,0,0,0-.95-2.52,4.09,4.09,0,0,0-3.28-1.5h-.92V51.1a1.05,1.05,0,0,1-.77,1.07l-.26,0h0a1,1,0,0,1-1-.62,1.12,1.12,0,0,1-.08-.45V48.4a1,1,0,0,1,.65-1A1.15,1.15,0,0,1,148.21,47.35Z"/></g><path class="cls-5" d="M148.28,53.94h.06a1.05,1.05,0,0,1,.87.47,1.09,1.09,0,0,1-.4,1.58,1.16,1.16,0,0,1-.5.13,1.11,1.11,0,0,1-1-.65,1.29,1.29,0,0,1-.09-.45,1.06,1.06,0,0,1,.58-1A1.13,1.13,0,0,1,148.28,53.94Z"/><circle class="cls-3" cx="295.58" cy="53.53" r="13.56"/><path class="cls-4" d="M291.94,47.35h2.2a6.09,6.09,0,0,1,3.69,1.32,8.06,8.06,0,0,1,.78.72,6,6,0,0,1,1.62,4.06v.19A6.19,6.19,0,0,1,298.38,58a5.84,5.84,0,0,1-1.2.91,6.32,6.32,0,0,1-.88.44,5.58,5.58,0,0,1-1.81.41h-2.7a.9.9,0,0,1-.52-.25,1,1,0,0,1-.33-.77,1,1,0,0,1,.6-.93,1.19,1.19,0,0,1,.47-.09h2a4,4,0,0,0,2.82-1.12,5.75,5.75,0,0,0,.7-.86,4,4,0,0,0,.6-2v-.22a4,4,0,0,0-1-2.52,4.08,4.08,0,0,0-3.28-1.5H293V51.1a1,1,0,0,1-.76,1.07l-.26,0h0a1,1,0,0,1-1-.62,1.13,1.13,0,0,1-.09-.45V48.4a1,1,0,0,1,.66-1A1.09,1.09,0,0,1,291.94,47.35Z"/><path class="cls-5" d="M292,53.94h.06a1.05,1.05,0,0,1,.87.47,1.09,1.09,0,0,1-.4,1.58,1.12,1.12,0,0,1-.49.13,1.11,1.11,0,0,1-1-.65,1.29,1.29,0,0,1-.09-.45,1.06,1.06,0,0,1,.58-1A1.13,1.13,0,0,1,292,53.94Z"/><g class="cls-6"><path class="cls-5" d="M246.74,47.35h2.2a6.14,6.14,0,0,1,3.7,1.32,8.24,8.24,0,0,1,.77.72A6,6,0,0,1,255,53.45v.19A6.18,6.18,0,0,1,253.19,58a5.84,5.84,0,0,1-1.21.91,6.06,6.06,0,0,1-.87.44,5.69,5.69,0,0,1-1.81.41h-2.7a.87.87,0,0,1-.52-.25,1,1,0,0,1,.26-1.7,1.23,1.23,0,0,1,.47-.09h2a4,4,0,0,0,2.82-1.12,5.17,5.17,0,0,0,.7-.86,4,4,0,0,0,.6-2v-.22a4,4,0,0,0-.95-2.52,4.11,4.11,0,0,0-3.29-1.5h-.91V51.1a1.05,1.05,0,0,1-.77,1.07l-.26,0h0a1,1,0,0,1-.95-.62,1.13,1.13,0,0,1-.09-.45V48.4a1,1,0,0,1,.66-1A1.09,1.09,0,0,1,246.74,47.35Z"/></g><path class="cls-5" d="M246.81,53.94h.05a1.07,1.07,0,0,1,.88.47,1.16,1.16,0,0,1,.19.62,1.06,1.06,0,0,1-.6,1,1.06,1.06,0,0,1-1.49-.52,1.12,1.12,0,0,1-.1-.45,1.07,1.07,0,0,1,.59-1A1.13,1.13,0,0,1,246.81,53.94Z"/><circle class="cls-3" cx="151.86" cy="13.56" r="13.56"/><path class="cls-4" d="M148.21,7.38h2.21a6.19,6.19,0,0,1,3.69,1.31,8.68,8.68,0,0,1,.77.73,6,6,0,0,1,1.62,4.05v.2a6.15,6.15,0,0,1-1.84,4.3,5.71,5.71,0,0,1-1.21.92,6.61,6.61,0,0,1-.87.44,5.63,5.63,0,0,1-1.81.41h-2.7a.94.94,0,0,1-.52-.25,1.06,1.06,0,0,1-.33-.77,1,1,0,0,1,.6-.93,1,1,0,0,1,.46-.1h2a4,4,0,0,0,2.82-1.11,4.8,4.8,0,0,0,.7-.87,4,4,0,0,0,.6-2v-.22a4,4,0,0,0-.95-2.52,4.11,4.11,0,0,0-3.28-1.49h-.92v1.67a1,1,0,0,1-.77,1.07l-.26,0h0a1,1,0,0,1-1-.61,1.12,1.12,0,0,1-.08-.45V8.43a1,1,0,0,1,.65-1A.9.9,0,0,1,148.21,7.38Z"/><path class="cls-5" d="M148.28,14h.06a1.09,1.09,0,0,1,.47,2.06,1.29,1.29,0,0,1-.5.12,1.1,1.1,0,0,1-1-.64,1.29,1.29,0,0,1-.09-.45,1.09,1.09,0,0,1,.58-1A1.13,1.13,0,0,1,148.28,14Z"/><g class="cls-6"><path class="cls-5" d="M98.5,7.38h2.2a6.14,6.14,0,0,1,3.69,1.31,7.35,7.35,0,0,1,.78.73,6,6,0,0,1,1.62,4.05v.2a6.17,6.17,0,0,1-1.85,4.3,6,6,0,0,1-1.2.92,7.71,7.71,0,0,1-.88.44,5.59,5.59,0,0,1-1.8.41H98.35a1,1,0,0,1-.52-.25,1.06,1.06,0,0,1-.33-.77,1,1,0,0,1,.6-.93,1,1,0,0,1,.47-.1h2a4,4,0,0,0,2.82-1.11,5.29,5.29,0,0,0,.7-.87,4,4,0,0,0,.6-2v-.22a4,4,0,0,0-1-2.52,4.1,4.1,0,0,0-3.28-1.49h-.92v1.67a1,1,0,0,1-.76,1.07l-.26,0h0a1,1,0,0,1-1-.61,1.13,1.13,0,0,1-.09-.45V8.43a1,1,0,0,1,.66-1A.86.86,0,0,1,98.5,7.38Z"/></g><path class="cls-5" d="M98.56,14h.06A1.09,1.09,0,0,1,99.09,16a1.25,1.25,0,0,1-.49.12,1.1,1.1,0,0,1-1-.64,1.29,1.29,0,0,1-.09-.45,1.09,1.09,0,0,1,.58-1A1.13,1.13,0,0,1,98.56,14Z"/><circle class="cls-3" cx="250.39" cy="13.56" r="13.56"/><path class="cls-4" d="M246.74,7.38h2.2a6.19,6.19,0,0,1,3.7,1.31,8.68,8.68,0,0,1,.77.73A6,6,0,0,1,255,13.47v.2a6.15,6.15,0,0,1-1.84,4.3,6,6,0,0,1-1.21.92,7.35,7.35,0,0,1-.87.44,5.69,5.69,0,0,1-1.81.41h-2.7a.94.94,0,0,1-.52-.25,1,1,0,0,1-.34-.77,1,1,0,0,1,.6-.93,1.07,1.07,0,0,1,.47-.1h2a4,4,0,0,0,2.82-1.11,4.8,4.8,0,0,0,.7-.87,4,4,0,0,0,.6-2v-.22a4,4,0,0,0-.95-2.52,4.13,4.13,0,0,0-3.29-1.49h-.91v1.67a1,1,0,0,1-.77,1.07l-.26,0h0a1,1,0,0,1-.95-.61,1.13,1.13,0,0,1-.09-.45V8.43a1,1,0,0,1,.66-1A.86.86,0,0,1,246.74,7.38Z"/><path class="cls-5" d="M246.81,14h.05a1.08,1.08,0,0,1,.88.48,1.13,1.13,0,0,1,.19.62,1.06,1.06,0,0,1-.6,1,1.21,1.21,0,0,1-.49.12,1.09,1.09,0,0,1-1-.64,1.12,1.12,0,0,1-.1-.45,1.1,1.1,0,0,1,.59-1A1.13,1.13,0,0,1,246.81,14Z"/><g class="cls-6"><path class="cls-5" d="M197.93,7.38h2.2a6.19,6.19,0,0,1,3.7,1.31,8.68,8.68,0,0,1,.77.73,6,6,0,0,1,1.62,4.05v.2a6.2,6.2,0,0,1-1.84,4.3,6.26,6.26,0,0,1-1.21.92,7.71,7.71,0,0,1-.88.44,5.59,5.59,0,0,1-1.8.41h-2.71a1,1,0,0,1-.52-.25,1.06,1.06,0,0,1-.33-.77,1,1,0,0,1,.6-.93,1.07,1.07,0,0,1,.47-.1h2a4,4,0,0,0,2.82-1.11,4.8,4.8,0,0,0,.7-.87,4,4,0,0,0,.6-2v-.22a4,4,0,0,0-1-2.52,4.1,4.1,0,0,0-3.28-1.49H199v1.67a1,1,0,0,1-.77,1.07l-.26,0h0a1,1,0,0,1-.95-.61,1.13,1.13,0,0,1-.09-.45V8.43a1,1,0,0,1,.66-1A.86.86,0,0,1,197.93,7.38Z"/></g><path class="cls-5" d="M198,14h.06a1.09,1.09,0,0,1,.88.48,1.12,1.12,0,0,1,.18.62,1.05,1.05,0,0,1-.59,1,1.25,1.25,0,0,1-.49.12,1.11,1.11,0,0,1-1-.64,1.29,1.29,0,0,1-.09-.45A1.09,1.09,0,0,1,198,14Z"/><g class="cls-6"><path class="cls-5" d="M291.94,7.38h2.2a6.14,6.14,0,0,1,3.69,1.31,8.49,8.49,0,0,1,.78.73,6,6,0,0,1,1.62,4.05v.2a6.17,6.17,0,0,1-1.85,4.3,6,6,0,0,1-1.2.92,7.71,7.71,0,0,1-.88.44,5.58,5.58,0,0,1-1.81.41h-2.7a1,1,0,0,1-.52-.25,1.06,1.06,0,0,1-.33-.77,1,1,0,0,1,.6-.93,1,1,0,0,1,.47-.1h2a4,4,0,0,0,2.82-1.11,5.29,5.29,0,0,0,.7-.87,4,4,0,0,0,.6-2v-.22a4,4,0,0,0-1-2.52,4.1,4.1,0,0,0-3.28-1.49H293v1.67a1,1,0,0,1-.76,1.07l-.26,0h0a1,1,0,0,1-1-.61,1.13,1.13,0,0,1-.09-.45V8.43a1,1,0,0,1,.66-1A.86.86,0,0,1,291.94,7.38Z"/></g><path class="cls-5" d="M292,14h.06a1.09,1.09,0,0,1,.47,2.06,1.25,1.25,0,0,1-.49.12,1.1,1.1,0,0,1-1-.64,1.29,1.29,0,0,1-.09-.45,1.09,1.09,0,0,1,.58-1A1.13,1.13,0,0,1,292,14Z"/><circle class="cls-3" cx="55.14" cy="89.49" r="13.56"/><path class="cls-4" d="M51.49,83.31H53.7a6.16,6.16,0,0,1,3.69,1.31,7.39,7.39,0,0,1,.77.73,6,6,0,0,1,1.62,4.05v.2a6.15,6.15,0,0,1-1.84,4.3,5.71,5.71,0,0,1-1.21.92,6.61,6.61,0,0,1-.87.44,5.63,5.63,0,0,1-1.81.41h-2.7a.9.9,0,0,1-.52-.26,1,1,0,0,1-.33-.76,1,1,0,0,1,.6-.93,1,1,0,0,1,.47-.1h2a4,4,0,0,0,2.82-1.11,4.8,4.8,0,0,0,.7-.87,4,4,0,0,0,.6-2v-.22a4,4,0,0,0-.95-2.52,4.08,4.08,0,0,0-3.28-1.49h-.92v1.67a1,1,0,0,1-.77,1.07l-.26,0h0a1,1,0,0,1-1-.61,1.12,1.12,0,0,1-.08-.45V84.36a1,1,0,0,1,.65-1A.9.9,0,0,1,51.49,83.31Z"/><path class="cls-5" d="M51.56,89.89h.06A1.09,1.09,0,0,1,52.09,92a1.29,1.29,0,0,1-.5.12,1.1,1.1,0,0,1-1-.64A1.33,1.33,0,0,1,50.5,91a1.09,1.09,0,0,1,.58-1A1.13,1.13,0,0,1,51.56,89.89Z"/><circle class="cls-3" cx="102.14" cy="123.06" r="13.56"/><path class="cls-4" d="M98.5,116.88h2.2a6.09,6.09,0,0,1,3.69,1.32,7,7,0,0,1,.78.72,6,6,0,0,1,1.62,4.06v.19a6.19,6.19,0,0,1-1.85,4.31,5.84,5.84,0,0,1-1.2.91,6.32,6.32,0,0,1-.88.44,5.33,5.33,0,0,1-1.8.41H98.35a.9.9,0,0,1-.52-.25,1,1,0,0,1-.33-.77,1,1,0,0,1,.6-.93,1.19,1.19,0,0,1,.47-.09h2a4,4,0,0,0,2.82-1.12,5.75,5.75,0,0,0,.7-.86,4,4,0,0,0,.6-2V123a4,4,0,0,0-1-2.52,4.08,4.08,0,0,0-3.28-1.5h-.92v1.68a1,1,0,0,1-.76,1.07l-.26,0h0a1,1,0,0,1-1-.62,1.13,1.13,0,0,1-.09-.45v-2.73a1,1,0,0,1,.66-1A.88.88,0,0,1,98.5,116.88Z"/><path class="cls-5" d="M98.56,123.47h.06a1.05,1.05,0,0,1,.87.47,1.08,1.08,0,0,1,.19.62,1.1,1.1,0,0,1-.59,1,1.25,1.25,0,0,1-.49.12,1.11,1.11,0,0,1-1-.65,1.29,1.29,0,0,1-.09-.45,1.06,1.06,0,0,1,.58-1A1.13,1.13,0,0,1,98.56,123.47Z"/><g class="cls-6"><path class="cls-5" d="M51.49,116.88H53.7a6.11,6.11,0,0,1,3.69,1.32,8.24,8.24,0,0,1,.77.72A6,6,0,0,1,59.78,123v.19a6.18,6.18,0,0,1-1.84,4.31,7.06,7.06,0,0,1-2.08,1.35,5.38,5.38,0,0,1-1.81.41h-2.7a.87.87,0,0,1-.52-.25,1,1,0,0,1-.33-.77,1,1,0,0,1,.6-.93,1.19,1.19,0,0,1,.47-.09h2a4,4,0,0,0,2.82-1.12,5.17,5.17,0,0,0,.7-.86,4,4,0,0,0,.6-2V123a4,4,0,0,0-.95-2.52,4.09,4.09,0,0,0-3.28-1.5h-.92v1.68a1.05,1.05,0,0,1-.77,1.07l-.26,0h0a1,1,0,0,1-1-.62,1.12,1.12,0,0,1-.08-.45v-2.73a1,1,0,0,1,.65-1A.93.93,0,0,1,51.49,116.88Z"/></g><path class="cls-5" d="M51.56,123.47h.06a1.05,1.05,0,0,1,.87.47,1.08,1.08,0,0,1,.19.62,1.1,1.1,0,0,1-.59,1,1.29,1.29,0,0,1-.5.12,1.11,1.11,0,0,1-1-.65,1.29,1.29,0,0,1-.09-.45,1.06,1.06,0,0,1,.58-1A1.13,1.13,0,0,1,51.56,123.47Z"/><circle class="cls-3" cx="201.57" cy="123.06" r="13.56"/><path class="cls-4" d="M197.93,116.88h2.2a6.14,6.14,0,0,1,3.7,1.32,8.24,8.24,0,0,1,.77.72,6,6,0,0,1,1.62,4.06v.19a6.22,6.22,0,0,1-1.84,4.31,6.12,6.12,0,0,1-1.21.91,6.32,6.32,0,0,1-.88.44,5.33,5.33,0,0,1-1.8.41h-2.71a.9.9,0,0,1-.52-.25,1,1,0,0,1-.33-.77,1,1,0,0,1,.6-.93,1.23,1.23,0,0,1,.47-.09h2a4,4,0,0,0,2.82-1.12,5.17,5.17,0,0,0,.7-.86,4,4,0,0,0,.6-2V123a4,4,0,0,0-1-2.52,4.08,4.08,0,0,0-3.28-1.5H199v1.68a1.05,1.05,0,0,1-.77,1.07l-.26,0h0a1,1,0,0,1-.95-.62,1.13,1.13,0,0,1-.09-.45v-2.73a1,1,0,0,1,.66-1A.88.88,0,0,1,197.93,116.88Z"/><path class="cls-5" d="M198,123.47h.06a1.08,1.08,0,0,1,.88.47,1.15,1.15,0,0,1,.18.62,1.08,1.08,0,0,1-.59,1,1.25,1.25,0,0,1-.49.12,1.12,1.12,0,0,1-1-.65,1.29,1.29,0,0,1-.09-.45,1.07,1.07,0,0,1,.59-1A1.09,1.09,0,0,1,198,123.47Z"/><g class="cls-6"><path class="cls-5" d="M148.21,116.88h2.21a6.13,6.13,0,0,1,3.69,1.32,8.24,8.24,0,0,1,.77.72A6,6,0,0,1,156.5,123v.19a6.18,6.18,0,0,1-1.84,4.31,7.06,7.06,0,0,1-2.08,1.35,5.38,5.38,0,0,1-1.81.41h-2.7a.87.87,0,0,1-.52-.25,1,1,0,0,1-.33-.77,1,1,0,0,1,.6-.93,1.18,1.18,0,0,1,.46-.09h2a4,4,0,0,0,2.82-1.12,5.17,5.17,0,0,0,.7-.86,4,4,0,0,0,.6-2V123a4,4,0,0,0-.95-2.52,4.09,4.09,0,0,0-3.28-1.5h-.92v1.68a1.05,1.05,0,0,1-.77,1.07l-.26,0h0a1,1,0,0,1-1-.62,1.12,1.12,0,0,1-.08-.45v-2.73a1,1,0,0,1,.65-1A.93.93,0,0,1,148.21,116.88Z"/></g><path class="cls-5" d="M148.28,123.47h.06a1.05,1.05,0,0,1,.87.47,1.08,1.08,0,0,1,.19.62,1.1,1.1,0,0,1-.59,1,1.29,1.29,0,0,1-.5.12,1.11,1.11,0,0,1-1-.65,1.29,1.29,0,0,1-.09-.45,1.06,1.06,0,0,1,.58-1A1.13,1.13,0,0,1,148.28,123.47Z"/><circle class="cls-3" cx="295.58" cy="123.06" r="13.56"/><path class="cls-4" d="M291.94,116.88h2.2a6.09,6.09,0,0,1,3.69,1.32,8.06,8.06,0,0,1,.78.72,6,6,0,0,1,1.62,4.06v.19a6.19,6.19,0,0,1-1.85,4.31,5.84,5.84,0,0,1-1.2.91,6.32,6.32,0,0,1-.88.44,5.33,5.33,0,0,1-1.81.41h-2.7a.9.9,0,0,1-.52-.25,1,1,0,0,1-.33-.77,1,1,0,0,1,.6-.93,1.19,1.19,0,0,1,.47-.09h2a4,4,0,0,0,2.82-1.12,5.75,5.75,0,0,0,.7-.86,4,4,0,0,0,.6-2V123a4,4,0,0,0-1-2.52,4.08,4.08,0,0,0-3.28-1.5H293v1.68a1,1,0,0,1-.76,1.07l-.26,0h0a1,1,0,0,1-1-.62,1.13,1.13,0,0,1-.09-.45v-2.73a1,1,0,0,1,.66-1A.88.88,0,0,1,291.94,116.88Z"/><path class="cls-5" d="M292,123.47h.06a1.05,1.05,0,0,1,.87.47,1.08,1.08,0,0,1,.19.62,1.1,1.1,0,0,1-.59,1,1.25,1.25,0,0,1-.49.12,1.11,1.11,0,0,1-1-.65,1.29,1.29,0,0,1-.09-.45,1.06,1.06,0,0,1,.58-1A1.13,1.13,0,0,1,292,123.47Z"/><g class="cls-6"><path class="cls-5" d="M246.74,116.88h2.2a6.14,6.14,0,0,1,3.7,1.32,8.24,8.24,0,0,1,.77.72A6,6,0,0,1,255,123v.19a6.18,6.18,0,0,1-1.84,4.31,5.84,5.84,0,0,1-1.21.91,6.06,6.06,0,0,1-.87.44,5.43,5.43,0,0,1-1.81.41h-2.7a.87.87,0,0,1-.52-.25,1,1,0,0,1,.26-1.7,1.23,1.23,0,0,1,.47-.09h2a4,4,0,0,0,2.82-1.12,5.17,5.17,0,0,0,.7-.86,4,4,0,0,0,.6-2V123a4,4,0,0,0-.95-2.52,4.11,4.11,0,0,0-3.29-1.5h-.91v1.68a1.05,1.05,0,0,1-.77,1.07l-.26,0h0a1,1,0,0,1-.95-.62,1.13,1.13,0,0,1-.09-.45v-2.73a1,1,0,0,1,.66-1A.88.88,0,0,1,246.74,116.88Z"/></g><path class="cls-5" d="M246.81,123.47h.05a1.07,1.07,0,0,1,.88.47,1.16,1.16,0,0,1,.19.62,1.09,1.09,0,0,1-.6,1,1.21,1.21,0,0,1-.49.12,1.1,1.1,0,0,1-1-.65,1.12,1.12,0,0,1-.1-.45,1.07,1.07,0,0,1,.59-1A1.13,1.13,0,0,1,246.81,123.47Z"/><circle class="cls-3" cx="151.86" cy="89.49" r="13.56"/><path class="cls-4" d="M148.21,83.31h2.21a6.19,6.19,0,0,1,3.69,1.31,7.39,7.39,0,0,1,.77.73,6,6,0,0,1,1.62,4.05v.2a6.15,6.15,0,0,1-1.84,4.3,5.71,5.71,0,0,1-1.21.92,6.61,6.61,0,0,1-.87.44,5.63,5.63,0,0,1-1.81.41h-2.7a.9.9,0,0,1-.52-.26,1,1,0,0,1-.33-.76,1,1,0,0,1,.6-.93,1,1,0,0,1,.46-.1h2a4,4,0,0,0,2.82-1.11,4.8,4.8,0,0,0,.7-.87,4,4,0,0,0,.6-2v-.22a4,4,0,0,0-.95-2.52,4.08,4.08,0,0,0-3.28-1.49h-.92v1.67a1,1,0,0,1-.77,1.07l-.26,0h0a1,1,0,0,1-1-.61,1.12,1.12,0,0,1-.08-.45V84.36a1,1,0,0,1,.65-1A.9.9,0,0,1,148.21,83.31Z"/><path class="cls-5" d="M148.28,89.89h.06a1.09,1.09,0,0,1,.47,2.06,1.29,1.29,0,0,1-.5.12,1.1,1.1,0,0,1-1-.64,1.33,1.33,0,0,1-.09-.45,1.09,1.09,0,0,1,.58-1A1.13,1.13,0,0,1,148.28,89.89Z"/><g class="cls-6"><path class="cls-5" d="M98.5,83.31h2.2a6.14,6.14,0,0,1,3.69,1.31,6.41,6.41,0,0,1,.78.73,6,6,0,0,1,1.62,4.05v.2a6.17,6.17,0,0,1-1.85,4.3,6,6,0,0,1-1.2.92,7.71,7.71,0,0,1-.88.44,5.59,5.59,0,0,1-1.8.41H98.35a.93.93,0,0,1-.52-.26,1,1,0,0,1-.33-.76,1,1,0,0,1,.6-.93,1,1,0,0,1,.47-.1h2a4,4,0,0,0,2.82-1.11,5.29,5.29,0,0,0,.7-.87,4,4,0,0,0,.6-2v-.22a4,4,0,0,0-1-2.52,4.07,4.07,0,0,0-3.28-1.49h-.92v1.67a1,1,0,0,1-.76,1.07l-.26,0h0a1,1,0,0,1-1-.61,1.13,1.13,0,0,1-.09-.45V84.36a1,1,0,0,1,.66-1A.86.86,0,0,1,98.5,83.31Z"/></g><path class="cls-5" d="M98.56,89.89h.06A1.09,1.09,0,0,1,99.09,92a1.25,1.25,0,0,1-.49.12,1.1,1.1,0,0,1-1-.64A1.33,1.33,0,0,1,97.5,91a1.09,1.09,0,0,1,.58-1A1.13,1.13,0,0,1,98.56,89.89Z"/><circle class="cls-3" cx="250.39" cy="89.49" r="13.56"/><path class="cls-4" d="M246.74,83.31h2.2a6.19,6.19,0,0,1,3.7,1.31,7.39,7.39,0,0,1,.77.73A6,6,0,0,1,255,89.4v.2a6.15,6.15,0,0,1-1.84,4.3,6,6,0,0,1-1.21.92,7.35,7.35,0,0,1-.87.44,5.69,5.69,0,0,1-1.81.41h-2.7a.9.9,0,0,1-.52-.26,1,1,0,0,1,.26-1.69,1.07,1.07,0,0,1,.47-.1h2a4,4,0,0,0,2.82-1.11,4.8,4.8,0,0,0,.7-.87,4,4,0,0,0,.6-2v-.22a4,4,0,0,0-.95-2.52,4.1,4.1,0,0,0-3.29-1.49h-.91v1.67a1,1,0,0,1-.77,1.07l-.26,0h0a1,1,0,0,1-.95-.61,1.13,1.13,0,0,1-.09-.45V84.36a1,1,0,0,1,.66-1A.86.86,0,0,1,246.74,83.31Z"/><path class="cls-5" d="M246.81,89.89h.05a1.08,1.08,0,0,1,.88.48,1.13,1.13,0,0,1,.19.62,1.06,1.06,0,0,1-.6,1,1.21,1.21,0,0,1-.49.12,1.09,1.09,0,0,1-1-.64,1.15,1.15,0,0,1-.1-.45,1.1,1.1,0,0,1,.59-1A1.13,1.13,0,0,1,246.81,89.89Z"/><g class="cls-6"><path class="cls-5" d="M197.93,83.31h2.2a6.19,6.19,0,0,1,3.7,1.31,7.39,7.39,0,0,1,.77.73,6,6,0,0,1,1.62,4.05v.2a6.2,6.2,0,0,1-1.84,4.3,6.26,6.26,0,0,1-1.21.92,7.71,7.71,0,0,1-.88.44,5.59,5.59,0,0,1-1.8.41h-2.71a.93.93,0,0,1-.52-.26,1,1,0,0,1-.33-.76,1,1,0,0,1,.6-.93,1.07,1.07,0,0,1,.47-.1h2a4,4,0,0,0,2.82-1.11,4.8,4.8,0,0,0,.7-.87,4,4,0,0,0,.6-2v-.22a4,4,0,0,0-1-2.52,4.07,4.07,0,0,0-3.28-1.49H199v1.67a1,1,0,0,1-.77,1.07l-.26,0h0a1,1,0,0,1-.95-.61,1.13,1.13,0,0,1-.09-.45V84.36a1,1,0,0,1,.66-1A.86.86,0,0,1,197.93,83.31Z"/></g><path class="cls-5" d="M198,89.89h.06a1.09,1.09,0,0,1,.88.48,1.12,1.12,0,0,1,.18.62,1.05,1.05,0,0,1-.59,1,1.25,1.25,0,0,1-.49.12,1.11,1.11,0,0,1-1-.64,1.33,1.33,0,0,1-.09-.45A1.09,1.09,0,0,1,198,89.89Z"/><g class="cls-6"><path class="cls-5" d="M291.94,83.31h2.2a6.14,6.14,0,0,1,3.69,1.31,7.26,7.26,0,0,1,.78.73,6,6,0,0,1,1.62,4.05v.2a6.17,6.17,0,0,1-1.85,4.3,6,6,0,0,1-1.2.92,7.71,7.71,0,0,1-.88.44,5.58,5.58,0,0,1-1.81.41h-2.7a.93.93,0,0,1-.52-.26,1,1,0,0,1-.33-.76,1,1,0,0,1,.6-.93,1,1,0,0,1,.47-.1h2a4,4,0,0,0,2.82-1.11,5.29,5.29,0,0,0,.7-.87,4,4,0,0,0,.6-2v-.22a4,4,0,0,0-1-2.52,4.07,4.07,0,0,0-3.28-1.49H293v1.67a1,1,0,0,1-.76,1.07l-.26,0h0a1,1,0,0,1-1-.61,1.13,1.13,0,0,1-.09-.45V84.36a1,1,0,0,1,.66-1A.86.86,0,0,1,291.94,83.31Z"/></g><path class="cls-5" d="M292,89.89h.06a1.09,1.09,0,0,1,.47,2.06,1.25,1.25,0,0,1-.49.12,1.1,1.1,0,0,1-1-.64,1.33,1.33,0,0,1-.09-.45,1.09,1.09,0,0,1,.58-1A1.13,1.13,0,0,1,292,89.89Z"/><circle class="cls-3" cx="55.14" cy="164.21" r="13.56"/><path class="cls-4" d="M51.49,158H53.7a6.11,6.11,0,0,1,3.69,1.32,8.24,8.24,0,0,1,.77.72,6,6,0,0,1,1.62,4.06v.19a6.18,6.18,0,0,1-1.84,4.31A7.06,7.06,0,0,1,55.86,170a5.38,5.38,0,0,1-1.81.41h-2.7a.87.87,0,0,1-.52-.25,1,1,0,0,1-.33-.77,1,1,0,0,1,.6-.93,1.19,1.19,0,0,1,.47-.09h2a4,4,0,0,0,2.82-1.12,5.17,5.17,0,0,0,.7-.86,4,4,0,0,0,.6-2v-.22a4,4,0,0,0-.95-2.52,4.09,4.09,0,0,0-3.28-1.5h-.92v1.68a1.05,1.05,0,0,1-.77,1.07l-.26,0h0a1,1,0,0,1-1-.62,1.12,1.12,0,0,1-.08-.45v-2.73a1,1,0,0,1,.65-1A.93.93,0,0,1,51.49,158Z"/><path class="cls-5" d="M51.56,164.62h.06a1.05,1.05,0,0,1,.87.47,1.08,1.08,0,0,1,.19.62,1.1,1.1,0,0,1-.59,1,1.29,1.29,0,0,1-.5.12,1.11,1.11,0,0,1-1-.65,1.29,1.29,0,0,1-.09-.45,1.06,1.06,0,0,1,.58-1A1.13,1.13,0,0,1,51.56,164.62Z"/><circle class="cls-3" cx="102.14" cy="203.38" r="13.56"/><path class="cls-4" d="M98.5,197.2h2.2a6.09,6.09,0,0,1,3.69,1.32,7,7,0,0,1,.78.72,6,6,0,0,1,1.62,4.06v.19a6.19,6.19,0,0,1-1.85,4.31,5.84,5.84,0,0,1-1.2.91,6.32,6.32,0,0,1-.88.44,5.33,5.33,0,0,1-1.8.41H98.35a.9.9,0,0,1-.52-.25,1,1,0,0,1-.33-.77,1,1,0,0,1,.6-.93,1.19,1.19,0,0,1,.47-.09h2a4,4,0,0,0,2.82-1.12,5.75,5.75,0,0,0,.7-.86,4,4,0,0,0,.6-2v-.22a4,4,0,0,0-1-2.52,4.08,4.08,0,0,0-3.28-1.5h-.92V201a1,1,0,0,1-.76,1.07l-.26,0h0a1,1,0,0,1-1-.62,1.13,1.13,0,0,1-.09-.45v-2.73a1,1,0,0,1,.66-1A.88.88,0,0,1,98.5,197.2Z"/><path class="cls-5" d="M98.56,203.79h.06a1.05,1.05,0,0,1,.87.47,1.08,1.08,0,0,1,.19.62,1.1,1.1,0,0,1-.59,1,1.25,1.25,0,0,1-.49.12,1.11,1.11,0,0,1-1-.65,1.29,1.29,0,0,1-.09-.45,1.06,1.06,0,0,1,.58-1A1.13,1.13,0,0,1,98.56,203.79Z"/><g class="cls-6"><path class="cls-5" d="M51.49,197.2H53.7a6.11,6.11,0,0,1,3.69,1.32,8.24,8.24,0,0,1,.77.72,6,6,0,0,1,1.62,4.06v.19a6.18,6.18,0,0,1-1.84,4.31,7.06,7.06,0,0,1-2.08,1.35,5.38,5.38,0,0,1-1.81.41h-2.7a.87.87,0,0,1-.52-.25,1,1,0,0,1-.33-.77,1,1,0,0,1,.6-.93,1.19,1.19,0,0,1,.47-.09h2a4,4,0,0,0,2.82-1.12,5.17,5.17,0,0,0,.7-.86,4,4,0,0,0,.6-2v-.22a4,4,0,0,0-.95-2.52,4.09,4.09,0,0,0-3.28-1.5h-.92V201A1.05,1.05,0,0,1,51.8,202l-.26,0h0a1,1,0,0,1-1-.62,1.12,1.12,0,0,1-.08-.45v-2.73a1,1,0,0,1,.65-1A.93.93,0,0,1,51.49,197.2Z"/></g><path class="cls-5" d="M51.56,203.79h.06a1.05,1.05,0,0,1,.87.47,1.08,1.08,0,0,1,.19.62,1.1,1.1,0,0,1-.59,1,1.29,1.29,0,0,1-.5.12,1.11,1.11,0,0,1-1-.65,1.29,1.29,0,0,1-.09-.45,1.06,1.06,0,0,1,.58-1A1.13,1.13,0,0,1,51.56,203.79Z"/><circle class="cls-3" cx="201.57" cy="203.38" r="13.56"/><path class="cls-4" d="M197.93,197.2h2.2a6.14,6.14,0,0,1,3.7,1.32,8.24,8.24,0,0,1,.77.72,6,6,0,0,1,1.62,4.06v.19a6.22,6.22,0,0,1-1.84,4.31,6.12,6.12,0,0,1-1.21.91,6.32,6.32,0,0,1-.88.44,5.33,5.33,0,0,1-1.8.41h-2.71a.9.9,0,0,1-.52-.25,1,1,0,0,1-.33-.77,1,1,0,0,1,.6-.93,1.23,1.23,0,0,1,.47-.09h2a4,4,0,0,0,2.82-1.12,5.17,5.17,0,0,0,.7-.86,4,4,0,0,0,.6-2v-.22a4,4,0,0,0-1-2.52,4.08,4.08,0,0,0-3.28-1.5H199V201a1.05,1.05,0,0,1-.77,1.07l-.26,0h0a1,1,0,0,1-.95-.62,1.13,1.13,0,0,1-.09-.45v-2.73a1,1,0,0,1,.66-1A.88.88,0,0,1,197.93,197.2Z"/><path class="cls-5" d="M198,203.79h.06a1.08,1.08,0,0,1,.88.47,1.15,1.15,0,0,1,.18.62,1.08,1.08,0,0,1-.59,1,1.25,1.25,0,0,1-.49.12,1.12,1.12,0,0,1-1-.65,1.29,1.29,0,0,1-.09-.45,1.07,1.07,0,0,1,.59-1A1.09,1.09,0,0,1,198,203.79Z"/><g class="cls-6"><path class="cls-5" d="M148.21,197.2h2.21a6.13,6.13,0,0,1,3.69,1.32,8.24,8.24,0,0,1,.77.72,6,6,0,0,1,1.62,4.06v.19a6.18,6.18,0,0,1-1.84,4.31,7.06,7.06,0,0,1-2.08,1.35,5.38,5.38,0,0,1-1.81.41h-2.7a.87.87,0,0,1-.52-.25,1,1,0,0,1-.33-.77,1,1,0,0,1,.6-.93,1.18,1.18,0,0,1,.46-.09h2a4,4,0,0,0,2.82-1.12,5.17,5.17,0,0,0,.7-.86,4,4,0,0,0,.6-2v-.22a4,4,0,0,0-.95-2.52,4.09,4.09,0,0,0-3.28-1.5h-.92V201a1.05,1.05,0,0,1-.77,1.07l-.26,0h0a1,1,0,0,1-1-.62,1.12,1.12,0,0,1-.08-.45v-2.73a1,1,0,0,1,.65-1A.93.93,0,0,1,148.21,197.2Z"/></g><path class="cls-5" d="M148.28,203.79h.06a1.05,1.05,0,0,1,.87.47,1.08,1.08,0,0,1,.19.62,1.1,1.1,0,0,1-.59,1,1.29,1.29,0,0,1-.5.12,1.11,1.11,0,0,1-1-.65,1.29,1.29,0,0,1-.09-.45,1.06,1.06,0,0,1,.58-1A1.13,1.13,0,0,1,148.28,203.79Z"/><circle class="cls-3" cx="295.58" cy="203.38" r="13.56"/><path class="cls-4" d="M291.94,197.2h2.2a6.09,6.09,0,0,1,3.69,1.32,8.06,8.06,0,0,1,.78.72,6,6,0,0,1,1.62,4.06v.19a6.19,6.19,0,0,1-1.85,4.31,5.84,5.84,0,0,1-1.2.91,6.32,6.32,0,0,1-.88.44,5.33,5.33,0,0,1-1.81.41h-2.7a.9.9,0,0,1-.52-.25,1,1,0,0,1-.33-.77,1,1,0,0,1,.6-.93,1.19,1.19,0,0,1,.47-.09h2a4,4,0,0,0,2.82-1.12,5.75,5.75,0,0,0,.7-.86,4,4,0,0,0,.6-2v-.22a4,4,0,0,0-1-2.52,4.08,4.08,0,0,0-3.28-1.5H293V201a1,1,0,0,1-.76,1.07l-.26,0h0a1,1,0,0,1-1-.62,1.13,1.13,0,0,1-.09-.45v-2.73a1,1,0,0,1,.66-1A.88.88,0,0,1,291.94,197.2Z"/><path class="cls-5" d="M292,203.79h.06a1.05,1.05,0,0,1,.87.47,1.08,1.08,0,0,1,.19.62,1.1,1.1,0,0,1-.59,1,1.25,1.25,0,0,1-.49.12,1.11,1.11,0,0,1-1-.65,1.29,1.29,0,0,1-.09-.45,1.06,1.06,0,0,1,.58-1A1.13,1.13,0,0,1,292,203.79Z"/><g class="cls-6"><path class="cls-5" d="M246.74,197.2h2.2a6.14,6.14,0,0,1,3.7,1.32,8.24,8.24,0,0,1,.77.72A6,6,0,0,1,255,203.3v.19a6.18,6.18,0,0,1-1.84,4.31,5.84,5.84,0,0,1-1.21.91,6.06,6.06,0,0,1-.87.44,5.43,5.43,0,0,1-1.81.41h-2.7a.87.87,0,0,1-.52-.25,1,1,0,0,1,.26-1.7,1.23,1.23,0,0,1,.47-.09h2a4,4,0,0,0,2.82-1.12,5.17,5.17,0,0,0,.7-.86,4,4,0,0,0,.6-2v-.22a4,4,0,0,0-.95-2.52,4.11,4.11,0,0,0-3.29-1.5h-.91V201a1.05,1.05,0,0,1-.77,1.07l-.26,0h0a1,1,0,0,1-.95-.62,1.13,1.13,0,0,1-.09-.45v-2.73a1,1,0,0,1,.66-1A.88.88,0,0,1,246.74,197.2Z"/></g><path class="cls-5" d="M246.81,203.79h.05a1.07,1.07,0,0,1,.88.47,1.16,1.16,0,0,1,.19.62,1.09,1.09,0,0,1-.6,1,1.21,1.21,0,0,1-.49.12,1.1,1.1,0,0,1-1-.65,1.12,1.12,0,0,1-.1-.45,1.07,1.07,0,0,1,.59-1A1.13,1.13,0,0,1,246.81,203.79Z"/><circle class="cls-3" cx="151.86" cy="164.21" r="13.56"/><path class="cls-4" d="M148.21,158h2.21a6.13,6.13,0,0,1,3.69,1.32,8.24,8.24,0,0,1,.77.72,6,6,0,0,1,1.62,4.06v.19a6.18,6.18,0,0,1-1.84,4.31,7.06,7.06,0,0,1-2.08,1.35,5.38,5.38,0,0,1-1.81.41h-2.7a.87.87,0,0,1-.52-.25,1,1,0,0,1-.33-.77,1,1,0,0,1,.6-.93,1.18,1.18,0,0,1,.46-.09h2a4,4,0,0,0,2.82-1.12,5.17,5.17,0,0,0,.7-.86,4,4,0,0,0,.6-2v-.22a4,4,0,0,0-.95-2.52,4.09,4.09,0,0,0-3.28-1.5h-.92v1.68a1.05,1.05,0,0,1-.77,1.07l-.26,0h0a1,1,0,0,1-1-.62,1.12,1.12,0,0,1-.08-.45v-2.73a1,1,0,0,1,.65-1A.93.93,0,0,1,148.21,158Z"/><path class="cls-5" d="M148.28,164.62h.06a1.05,1.05,0,0,1,.87.47,1.08,1.08,0,0,1,.19.62,1.1,1.1,0,0,1-.59,1,1.29,1.29,0,0,1-.5.12,1.11,1.11,0,0,1-1-.65,1.29,1.29,0,0,1-.09-.45,1.06,1.06,0,0,1,.58-1A1.13,1.13,0,0,1,148.28,164.62Z"/><g class="cls-6"><path class="cls-5" d="M98.5,158h2.2a6.09,6.09,0,0,1,3.69,1.32,7,7,0,0,1,.78.72,6,6,0,0,1,1.62,4.06v.19a6.19,6.19,0,0,1-1.85,4.31,5.84,5.84,0,0,1-1.2.91,6.32,6.32,0,0,1-.88.44,5.33,5.33,0,0,1-1.8.41H98.35a.9.9,0,0,1-.52-.25,1,1,0,0,1-.33-.77,1,1,0,0,1,.6-.93,1.19,1.19,0,0,1,.47-.09h2a4,4,0,0,0,2.82-1.12,5.75,5.75,0,0,0,.7-.86,4,4,0,0,0,.6-2v-.22a4,4,0,0,0-1-2.52,4.08,4.08,0,0,0-3.28-1.5h-.92v1.68a1,1,0,0,1-.76,1.07l-.26,0h0a1,1,0,0,1-1-.62,1.13,1.13,0,0,1-.09-.45v-2.73a1,1,0,0,1,.66-1A.88.88,0,0,1,98.5,158Z"/></g><path class="cls-5" d="M98.56,164.62h.06a1.05,1.05,0,0,1,.87.47,1.08,1.08,0,0,1,.19.62,1.1,1.1,0,0,1-.59,1,1.25,1.25,0,0,1-.49.12,1.11,1.11,0,0,1-1-.65,1.29,1.29,0,0,1-.09-.45,1.06,1.06,0,0,1,.58-1A1.13,1.13,0,0,1,98.56,164.62Z"/><circle class="cls-3" cx="250.39" cy="164.21" r="13.56"/><path class="cls-4" d="M246.74,158h2.2a6.14,6.14,0,0,1,3.7,1.32,8.24,8.24,0,0,1,.77.72,6,6,0,0,1,1.62,4.06v.19a6.18,6.18,0,0,1-1.84,4.31,5.84,5.84,0,0,1-1.21.91,6.06,6.06,0,0,1-.87.44,5.43,5.43,0,0,1-1.81.41h-2.7a.87.87,0,0,1-.52-.25,1,1,0,0,1,.26-1.7,1.23,1.23,0,0,1,.47-.09h2a4,4,0,0,0,2.82-1.12,5.17,5.17,0,0,0,.7-.86,4,4,0,0,0,.6-2v-.22a4,4,0,0,0-.95-2.52,4.11,4.11,0,0,0-3.29-1.5h-.91v1.68a1.05,1.05,0,0,1-.77,1.07l-.26,0h0a1,1,0,0,1-.95-.62,1.13,1.13,0,0,1-.09-.45v-2.73a1,1,0,0,1,.66-1A.88.88,0,0,1,246.74,158Z"/><path class="cls-5" d="M246.81,164.62h.05a1.07,1.07,0,0,1,.88.47,1.16,1.16,0,0,1,.19.62,1.09,1.09,0,0,1-.6,1,1.21,1.21,0,0,1-.49.12,1.1,1.1,0,0,1-1-.65,1.12,1.12,0,0,1-.1-.45,1.07,1.07,0,0,1,.59-1A1.13,1.13,0,0,1,246.81,164.62Z"/><g class="cls-6"><path class="cls-5" d="M197.93,158h2.2a6.14,6.14,0,0,1,3.7,1.32,8.24,8.24,0,0,1,.77.72,6,6,0,0,1,1.62,4.06v.19a6.22,6.22,0,0,1-1.84,4.31,6.12,6.12,0,0,1-1.21.91,6.32,6.32,0,0,1-.88.44,5.33,5.33,0,0,1-1.8.41h-2.71a.9.9,0,0,1-.52-.25,1,1,0,0,1-.33-.77,1,1,0,0,1,.6-.93,1.23,1.23,0,0,1,.47-.09h2a4,4,0,0,0,2.82-1.12,5.17,5.17,0,0,0,.7-.86,4,4,0,0,0,.6-2v-.22a4,4,0,0,0-1-2.52,4.08,4.08,0,0,0-3.28-1.5H199v1.68a1.05,1.05,0,0,1-.77,1.07l-.26,0h0a1,1,0,0,1-.95-.62,1.13,1.13,0,0,1-.09-.45v-2.73a1,1,0,0,1,.66-1A.88.88,0,0,1,197.93,158Z"/></g><path class="cls-5" d="M198,164.62h.06a1.08,1.08,0,0,1,.88.47,1.15,1.15,0,0,1,.18.62,1.08,1.08,0,0,1-.59,1,1.25,1.25,0,0,1-.49.12,1.12,1.12,0,0,1-1-.65,1.29,1.29,0,0,1-.09-.45,1.07,1.07,0,0,1,.59-1A1.09,1.09,0,0,1,198,164.62Z"/><g class="cls-6"><path class="cls-5" d="M291.94,158h2.2a6.09,6.09,0,0,1,3.69,1.32,8.06,8.06,0,0,1,.78.72,6,6,0,0,1,1.62,4.06v.19a6.19,6.19,0,0,1-1.85,4.31,5.84,5.84,0,0,1-1.2.91,6.32,6.32,0,0,1-.88.44,5.33,5.33,0,0,1-1.81.41h-2.7a.9.9,0,0,1-.52-.25,1,1,0,0,1-.33-.77,1,1,0,0,1,.6-.93,1.19,1.19,0,0,1,.47-.09h2a4,4,0,0,0,2.82-1.12,5.75,5.75,0,0,0,.7-.86,4,4,0,0,0,.6-2v-.22a4,4,0,0,0-1-2.52,4.08,4.08,0,0,0-3.28-1.5H293v1.68a1,1,0,0,1-.76,1.07l-.26,0h0a1,1,0,0,1-1-.62,1.13,1.13,0,0,1-.09-.45v-2.73a1,1,0,0,1,.66-1A.88.88,0,0,1,291.94,158Z"/></g><path class="cls-5" d="M292,164.62h.06a1.05,1.05,0,0,1,.87.47,1.08,1.08,0,0,1,.19.62,1.1,1.1,0,0,1-.59,1,1.25,1.25,0,0,1-.49.12,1.11,1.11,0,0,1-1-.65,1.29,1.29,0,0,1-.09-.45,1.06,1.06,0,0,1,.58-1A1.13,1.13,0,0,1,292,164.62Z"/><circle class="cls-3" cx="13.56" cy="123.06" r="13.56"/><path class="cls-4" d="M9.91,116.88h2.21a6.13,6.13,0,0,1,3.69,1.32,8.24,8.24,0,0,1,.77.72A6,6,0,0,1,18.2,123v.19a6.18,6.18,0,0,1-1.84,4.31,5.59,5.59,0,0,1-1.21.91,5.55,5.55,0,0,1-.87.44,5.38,5.38,0,0,1-1.81.41H9.77a.87.87,0,0,1-.52-.25,1,1,0,0,1-.33-.77,1,1,0,0,1,.59-.93,1.27,1.27,0,0,1,.47-.09h2a4,4,0,0,0,2.82-1.12,5.17,5.17,0,0,0,.7-.86,4,4,0,0,0,.6-2V123a4,4,0,0,0-1-2.52,4.09,4.09,0,0,0-3.28-1.5H11v1.68a1.05,1.05,0,0,1-.77,1.07l-.26,0h0a1,1,0,0,1-1-.62,1.12,1.12,0,0,1-.08-.45v-2.73a1,1,0,0,1,.65-1A.93.93,0,0,1,9.91,116.88Z"/><path class="cls-5" d="M10,123.47H10a1.05,1.05,0,0,1,.87.47,1.08,1.08,0,0,1,.19.62,1.1,1.1,0,0,1-.59,1,1.29,1.29,0,0,1-.5.12A1.1,1.1,0,0,1,9,125a1.29,1.29,0,0,1-.09-.45,1.06,1.06,0,0,1,.58-1A1.13,1.13,0,0,1,10,123.47Z"/><g class="cls-6"><path class="cls-5" d="M9.91,82.1h2.21a6.13,6.13,0,0,1,3.69,1.32,8.24,8.24,0,0,1,.77.72A6.05,6.05,0,0,1,18.2,88.2v.19a6.18,6.18,0,0,1-1.84,4.31,5.59,5.59,0,0,1-1.21.91,5.55,5.55,0,0,1-.87.44,5.38,5.38,0,0,1-1.81.41H9.77a.87.87,0,0,1-.52-.25,1,1,0,0,1-.33-.77,1,1,0,0,1,.59-.93,1.27,1.27,0,0,1,.47-.09h2a4,4,0,0,0,2.82-1.12,5.17,5.17,0,0,0,.7-.86,4,4,0,0,0,.6-2v-.22a4,4,0,0,0-1-2.52,4.09,4.09,0,0,0-3.28-1.5H11v1.68a1.05,1.05,0,0,1-.77,1.07L10,87h0a1,1,0,0,1-1-.62,1.12,1.12,0,0,1-.08-.45V83.15a1,1,0,0,1,.65-1A.93.93,0,0,1,9.91,82.1Z"/></g><path class="cls-5" d="M10,88.69H10a1.05,1.05,0,0,1,.87.47,1.08,1.08,0,0,1,.19.62,1.1,1.1,0,0,1-.59,1,1.29,1.29,0,0,1-.5.12,1.1,1.1,0,0,1-1-.64,1.38,1.38,0,0,1-.09-.46,1.07,1.07,0,0,1,.58-1A1.13,1.13,0,0,1,10,88.69Z"/><circle class="cls-3" cx="13.56" cy="203.38" r="13.56"/><path class="cls-4" d="M9.91,197.2h2.21a6.13,6.13,0,0,1,3.69,1.32,8.24,8.24,0,0,1,.77.72,6,6,0,0,1,1.62,4.06v.19a6.18,6.18,0,0,1-1.84,4.31,5.59,5.59,0,0,1-1.21.91,5.55,5.55,0,0,1-.87.44,5.38,5.38,0,0,1-1.81.41H9.77a.87.87,0,0,1-.52-.25,1,1,0,0,1-.33-.77,1,1,0,0,1,.59-.93,1.27,1.27,0,0,1,.47-.09h2a4,4,0,0,0,2.82-1.12,5.17,5.17,0,0,0,.7-.86,4,4,0,0,0,.6-2v-.22a4,4,0,0,0-1-2.52,4.09,4.09,0,0,0-3.28-1.5H11V201a1.05,1.05,0,0,1-.77,1.07l-.26,0h0a1,1,0,0,1-1-.62,1.12,1.12,0,0,1-.08-.45v-2.73a1,1,0,0,1,.65-1A.93.93,0,0,1,9.91,197.2Z"/><path class="cls-5" d="M10,203.79H10a1.05,1.05,0,0,1,.87.47,1.08,1.08,0,0,1,.19.62,1.1,1.1,0,0,1-.59,1,1.29,1.29,0,0,1-.5.12,1.1,1.1,0,0,1-1-.65,1.29,1.29,0,0,1-.09-.45,1.06,1.06,0,0,1,.58-1A1.13,1.13,0,0,1,10,203.79Z"/><g class="cls-6"><path class="cls-5" d="M9.91,158h2.21a6.13,6.13,0,0,1,3.69,1.32,8.24,8.24,0,0,1,.77.72,6,6,0,0,1,1.62,4.06v.19a6.18,6.18,0,0,1-1.84,4.31,5.59,5.59,0,0,1-1.21.91,5.55,5.55,0,0,1-.87.44,5.38,5.38,0,0,1-1.81.41H9.77a.87.87,0,0,1-.52-.25,1,1,0,0,1-.33-.77,1,1,0,0,1,.59-.93,1.27,1.27,0,0,1,.47-.09h2a4,4,0,0,0,2.82-1.12,5.17,5.17,0,0,0,.7-.86,4,4,0,0,0,.6-2v-.22a4,4,0,0,0-1-2.52,4.09,4.09,0,0,0-3.28-1.5H11v1.68a1.05,1.05,0,0,1-.77,1.07l-.26,0h0a1,1,0,0,1-1-.62,1.12,1.12,0,0,1-.08-.45v-2.73a1,1,0,0,1,.65-1A.93.93,0,0,1,9.91,158Z"/></g><path class="cls-5" d="M10,164.62H10a1.05,1.05,0,0,1,.87.47,1.08,1.08,0,0,1,.19.62,1.1,1.1,0,0,1-.59,1,1.29,1.29,0,0,1-.5.12,1.1,1.1,0,0,1-1-.65,1.29,1.29,0,0,1-.09-.45,1.06,1.06,0,0,1,.58-1A1.13,1.13,0,0,1,10,164.62Z"/></g></g></g></g></svg>