<?xml version="1.0" encoding="utf-8"?>
<!-- Generator: Adobe Illustrator 24.0.0, SVG Export Plug-In . SVG Version: 6.00 Build 0)  -->
<svg version="1.1" id="Layer_1" xmlns="http://www.w3.org/2000/svg" xmlns:xlink="http://www.w3.org/1999/xlink" x="0px" y="0px"
	 viewBox="0 0 1200 1200" style="enable-background:new 0 0 1200 1200;" xml:space="preserve">
<style type="text/css">
	.st0{fill:#2A2B2A;}
	.st1{font-family:'FlamanteRoundMedium';}
	.st2{font-size:215.0842px;}
	.st3{font-family:'CorsaGrotesk-Thin';}
	.st4{font-size:26.0531px;}
	.st5{fill:#F0C54D;}
</style>
<g>
	<g>
		<g>
			<g>
				<text transform="matrix(1 0 0 1 249.002 917.4766)" class="st0 st1 st2">Dinger</text>
			</g>
		</g>
		<g>
			<text transform="matrix(1 0 0 1 748.791 964.5391)" class="st0 st3 st4">ONE FOR ALL. </text>
		</g>
	</g>
	<g>
		<g>
			<path class="st0" d="M485.4,221h90.2c52.3,0,102.6,17.9,151.1,53.8c7.5,5.7,18,15.6,31.7,29.6c44.2,50.5,66.3,105.8,66.3,165.9v8
				c0,63.9-25.1,122.6-75.4,176.3c-20.5,18.7-37,31.2-49.4,37.3c-6.7,4.5-18.6,10.6-35.8,18c-30.4,11.2-55,16.9-73.9,16.9H479.4
				c-5.7,0-12.8-3.5-21.3-10.4c-9.1-8.9-13.6-19.3-13.6-31.3c0-16.6,8.2-29.3,24.6-38.2c5.9-2.6,12.3-3.8,19.2-3.8h83.4
				c44.6,0,83-15.2,115.4-45.6c13.4-14,23-25.8,28.7-35.5c16.4-28,24.6-55.7,24.6-83.1V470c0-36.1-13-70.5-39-103.2
				C666.8,326,622,305.6,567,305.6h-37.6v68.6c0,21.9-10.4,36.5-31.3,43.8c-4.1,0.8-7.7,1.2-10.6,1.2h-0.3c-17.4,0-30.4-8.4-39-25.1
				c-2.4-5.7-3.5-11.8-3.5-18.3V263.9c0-18.3,9-31.6,26.9-39.9C476.4,222,481,221,485.4,221z"/>
		</g>
		<path class="st5" d="M488,490.4h2.4c14,0,25.9,6.5,35.8,19.5c5.1,7.7,7.7,16.2,7.7,25.4c0,16.8-8.1,29.9-24.3,39.3
			c-7.5,3.4-14.2,5-20.1,5c-17.7,0-31.5-8.8-41.1-26.3c-2.6-6.7-3.8-12.9-3.8-18.6c0-16.6,8-29.7,24-39.3
			C475.4,492,481.9,490.4,488,490.4z"/>
	</g>
</g>
</svg>
