<svg xmlns="http://www.w3.org/2000/svg" viewBox="0 0 507.63 423.21"><defs><style>.cls-1{isolation:isolate;}.cls-2{fill:#f0c54d;}.cls-3{fill:#2a2b2a;}.cls-10,.cls-4{fill:#ffe066;}.cls-5,.cls-6{fill:#003aa5;}.cls-12,.cls-5{mix-blend-mode:multiply;}.cls-7{fill:#fffffd;}.cls-8{fill:#ddb34a;}.cls-9{fill:#e5e5e5;}.cls-10{opacity:0.5;}.cls-11{fill:#c2e1fe;}.cls-13{fill:#259aff;}.cls-14{fill:#c6a042;}</style></defs><title>ecommerce-bg</title><g class="cls-1"><g id="Layer_2" data-name="Layer 2"><g id="Layer_1-2" data-name="Layer 1"><path class="cls-2" d="M0,0S117.13,59,195.41,191.84a407.19,407.19,0,0,1,25.26,51c17.24,41.62,89.51,180.35,287,180.35H0Z"/><rect class="cls-3" x="124.54" y="75.21" width="189.69" height="278.37" rx="8.13"/><rect class="cls-4" x="136.24" y="89.12" width="166.29" height="244.04"/><rect class="cls-5" x="200.55" y="79.89" width="37.67" height="3.19" rx="1.25"/><rect class="cls-5" x="199.9" y="337.27" width="38.97" height="12.7" rx="4.97"/><polygon class="cls-6" points="144.18 158.94 154.59 133.24 127.47 133.24 113.29 158.94 144.18 158.94"/><polygon class="cls-2" points="174.73 158.94 180.84 133.24 154.59 133.24 144.18 158.94 174.73 158.94"/><polygon class="cls-6" points="205.28 158.94 207.98 133.24 180.84 133.24 174.74 158.94 205.28 158.94"/><polygon class="cls-6" points="327.52 158.94 314.08 133.24 286.58 133.24 296.96 158.94 327.52 158.94"/><polygon class="cls-2" points="296.96 158.94 286.65 133.24 260.63 133.24 266.41 158.95 296.96 158.94"/><polygon class="cls-6" points="266.41 158.95 260.63 133.24 231.67 133.24 235.86 158.94 266.41 158.95"/><polygon class="cls-7" points="144.18 158.94 154.59 133.24 127.47 133.24 113.29 158.94 144.18 158.94"/><polygon class="cls-7" points="205.28 158.94 207.98 133.24 180.84 133.24 174.74 158.94 205.28 158.94"/><polygon class="cls-7" points="327.52 158.94 314.08 133.24 286.58 133.24 296.96 158.94 327.52 158.94"/><polygon class="cls-7" points="266.41 158.95 260.63 133.24 231.67 133.24 235.86 158.94 266.41 158.95"/><polygon class="cls-2" points="235.86 158.94 231.67 133.24 207.94 133.24 205.28 158.94 235.86 158.94"/><path class="cls-6" d="M113.29,158.94h30.87a0,0,0,0,1,0,0v24.9a12.09,12.09,0,0,1-12.09,12.09h-6.69a12.09,12.09,0,0,1-12.09-12.09v-24.9A0,0,0,0,1,113.29,158.94Z"/><path class="cls-8" d="M159.45,195.93h0a15.28,15.28,0,0,1-15.27-15.28V159.39a.45.45,0,0,1,.45-.45h29.64a.46.46,0,0,1,.46.45v21.26A15.28,15.28,0,0,1,159.45,195.93Z"/><path class="cls-8" d="M220.59,195.93h0a15.28,15.28,0,0,1-15.28-15.28V159.39a.45.45,0,0,1,.45-.45h29.65a.45.45,0,0,1,.45.45v21.26A15.28,15.28,0,0,1,220.59,195.93Z"/><path class="cls-6" d="M235.86,158.95h30.55a0,0,0,0,1,0,0v25a12,12,0,0,1-12,12h-6.62a12,12,0,0,1-12-12v-25A0,0,0,0,1,235.86,158.95Z"/><path class="cls-8" d="M281.68,196h0a15.28,15.28,0,0,1-15.27-15.28V159.41a.45.45,0,0,1,.45-.45H296.5a.46.46,0,0,1,.46.45v21.26A15.28,15.28,0,0,1,281.68,196Z"/><path class="cls-6" d="M312.25,196h0A15.27,15.27,0,0,1,297,180.67V159h30.54v21.71A15.27,15.27,0,0,1,312.25,196Z"/><path class="cls-6" d="M190,195.93h0a15.28,15.28,0,0,1-15.27-15.28V158.94h30.55v21.71A15.28,15.28,0,0,1,190,195.93Z"/><path class="cls-6" d="M113.29,158.94h30.87a0,0,0,0,1,0,0v24.9a12.09,12.09,0,0,1-12.09,12.09h-6.69a12.09,12.09,0,0,1-12.09-12.09v-24.9A0,0,0,0,1,113.29,158.94Z"/><path class="cls-6" d="M235.86,158.95h30.55a0,0,0,0,1,0,0v25a12,12,0,0,1-12,12h-6.62a12,12,0,0,1-12-12v-25A0,0,0,0,1,235.86,158.95Z"/><path class="cls-6" d="M312.25,196h0A15.27,15.27,0,0,1,297,180.67V159h30.54v21.71A15.27,15.27,0,0,1,312.25,196Z"/><path class="cls-9" d="M113.29,158.94h30.87a0,0,0,0,1,0,0v24.9a12.09,12.09,0,0,1-12.09,12.09h-6.69a12.09,12.09,0,0,1-12.09-12.09v-24.9A0,0,0,0,1,113.29,158.94Z"/><path class="cls-9" d="M235.86,158.95h30.55a0,0,0,0,1,0,0v25a12,12,0,0,1-12,12h-6.62a12,12,0,0,1-12-12v-25A0,0,0,0,1,235.86,158.95Z"/><path class="cls-9" d="M312.25,196h0A15.27,15.27,0,0,1,297,180.67V159h30.54v21.71A15.27,15.27,0,0,1,312.25,196Z"/><path class="cls-6" d="M190,195.93a15.28,15.28,0,0,1-15.27-15.28V158.94"/><path class="cls-9" d="M190,195.93h0a15.28,15.28,0,0,1-15.27-15.28V158.94h30.55v21.71A15.28,15.28,0,0,1,190,195.93Z"/><rect class="cls-2" x="142.46" y="205.11" width="153.85" height="25.34"/><rect class="cls-2" x="191.36" y="237.46" width="104.95" height="8.03"/><rect class="cls-2" x="191.36" y="250.13" width="104.95" height="8.03"/><rect class="cls-2" x="191.36" y="262.8" width="104.95" height="8.03"/><rect class="cls-2" x="191.36" y="275.47" width="104.95" height="8.03"/><rect class="cls-2" x="136.24" y="89.12" width="166.29" height="36.1"/><rect class="cls-10" x="150.95" y="96.81" width="135.9" height="20.72" rx="3.13"/><rect class="cls-10" x="150.95" y="96.81" width="135.9" height="20.72" rx="3.13"/><polygon class="cls-11" points="104.52 239.77 104.52 283.25 101.96 283.5 104.52 285.82 185.51 285.82 185.51 239.77 182.96 237.46 104.52 239.77"/><polygon class="cls-8" points="104.52 239.77 104.52 283.25 101.96 283.5 104.52 285.82 185.51 285.82 185.51 239.77 182.96 237.46 104.52 239.77"/><polygon class="cls-8" points="182.96 237.46 185.51 239.77 185.51 285.82 182.96 283.5 182.96 237.46"/><rect class="cls-7" x="101.96" y="237.46" width="80.99" height="46.04"/><g class="cls-12"><path class="cls-4" d="M137.39,265v0h15.13a1.18,1.18,0,0,0,1.12-.84L157,252.45a1.19,1.19,0,0,0-.18-1,1.17,1.17,0,0,0-.93-.46H135.73l-.54-2.43a1.16,1.16,0,0,0-1.13-.91h-5a1.16,1.16,0,0,0,0,2.32h4.08L136,263a2.83,2.83,0,0,0,1.26,5.3,2.79,2.79,0,0,0-1,2.18,2.83,2.83,0,1,0,5.65,0,2.79,2.79,0,0,0-1-2.17h8.23a2.8,2.8,0,0,0-1.05,2.17,2.83,2.83,0,1,0,5.66,0,2.79,2.79,0,0,0-1.07-2.19,1.15,1.15,0,0,0-.09-2.3H137.4a.51.51,0,0,1-.51-.51A.5.5,0,0,1,137.39,265Zm13.47,6a.51.51,0,1,1,.51-.51A.51.51,0,0,1,150.86,271Zm-11.79-1a.51.51,0,1,1-.51.51A.5.5,0,0,1,139.07,270Zm-2.82-16.69h18.08l-2.67,9.37H138.33Z"/></g><polygon class="cls-13" points="331.74 316.67 165.29 316.67 163.22 314.91 165.29 293.45 329.66 291.7 331.74 293.45 331.74 316.67"/><rect class="cls-2" x="163.22" y="291.7" width="166.44" height="23.21"/><polygon class="cls-14" points="329.66 291.7 331.74 293.45 331.74 316.67 329.66 314.91 329.66 291.7"/><polygon class="cls-14" points="163.22 314.91 329.66 314.91 331.74 316.67 165.29 316.67 163.22 314.91"/></g></g></g></svg>