<svg width="32" height="32" viewBox="0 0 32 32" fill="none" xmlns="http://www.w3.org/2000/svg">
<path d="M16 4C9.33333 4 4 9.33333 4 16C4 18.4 4.8 20.8 6.13333 22.8L4.26667 26C4 26.4 4 26.9333 4.26667 27.3333C4.53333 27.7333 4.8 28 5.33333 28H16C22.6667 28 28 22.6667 28 16C28 9.33333 22.6667 4 16 4ZM16 25.3333H7.73333L8.93333 23.3333C9.2 22.8 9.2 22.2667 8.8 21.8667C7.46667 20.2667 6.66667 18.1333 6.66667 16C6.66667 10.8 10.8 6.66667 16 6.66667C21.2 6.66667 25.3333 10.8 25.3333 16C25.3333 21.2 21.2 25.3333 16 25.3333Z" fill="#FDBE34"/>
<path d="M16.1331 9.73333H15.9998C14.6665 9.73333 13.4665 10.4 12.7998 11.4667C12.2665 12.1333 12.3998 12.9333 13.0665 13.3333C13.7331 13.7333 14.5331 13.6 14.9331 12.9333C15.1998 12.5333 15.5998 12.4 15.9998 12.4H16.1331C16.7998 12.4 17.3331 12.9333 17.3331 13.6C17.3331 14.1333 16.9331 14.6667 16.5331 14.8L15.5998 15.0667C15.0665 15.2 14.6665 15.7333 14.6665 16.2667V17.3333C14.6665 18.1333 15.1998 18.6667 15.9998 18.6667C16.6665 18.6667 17.3331 18.1333 17.3331 17.4667C18.9331 16.9333 19.9998 15.4667 19.9998 13.7333C19.9998 11.6 18.2665 9.73333 16.1331 9.73333Z" fill="#FDBE34"/>
<path d="M15.9998 22.6667C16.7362 22.6667 17.3332 22.0697 17.3332 21.3333C17.3332 20.597 16.7362 20 15.9998 20C15.2635 20 14.6665 20.597 14.6665 21.3333C14.6665 22.0697 15.2635 22.6667 15.9998 22.6667Z" fill="#FDBE34"/>
</svg>
