<svg xmlns="http://www.w3.org/2000/svg" viewBox="0 0 1365.08 382"><defs><style>.cls-1,.cls-12{fill:#3d7cba;}.cls-2{fill:#434343;}.cls-2,.cls-3,.cls-4{fill-rule:evenodd;}.cls-3{fill:#f1c232;}.cls-4{fill:#ffe599;}.cls-5{fill:#ffe066;}.cls-6{fill:#fcb400;}.cls-7{fill:#2a2b2a;}.cls-8{fill:#f0c54d;}.cls-9{opacity:0.5;}.cls-10{fill:#fffffd;}.cls-11{fill:#fff;}.cls-12{opacity:0.1;}.cls-13,.cls-14{fill:none;stroke-miterlimit:10;}.cls-13{stroke:#fffffd;stroke-width:0.5px;}.cls-14{stroke:#f0c54d;}</style></defs><title>fb-payment-bg</title><g id="Layer_2" data-name="Layer 2"><g id="Layer_1-2" data-name="Layer 1"><rect class="cls-1" width="1365" height="382"/><path class="cls-2" d="M904,234.48a1,1,0,0,0-.76-.41c-3-.1-6.95,1.59-11.83,5s-9.64,11.48-7.83,5.14c1.23-4.34-3.4-15.35-6-18.74-1.89-2.51-3.5-3.49-4.77-2.93-1.6.71-2,3.62-1.85,4.51a20.58,20.58,0,0,1-1.78,6.22c-1,1.85-.1,3.66,1.1,4.86-1.23.26-5,1.49-4.7,6.63a9.66,9.66,0,0,0,2.19,6.15,7.61,7.61,0,0,0,3.13,2,1.7,1.7,0,0,0,.53.07c4.65,0,12.22-6.88,10.64-4.78a17,17,0,0,0-1.39,6.23c-.29,1.45-.5,2.9.25,3.5a1.37,1.37,0,0,0,.89.27,5.59,5.59,0,0,0,2.14-.6,17.15,17.15,0,0,0,5.55-4.26,9.58,9.58,0,0,0,2.72-5.86,4.58,4.58,0,0,0,3.84-2.19,58.13,58.13,0,0,1,4.9-6.21,6,6,0,0,0,3.13-3.8A1,1,0,0,0,904,234.48Z"/><path class="cls-3" d="M881.33,244.45c.51.1.85,1.35.58,1.8a.75.75,0,0,1-.27.26,63.3,63.3,0,0,1-6.16,3.74c-2.75,1.27-4.89,2-5.74.8-2.91-3-3.6-12.74,2.39-10.79C875.17,241.25,879.74,244.16,881.33,244.45Z"/><path class="cls-4" d="M876.76,227.81a1.93,1.93,0,1,1-.79-2.62A1.93,1.93,0,0,1,876.76,227.81Z"/><path class="cls-4" d="M874.63,231.85a1.21,1.21,0,1,1-.49-1.64A1.22,1.22,0,0,1,874.63,231.85Z"/><path class="cls-4" d="M877.77,230a.62.62,0,0,1-.82.25.61.61,0,1,1,.57-1.07A.62.62,0,0,1,877.77,230Z"/><path class="cls-4" d="M873.81,236.42a1.28,1.28,0,1,1-.52-1.72A1.27,1.27,0,0,1,873.81,236.42Z"/><path class="cls-3" d="M882.38,243.08a21.92,21.92,0,0,1-4.58-6c-2.06-4-2.3-5.54-1.13-6a2.65,2.65,0,0,1,3.4,1.47,26.87,26.87,0,0,1,2.46,7.31,24.13,24.13,0,0,0,.45,2.71C883.12,243.22,883,243.62,882.38,243.08Z"/><path class="cls-3" d="M881.78,243.87a29.36,29.36,0,0,1-5.58-3.66c-1.62-1.68-2-2.42-1.46-2.82a1.39,1.39,0,0,1,1.92.22,12.32,12.32,0,0,1,.89,1c1.53,2,2.19,3.23,4.39,5C882.23,243.83,882.19,244.08,881.78,243.87Z"/><path class="cls-4" d="M871.1,241.55c0,.29-.32.57-.77.61s-.84-.15-.87-.44.31-.57.77-.61S871.07,241.26,871.1,241.55Z"/><path class="cls-4" d="M870.38,243.91c0,.29-.32.56-.78.59s-.83-.17-.85-.47.32-.55.78-.59S870.36,243.62,870.38,243.91Z"/><path class="cls-4" d="M870.52,245.94c.07.28-.22.61-.66.72s-.86,0-.93-.31.23-.6.66-.72S870.45,245.66,870.52,245.94Z"/><path class="cls-4" d="M869.53,248.57c-.15-.25,0-.64.42-.88s.83-.23,1,0,0,.64-.42.88S869.69,248.82,869.53,248.57Z"/><path class="cls-4" d="M871.26,250.49c-.24-.17-.21-.61,0-1s.67-.53.91-.36.22.61-.05,1S871.5,250.66,871.26,250.49Z"/><path class="cls-4" d="M872.78,242.24c.92,0,4.07,1.55,6.13,2.39s3,1.37-.62,1.58C870.9,246.63,869.33,242.29,872.78,242.24Z"/><path class="cls-4" d="M874.28,247.35A21.08,21.08,0,0,1,878,247c1.19-.1,1.85-.06.08,1C874.44,250.05,872.55,248.25,874.28,247.35Z"/><path class="cls-3" d="M884.66,245.69c-.22-.24-1.61.3-1.78.71a.8.8,0,0,0-.06.3c0,.7-1,4.41-.88,6.43.15,2.3-.78,4.38.17,4.17,2.58,0,11-7.33,8-9.69C888.6,246.41,885.32,246.45,884.66,245.69Z"/><path class="cls-4" d="M888.92,250a.72.72,0,0,0-.1.79c.11.28.35.4.52.25a.73.73,0,0,0,.1-.78C889.32,250,889.09,249.86,888.92,250Z"/><path class="cls-4" d="M887.82,251.74a.71.71,0,0,0-.08.78c.12.28.36.38.53.23a.71.71,0,0,0,.08-.78C888.23,251.69,888,251.59,887.82,251.74Z"/><path class="cls-4" d="M886.64,252.79a.8.8,0,0,0-.19.79c.08.32.28.48.47.36a.79.79,0,0,0,.19-.78C887,252.84,886.82,252.68,886.64,252.79Z"/><path class="cls-4" d="M885.48,254.84c.19-.05.35-.38.36-.74s-.13-.6-.32-.55-.34.38-.36.73S885.3,254.89,885.48,254.84Z"/><path class="cls-4" d="M883.87,254.91c.17,0,.41-.21.53-.57s.08-.69-.09-.73-.41.22-.53.58S883.7,254.87,883.87,254.91Z"/><path class="cls-4" d="M888,249.42c-.28-.54-2.15-1.48-3.27-2.2s-1.7-.95-.68,1.25C886.14,253,889.06,251.43,888,249.42Z"/><path class="cls-4" d="M884.67,251.41a13.15,13.15,0,0,0-1-2.33c-.32-.74-.55-1.1-.56.49C883.11,252.83,884.71,252.92,884.67,251.41Z"/><path class="cls-2" d="M884.25,243.84a37.62,37.62,0,0,0-2.91,4.89c-1.34,2.74-1.69,4.54-1.31,4.65s1-2.76,1.9-4a7.54,7.54,0,0,0,1.12-2.06,14.58,14.58,0,0,0,1.54-1.32,3,3,0,0,0,.7-2.34C885.15,242.92,884.68,243.29,884.25,243.84Z"/><path class="cls-2" d="M886,242.93a.72.72,0,1,0-.55.85A.71.71,0,0,0,886,242.93Z"/><path class="cls-2" d="M885.47,242.88l-.16-.1c.07-.14,1.71-3.47,2.62-4.14a4.65,4.65,0,0,1,2.45-.65l0,.18a4.56,4.56,0,0,0-2.36.62,12.5,12.5,0,0,0-2,3.07,8.77,8.77,0,0,1,2.16-2.12,15.2,15.2,0,0,1,3.16-.87l.06.18a14.57,14.57,0,0,0-3.12.85C887.23,240.41,885.49,242.86,885.47,242.88Z"/><path class="cls-2" d="M890.8,238.08c0,.11-.14.2-.37.21s-.42-.09-.44-.2.14-.21.37-.21S890.78,238,890.8,238.08Z"/><path class="cls-2" d="M891.79,238.79c.05.1-.08.24-.29.31s-.41,0-.46-.09.08-.24.29-.31S891.74,238.68,891.79,238.79Z"/><path class="cls-4" d="M899.6,236.51a1.11,1.11,0,0,0,1.1,1.34,1.58,1.58,0,0,0,1.55-1.3,1.1,1.1,0,0,0-1.1-1.34A1.6,1.6,0,0,0,899.6,236.51Z"/><path class="cls-4" d="M897.2,239.78a.69.69,0,0,0,.69.84,1,1,0,0,0,1-.81.69.69,0,0,0-.69-.84A1,1,0,0,0,897.2,239.78Z"/><path class="cls-4" d="M896.6,237.36a.35.35,0,0,0,.35.42.51.51,0,0,0,.48-.41.34.34,0,0,0-.35-.41A.49.49,0,0,0,896.6,237.36Z"/><path class="cls-4" d="M894.84,242.77a.73.73,0,0,0,.72.89,1.08,1.08,0,0,0,1-.86.74.74,0,0,0-.73-.89A1.06,1.06,0,0,0,894.84,242.77Z"/><path class="cls-3" d="M887.13,244.76a17.57,17.57,0,0,0,5.06-2c2.82-1.69,3.61-2.55,3.16-3.2s-1.37-.92-2.5-.25a23.38,23.38,0,0,0-4.46,3.55,18.77,18.77,0,0,1-1.4,1.47C886.66,244.6,886.57,244.89,887.13,244.76Z"/><path class="cls-3" d="M887.24,245.35a20.45,20.45,0,0,0,4.63-.34c1.61-.46,2.12-.79,2-1.2s-.51-.68-1.15-.5c-.23.07-.57.18-.93.32a17.67,17.67,0,0,1-4.52,1.51C887,245.18,886.93,245.34,887.24,245.35Z"/><path class="cls-2" d="M1014.75,175.9a.57.57,0,0,1,.45-.23c1.74-.07,4.07.93,6.92,2.94s5.64,6.71,4.59,3c-.73-2.55,2-9,3.48-11,1.1-1.47,2-2,2.79-1.71.93.41,1.17,2.11,1.08,2.63a11.9,11.9,0,0,0,1,3.64,2.38,2.38,0,0,1-.64,2.85,3.43,3.43,0,0,1,2.75,3.88,5.77,5.77,0,0,1-1.28,3.6,4.45,4.45,0,0,1-1.84,1.17.93.93,0,0,1-.31,0c-2.71,0-7.15-4-6.22-2.8a10,10,0,0,1,.81,3.65c.17.84.3,1.7-.14,2.05a.86.86,0,0,1-.52.15,3.17,3.17,0,0,1-1.26-.35,10.07,10.07,0,0,1-3.25-2.49,5.68,5.68,0,0,1-1.59-3.43,2.68,2.68,0,0,1-2.24-1.28,34.89,34.89,0,0,0-2.87-3.64,3.53,3.53,0,0,1-1.83-2.22A.57.57,0,0,1,1014.75,175.9Z"/><path class="cls-3" d="M1028,181.74c-.3.06-.5.79-.34,1a.41.41,0,0,0,.16.16,38.11,38.11,0,0,0,3.6,2.18c1.61.75,2.87,1.2,3.36.47,1.7-1.73,2.11-7.46-1.4-6.31C1031.64,179.87,1029,181.57,1028,181.74Z"/><path class="cls-4" d="M1030.71,172a1.13,1.13,0,1,0,2-1.07,1.12,1.12,0,0,0-1.53-.46A1.14,1.14,0,0,0,1030.71,172Z"/><path class="cls-4" d="M1032,174.36a.71.71,0,0,0,1,.3.71.71,0,0,0-.67-1.26A.7.7,0,0,0,1032,174.36Z"/><path class="cls-4" d="M1030.12,173.29a.36.36,0,1,0,.15-.48A.36.36,0,0,0,1030.12,173.29Z"/><path class="cls-4" d="M1032.44,177a.74.74,0,1,0,.3-1A.74.74,0,0,0,1032.44,177Z"/><path class="cls-3" d="M1027.42,180.94a13,13,0,0,0,2.69-3.49c1.2-2.33,1.34-3.25.66-3.51a1.55,1.55,0,0,0-2,.86,16.09,16.09,0,0,0-1.45,4.28,12.38,12.38,0,0,1-.26,1.59C1027,181,1027.07,181.25,1027.42,180.94Z"/><path class="cls-3" d="M1027.77,181.4a16.54,16.54,0,0,0,3.27-2.15c1-1,1.16-1.41.85-1.64a.8.8,0,0,0-1.12.13,7.51,7.51,0,0,0-.52.6,12.82,12.82,0,0,1-2.57,2.9C1027.51,181.37,1027.54,181.52,1027.77,181.4Z"/><path class="cls-4" d="M1034,180c0,.17.18.33.44.36s.5-.09.51-.26-.18-.33-.44-.36S1034,179.87,1034,180Z"/><path class="cls-4" d="M1034.44,181.42c0,.17.2.33.46.35s.49-.1.5-.27-.19-.33-.45-.35S1034.46,181.25,1034.44,181.42Z"/><path class="cls-4" d="M1034.36,182.61c0,.17.13.36.39.42s.5,0,.54-.18-.13-.35-.38-.42S1034.41,182.45,1034.36,182.61Z"/><path class="cls-4" d="M1034.94,184.15c.09-.15,0-.38-.25-.52s-.48-.13-.57,0,0,.37.25.51S1034.85,184.3,1034.94,184.15Z"/><path class="cls-4" d="M1033.93,185.27c.14-.1.13-.35,0-.57s-.39-.31-.53-.21-.13.36,0,.57S1033.79,185.37,1033.93,185.27Z"/><path class="cls-4" d="M1033,180.45a21.52,21.52,0,0,0-3.59,1.39c-1.15.47-1.74.81.37.93C1034.14,183,1035.06,180.47,1033,180.45Z"/><path class="cls-4" d="M1032.16,183.43a12.59,12.59,0,0,0-2.17-.2c-.7-.06-1.08,0,0,.56C1032.07,185,1033.18,184,1032.16,183.43Z"/><path class="cls-3" d="M1026.09,182.47c.13-.15.94.17,1,.41a.57.57,0,0,1,0,.18,25.26,25.26,0,0,1,.52,3.76c-.09,1.35.46,2.56-.1,2.44-1.51,0-6.42-4.29-4.68-5.67C1023.79,182.89,1025.7,182.91,1026.09,182.47Z"/><path class="cls-4" d="M1023.6,185a.43.43,0,0,1,.06.46c-.07.16-.21.23-.31.14a.41.41,0,0,1-.06-.45C1023.36,185,1023.5,184.9,1023.6,185Z"/><path class="cls-4" d="M1024.24,186a.43.43,0,0,1,0,.46c-.07.16-.21.22-.31.14a.43.43,0,0,1-.05-.46C1024,186,1024.14,185.91,1024.24,186Z"/><path class="cls-4" d="M1024.93,186.62a.44.44,0,0,1,.11.46c0,.19-.16.28-.27.21a.44.44,0,0,1-.11-.46C1024.7,186.65,1024.82,186.55,1024.93,186.62Z"/><path class="cls-4" d="M1025.61,187.82c-.11,0-.21-.23-.21-.43s.07-.36.18-.33.21.23.21.43S1025.72,187.85,1025.61,187.82Z"/><path class="cls-4" d="M1026.55,187.86c-.1,0-.24-.12-.31-.34s0-.4,0-.42.24.13.31.34S1026.65,187.84,1026.55,187.86Z"/><path class="cls-4" d="M1024.14,184.65a8.82,8.82,0,0,1,1.91-1.29c.62-.4,1-.56.4.73C1025.22,186.72,1023.51,185.83,1024.14,184.65Z"/><path class="cls-4" d="M1026.08,185.81a8.24,8.24,0,0,1,.57-1.36c.19-.44.32-.65.33.28C1027,186.64,1026.06,186.69,1026.08,185.81Z"/><path class="cls-2" d="M1026.33,181.38a22.4,22.4,0,0,1,1.7,2.86c.79,1.61,1,2.66.77,2.72s-.57-1.61-1.11-2.36a4.17,4.17,0,0,1-.66-1.21,7.75,7.75,0,0,1-.9-.77,1.75,1.75,0,0,1-.41-1.37C1025.8,180.85,1026.08,181.06,1026.33,181.38Z"/><path class="cls-2" d="M1025.32,180.85a.42.42,0,0,1,.5-.32.42.42,0,0,1,.32.49.42.42,0,0,1-.49.33A.43.43,0,0,1,1025.32,180.85Z"/><path class="cls-2" d="M1025.61,180.82l.1-.06a10.84,10.84,0,0,0-1.53-2.42,2.76,2.76,0,0,0-1.44-.38v.1a2.64,2.64,0,0,1,1.37.37,7,7,0,0,1,1.2,1.79A5.06,5.06,0,0,0,1024,179a8.19,8.19,0,0,0-1.85-.5l0,.1a8.52,8.52,0,0,1,1.82.5A7.45,7.45,0,0,1,1025.61,180.82Z"/><path class="cls-2" d="M1022.49,178c0,.07.09.12.22.12s.25,0,.26-.11-.08-.13-.22-.13S1022.51,177.94,1022.49,178Z"/><path class="cls-2" d="M1021.92,178.42c0,.07,0,.15.16.19s.25,0,.28-.05-.05-.15-.17-.18S1022,178.36,1021.92,178.42Z"/><path class="cls-4" d="M1017.35,177.09a.66.66,0,0,1-.65.79.94.94,0,0,1-.91-.76.66.66,0,0,1,.65-.79A1,1,0,0,1,1017.35,177.09Z"/><path class="cls-4" d="M1018.75,179a.41.41,0,0,1-.4.49.59.59,0,0,1-.57-.48.4.4,0,0,1,.4-.49A.59.59,0,0,1,1018.75,179Z"/><path class="cls-4" d="M1019.1,177.59a.21.21,0,0,1-.2.25.3.3,0,0,1-.28-.24.2.2,0,0,1,.2-.25A.3.3,0,0,1,1019.1,177.59Z"/><path class="cls-4" d="M1020.14,180.76a.43.43,0,0,1-.43.51.62.62,0,0,1-.6-.5.42.42,0,0,1,.43-.51A.62.62,0,0,1,1020.14,180.76Z"/><path class="cls-3" d="M1024.64,181.92a10.13,10.13,0,0,1-3-1.2c-1.65-1-2.11-1.49-1.85-1.87s.8-.53,1.47-.14a13.52,13.52,0,0,1,2.61,2.08c.39.44.66.71.81.85S1025,182,1024.64,181.92Z"/><path class="cls-3" d="M1024.58,182.27a12.86,12.86,0,0,1-2.71-.2c-.94-.27-1.24-.47-1.17-.7a.49.49,0,0,1,.67-.3l.54.19a10.45,10.45,0,0,0,2.65.88C1024.71,182.17,1024.76,182.26,1024.58,182.27Z"/><circle class="cls-5" cx="1030.6" cy="78.37" r="14.62" transform="translate(282.52 791.57) rotate(-47.98)"/><circle class="cls-6" cx="1030.6" cy="78.37" r="13.9" transform="translate(702.26 1058.41) rotate(-75.83)"/><circle class="cls-5" cx="1030.6" cy="78.37" r="11.04" transform="translate(742.87 1071.09) rotate(-78.19)"/><path class="cls-7" d="M1026.93,72.16h2.22a6.12,6.12,0,0,1,3.71,1.33,9.47,9.47,0,0,1,.78.72,6.08,6.08,0,0,1,1.62,4.08v.19a6.19,6.19,0,0,1-1.85,4.33,6,6,0,0,1-1.21.92,6.32,6.32,0,0,1-.88.44,5.42,5.42,0,0,1-1.82.41h-2.71a.92.92,0,0,1-.53-.25,1,1,0,0,1-.33-.77,1,1,0,0,1,.6-.94,1.28,1.28,0,0,1,.48-.09h2a4,4,0,0,0,2.84-1.12,4.8,4.8,0,0,0,.7-.87,4,4,0,0,0,.6-2v-.22a4,4,0,0,0-1-2.54,4.1,4.1,0,0,0-3.29-1.5H1028v1.69a1.05,1.05,0,0,1-.77,1.07l-.27,0h0a1,1,0,0,1-1-.62,1.13,1.13,0,0,1-.09-.45V73.22a1,1,0,0,1,.66-1A.93.93,0,0,1,1026.93,72.16Z"/><path class="cls-6" d="M1027,78.78h.06a1.09,1.09,0,0,1,.88.48,1.15,1.15,0,0,1,.18.62,1.07,1.07,0,0,1-.59,1,1.29,1.29,0,0,1-.5.12,1.11,1.11,0,0,1-1-.64,1.38,1.38,0,0,1-.09-.46,1.1,1.1,0,0,1,.59-1A1.13,1.13,0,0,1,1027,78.78Z"/><path class="cls-8" d="M1365.08,26.72s-98.32,49.55-164,161a342.74,342.74,0,0,0-21.19,42.82C1165.4,265.49,1104.74,381.93,939,381.93h426.07Z"/><g class="cls-9"><circle class="cls-5" cx="1275.28" cy="249.64" r="7.27" transform="translate(236.17 1029.98) rotate(-47.98)"/><circle class="cls-6" cx="1275.28" cy="249.64" r="6.92" transform="translate(720.97 1424.98) rotate(-75.83)"/><circle class="cls-5" cx="1275.28" cy="249.64" r="5.49"/><path class="cls-7" d="M1273.46,246.55h1.1a3.08,3.08,0,0,1,1.85.66,3.63,3.63,0,0,1,.38.36,3,3,0,0,1,.81,2v.1a3,3,0,0,1-.92,2.15,3.19,3.19,0,0,1-.6.46,3.46,3.46,0,0,1-.44.22,2.64,2.64,0,0,1-.9.2h-1.35a.46.46,0,0,1-.26-.12.54.54,0,0,1-.17-.39.5.5,0,0,1,.3-.46.59.59,0,0,1,.23,0h1a2,2,0,0,0,1.41-.55,2.53,2.53,0,0,0,.35-.44,2,2,0,0,0,.3-1v-.11a2,2,0,0,0-.47-1.26,2.06,2.06,0,0,0-1.64-.75H1274v.84a.52.52,0,0,1-.39.53l-.13,0h0a.53.53,0,0,1-.48-.31.59.59,0,0,1,0-.23v-1.36a.5.5,0,0,1,.33-.49A.59.59,0,0,1,1273.46,246.55Z"/><path class="cls-6" d="M1273.49,249.85h0a.55.55,0,0,1,.44.23.59.59,0,0,1,.09.32.54.54,0,0,1-.3.48.6.6,0,0,1-.24.06.54.54,0,0,1-.5-.32.74.74,0,0,1,0-.23.55.55,0,0,1,.29-.48A.6.6,0,0,1,1273.49,249.85Z"/></g><rect class="cls-7" x="1131.5" y="41.93" width="161.24" height="305.39" rx="18.94"/><path class="cls-10" d="M1280.1,49.49h-38.18l-2.86,10H1185.2l-2.86-10h-38.18a5.09,5.09,0,0,0-5.1,5.09v280.1a5.09,5.09,0,0,0,5.1,5.09H1280.1a5.09,5.09,0,0,0,5.09-5.09V54.59A5.09,5.09,0,0,0,1280.1,49.49Z"/><path class="cls-1" d="M1280.61,49.49h-38.69a13.76,13.76,0,0,1-13.22,10h-33.15a13.74,13.74,0,0,1-13.21-10h-38.7a4.58,4.58,0,0,0-4.58,4.58v24.4h146.13V54.07A4.58,4.58,0,0,0,1280.61,49.49Z"/><path class="cls-11" d="M1150.47,70.45a2.13,2.13,0,1,1-2.12-2.13A2.12,2.12,0,0,1,1150.47,70.45Z"/><path class="cls-11" d="M1162.36,70.45a2.13,2.13,0,1,1-2.13-2.13A2.12,2.12,0,0,1,1162.36,70.45Z"/><path class="cls-11" d="M1174.24,70.45a2.12,2.12,0,1,1-2.12-2.13A2.12,2.12,0,0,1,1174.24,70.45Z"/><rect class="cls-12" x="1154.16" y="101.2" width="97.96" height="97.96" rx="3.01"/><path class="cls-8" d="M1230.55,126.25c-4.45-5.64-8.4-7.8-16.34-8.37l-1.49-.11c0,.17,0,.34,0,.51,0,4.21-4.3,7.63-9.61,7.63s-9.6-3.42-9.6-7.63c0-.17,0-.34,0-.51l-1.5.11c-7.93.57-11.89,2.73-16.33,8.37-3.12,3.95-10.57,11.94-10.57,11.94a19.17,19.17,0,0,1,4.33,6.24c1.14,3.21,5.43,5.3,5.43,5.3l7.61-6.44c1.33,8.88,0,36.85,0,36.85,7.19-1.51,13.61,2.46,20.6,2.46s13.42-4,20.6-2.46c0,0-1.32-28,0-36.85l7.62,6.44s4.29-2.09,5.42-5.3a19.29,19.29,0,0,1,4.34-6.24S1233.66,130.2,1230.55,126.25Z"/><rect class="cls-12" x="1154.16" y="244.21" width="97.96" height="95.56" rx="3.12"/><path class="cls-1" d="M1198.54,210.92H1156.9a2.74,2.74,0,0,1-2.74-2.74h0a2.74,2.74,0,0,1,2.74-2.74h41.64a2.74,2.74,0,0,1,2.74,2.74h0A2.74,2.74,0,0,1,1198.54,210.92Z"/><path class="cls-1" d="M1216.78,221.31H1156.9a2.74,2.74,0,0,1-2.74-2.74h0a2.74,2.74,0,0,1,2.74-2.74h59.88a2.74,2.74,0,0,1,2.74,2.74h0A2.74,2.74,0,0,1,1216.78,221.31Z"/><path class="cls-1" d="M1228.78,261.94H1177.5l-7.81,60.1h25.47c0-23.91,5.61-29.67,8-29.67s8,5.76,8,29.67h25.47Z"/><path class="cls-5" d="M1184.62,261.94h-7.12l-2.16,16.62C1182.85,278.23,1184.33,266.26,1184.62,261.94Z"/><path class="cls-5" d="M1221.76,261.94h7.11l2.16,16.62C1223.53,278.23,1222.05,266.26,1221.76,261.94Z"/><polygon class="cls-8" points="1176.91 266.5 1229.38 266.5 1228.78 261.94 1203.14 261.94 1177.5 261.94 1176.91 266.5"/><line class="cls-13" x1="1203.14" y1="292.37" x2="1203.14" y2="261.94"/><line class="cls-14" x1="1271.08" y1="101.2" x2="1271.08" y2="331.91"/><path class="cls-8" d="M1276.63,134.76a5.55,5.55,0,1,1-5.55-5.55A5.56,5.56,0,0,1,1276.63,134.76Z"/></g></g></svg>