<svg xmlns="http://www.w3.org/2000/svg" viewBox="0 0 19.43 19.43"><defs><style>.cls-1{fill:#f0c54d;}</style></defs><title>fb-yellow</title><g id="Layer_2" data-name="Layer 2"><g id="Layer_1-2" data-name="Layer 1"><path class="cls-1" d="M16.82,0H2.62A2.62,2.62,0,0,0,0,2.62v14.2a2.61,2.61,0,0,0,2.62,2.61h7V12.49H7.83a.42.42,0,0,1-.43-.42V9.83a.43.43,0,0,1,.43-.43h1.8V7.24a3.53,3.53,0,0,1,3.77-3.88h1.84a.43.43,0,0,1,.43.43V5.67a.43.43,0,0,1-.43.43H14.1c-1.21,0-1.45.58-1.45,1.43V9.4h2.68a.43.43,0,0,1,.42.48l-.27,2.23a.42.42,0,0,1-.42.38h-2.4v6.94h4.17a2.61,2.61,0,0,0,2.61-2.61V2.62A2.61,2.61,0,0,0,16.82,0Z"/></g></g></svg>