<svg xmlns="http://www.w3.org/2000/svg" viewBox="0 0 87.33 92.23"><defs><style>.cls-1{fill:#f0c54d;}</style></defs><title>grow-sale</title><g id="Layer_2" data-name="Layer 2"><g id="Layer_1-2" data-name="Layer 1"><path class="cls-1" d="M85.53,88.63h-4V31.26a4.85,4.85,0,0,0-4.85-4.84H67.9a4.84,4.84,0,0,0-4.84,4.84V88.63H53V57.25a4.84,4.84,0,0,0-4.84-4.84H39.36a4.85,4.85,0,0,0-4.85,4.84V88.63h-10V72.38a4.85,4.85,0,0,0-4.84-4.85H10.81A4.85,4.85,0,0,0,6,72.38V88.63H1.8a1.8,1.8,0,0,0,0,3.6H85.53a1.8,1.8,0,0,0,0-3.6Zm-76,0V72.38a1.23,1.23,0,0,1,1.24-1.24h8.83a1.24,1.24,0,0,1,1.24,1.24V88.63Zm28.55,0V57.25A1.24,1.24,0,0,1,39.36,56h8.83a1.25,1.25,0,0,1,1.24,1.24V88.63Zm28.54,0V31.26A1.25,1.25,0,0,1,67.9,30h8.83A1.24,1.24,0,0,1,78,31.26V88.63Z"/><path class="cls-1" d="M17.25,50.15a1.75,1.75,0,0,0,1.27-.53l31.11-31.1,6.71,6.71a1.81,1.81,0,0,0,2.55,0L78,6.15v6.09a1.81,1.81,0,0,0,3.61,0V2s0-.06,0-.09A1.77,1.77,0,0,0,81.05.53,1.82,1.82,0,0,0,79.68,0h-11a1.8,1.8,0,1,0,0,3.6h6.73L57.62,21.41,50.9,14.69a1.81,1.81,0,0,0-2.54,0L16,47.08a1.8,1.8,0,0,0,1.28,3.07Z"/><circle class="cls-1" cx="11.18" cy="54.64" r="1.8"/></g></g></svg>