<svg xmlns="http://www.w3.org/2000/svg" xmlns:xlink="http://www.w3.org/1999/xlink" width="32" height="32" viewBox="0 0 32 32">
  <defs>
    <clipPath id="clip-path">
      <rect id="Rectangle_1014" data-name="Rectangle 1014" width="32" height="32" transform="translate(10429 793)" fill="#fff"/>
    </clipPath>
  </defs>
  <g id="Mask_Group_35" data-name="Mask Group 35" transform="translate(-10429 -793)" clip-path="url(#clip-path)">
    <g id="headphones" transform="translate(10425.8 789.8)">
      <path id="Path_1563" data-name="Path 1563" d="M4.8,28.8V19.2a14.4,14.4,0,1,1,28.8,0v9.6" fill="none" stroke="#f7a500" stroke-linecap="round" stroke-linejoin="round" stroke-width="3.2"/>
      <path id="Path_1564" data-name="Path 1564" d="M33.6,30.4a3.2,3.2,0,0,1-3.2,3.2H28.8a3.2,3.2,0,0,1-3.2-3.2V25.6a3.2,3.2,0,0,1,3.2-3.2h4.8Zm-28.8,0A3.2,3.2,0,0,0,8,33.6H9.6a3.2,3.2,0,0,0,3.2-3.2V25.6a3.2,3.2,0,0,0-3.2-3.2H4.8Z" fill="none" stroke="#f7a500" stroke-linecap="round" stroke-linejoin="round" stroke-width="3.2"/>
    </g>
  </g>
</svg>
