<svg xmlns="http://www.w3.org/2000/svg" viewBox="0 0 19.43 19.43"><defs><style>.cls-1{fill:#fffffd;}</style></defs><title>Asset 17</title><g id="Layer_2" data-name="Layer 2"><g id="Layer_1-2" data-name="Layer 1"><path class="cls-1" d="M14.07,0H5.36A5.37,5.37,0,0,0,0,5.36v8.71a5.37,5.37,0,0,0,5.36,5.36h8.71a5.37,5.37,0,0,0,5.36-5.36V5.36A5.37,5.37,0,0,0,14.07,0ZM17.7,14.07a3.64,3.64,0,0,1-3.63,3.63H5.36a3.64,3.64,0,0,1-3.64-3.63V5.36A3.65,3.65,0,0,1,5.36,1.72h8.71A3.64,3.64,0,0,1,17.7,5.36Z"/><path class="cls-1" d="M9.71,4.71a5,5,0,1,0,5,5,5,5,0,0,0-5-5Zm0,8.29A3.29,3.29,0,1,1,13,9.71,3.29,3.29,0,0,1,9.71,13Z"/><path class="cls-1" d="M14.93,3.25a1.26,1.26,0,1,0,.89.37,1.24,1.24,0,0,0-.89-.37Z"/></g></g></svg>