<svg xmlns="http://www.w3.org/2000/svg" width="28" height="27.994" viewBox="0 0 28 27.994">
  <g id="Group_3598" data-name="Group 3598" transform="translate(-0.554 -0.397)">
    <path id="instagram-brands" d="M14,8.808a7.177,7.177,0,1,0,7.177,7.177A7.166,7.166,0,0,0,14,8.808Zm0,11.843a4.666,4.666,0,1,1,4.666-4.666A4.675,4.675,0,0,1,14,20.651ZM23.143,8.514A1.674,1.674,0,1,1,21.469,6.84,1.67,1.67,0,0,1,23.143,8.514Zm4.754,1.7a8.285,8.285,0,0,0-2.261-5.865A8.339,8.339,0,0,0,19.77,2.086c-2.311-.131-9.239-.131-11.55,0A8.327,8.327,0,0,0,2.355,4.341,8.312,8.312,0,0,0,.094,10.207c-.131,2.311-.131,9.239,0,11.55a8.285,8.285,0,0,0,2.261,5.865A8.35,8.35,0,0,0,8.22,29.883c2.311.131,9.239.131,11.55,0a8.285,8.285,0,0,0,5.865-2.261A8.339,8.339,0,0,0,27.9,21.757c.131-2.311.131-9.232,0-11.544ZM24.911,24.236A4.724,4.724,0,0,1,22.25,26.9c-1.843.731-6.215.562-8.252.562s-6.415.162-8.252-.562a4.724,4.724,0,0,1-2.661-2.661c-.731-1.843-.562-6.215-.562-8.252s-.162-6.415.562-8.252A4.724,4.724,0,0,1,5.747,5.072C7.59,4.341,11.962,4.51,14,4.51s6.415-.162,8.252.562a4.724,4.724,0,0,1,2.661,2.661c.731,1.843.562,6.215.562,8.252S25.642,22.4,24.911,24.236Z" transform="translate(0.558 -1.591)" fill="#eee"/>
  </g>
</svg>
