<svg xmlns="http://www.w3.org/2000/svg" viewBox="0 0 20.13 20.13"><defs><style>.cls-1{fill:#f0c54d;}</style></defs><title>instagram-yellow</title><g id="Layer_2" data-name="Layer 2"><g id="Layer_1-2" data-name="Layer 1"><path class="cls-1" d="M14.57,0h-9A5.56,5.56,0,0,0,0,5.55v9a5.56,5.56,0,0,0,5.55,5.56h9a5.56,5.56,0,0,0,5.56-5.56v-9A5.56,5.56,0,0,0,14.57,0Zm3.77,14.57a3.77,3.77,0,0,1-3.77,3.77h-9a3.77,3.77,0,0,1-3.76-3.77v-9A3.77,3.77,0,0,1,5.55,1.79h9a3.77,3.77,0,0,1,3.77,3.76Z"/><path class="cls-1" d="M10.06,4.88a5.19,5.19,0,1,0,5.19,5.18,5.18,5.18,0,0,0-5.19-5.18Zm0,8.58a3.4,3.4,0,1,1,3.41-3.4,3.4,3.4,0,0,1-3.41,3.4Z"/><path class="cls-1" d="M15.47,3.36a1.31,1.31,0,0,0-1.31,1.31,1.32,1.32,0,0,0,.38.93,1.34,1.34,0,0,0,.93.38,1.32,1.32,0,0,0,.92-.38,1.32,1.32,0,0,0-.92-2.24Z"/></g></g></svg>