<svg xmlns="http://www.w3.org/2000/svg" width="24" height="23.995" viewBox="0 0 24 23.995">
  <g id="Group_3592" data-name="Group 3592" transform="translate(-0.554 -0.397)">
    <path id="instagram-brands" d="M12,7.833a6.152,6.152,0,1,0,6.152,6.152A6.142,6.142,0,0,0,12,7.833Zm0,10.151a4,4,0,1,1,4-4,4.007,4.007,0,0,1-4,4Zm7.838-10.4A1.435,1.435,0,1,1,18.4,6.147,1.432,1.432,0,0,1,19.836,7.582Zm4.075,1.456A7.1,7.1,0,0,0,21.973,4.01a7.148,7.148,0,0,0-5.028-1.938c-1.981-.112-7.919-.112-9.9,0A7.137,7.137,0,0,0,2.018,4.005,7.124,7.124,0,0,0,.08,9.033c-.112,1.981-.112,7.919,0,9.9A7.1,7.1,0,0,0,2.018,23.96,7.157,7.157,0,0,0,7.045,25.9c1.981.112,7.919.112,9.9,0a7.1,7.1,0,0,0,5.028-1.938,7.148,7.148,0,0,0,1.938-5.028c.112-1.981.112-7.913,0-9.894Zm-2.559,12.02a4.049,4.049,0,0,1-2.281,2.281c-1.579.626-5.327.482-7.073.482s-5.5.139-7.073-.482a4.049,4.049,0,0,1-2.281-2.281c-.626-1.579-.482-5.327-.482-7.073s-.139-5.5.482-7.073A4.049,4.049,0,0,1,4.925,4.632C6.5,4.005,10.253,4.15,12,4.15s5.5-.139,7.073.482a4.049,4.049,0,0,1,2.281,2.281c.626,1.579.482,5.327.482,7.073S21.978,19.484,21.352,21.058Z" transform="translate(0.558 -1.591)" fill="#1a1c20"/>
  </g>
</svg>
