<svg xmlns="http://www.w3.org/2000/svg" width="280" height="280" viewBox="0 0 280 280"><defs><style>.a{fill:#418aff;}.b{fill:none;}.c{fill:#f2f7ff;}</style></defs><g transform="translate(-877 -245)"><rect class="a" width="280" height="280" transform="translate(877 245)"/><g transform="translate(990 358)"><path class="b" d="M0,0H58V58H0Z"/><path class="c" d="M45.5,11.667H35.833V6.833A4.817,4.817,0,0,0,31,2H21.333A4.817,4.817,0,0,0,16.5,6.833v4.833H6.833A4.8,4.8,0,0,0,2.024,16.5L2,43.083a4.817,4.817,0,0,0,4.833,4.833H45.5a4.817,4.817,0,0,0,4.833-4.833V16.5A4.817,4.817,0,0,0,45.5,11.667Zm-14.5,0H21.333V6.833H31Z" transform="translate(2.999 4)"/></g></g></svg>