<svg xmlns="http://www.w3.org/2000/svg" width="280" height="280" viewBox="0 0 280 280"><defs><style>.a{fill:#fdbe34;}.b{fill:none;}.c{fill:#fff;}</style></defs><g transform="translate(-1171 -539)"><path class="a" d="M283,280a141.031,141.031,0,0,1-28.215-2.844,139.236,139.236,0,0,1-50.06-21.066A140.408,140.408,0,0,1,154,194.494a139.288,139.288,0,0,1-8.158-26.279,141.361,141.361,0,0,1,0-56.43,139.234,139.234,0,0,1,21.066-50.06A140.408,140.408,0,0,1,228.506,11a139.29,139.29,0,0,1,26.279-8.158,141.362,141.362,0,0,1,56.43,0,139.235,139.235,0,0,1,50.06,21.066A140.409,140.409,0,0,1,412,85.506a139.294,139.294,0,0,1,8.158,26.279,141.363,141.363,0,0,1,0,56.43,139.235,139.235,0,0,1-21.066,50.06A140.408,140.408,0,0,1,337.494,269a139.292,139.292,0,0,1-26.279,8.158A141.031,141.031,0,0,1,283,280Z" transform="translate(1028 539)"/><g transform="translate(1277 645)"><path class="b" d="M0,0H68V68H0Z"/><path class="c" d="M10.33,31.33v7.962a5.7,5.7,0,0,0,2.947,4.987l14.167,7.735a5.626,5.626,0,0,0,5.44,0L47.05,44.278A5.7,5.7,0,0,0,50,39.292V31.33L32.884,40.68a5.626,5.626,0,0,1-5.44,0ZM27.444,3.96,3.559,16.993a2.853,2.853,0,0,0,0,4.987L27.444,35.013a5.626,5.626,0,0,0,5.44,0l22.78-12.438V39.32a2.833,2.833,0,0,0,5.667,0V21.158a2.849,2.849,0,0,0-1.473-2.493L32.884,3.96a5.78,5.78,0,0,0-5.44,0Z" transform="translate(3.836 6.013)"/></g></g></svg>