<svg xmlns="http://www.w3.org/2000/svg" viewBox="0 0 19.26 19.43"><defs><style>.cls-1{fill:#fff;}</style></defs><title>linkin</title><g id="Layer_2" data-name="Layer 2"><g id="Layer_1-2" data-name="Layer 1"><path class="cls-1" d="M17.51,0H1.74A1.75,1.75,0,0,0,0,1.76V17.68a1.74,1.74,0,0,0,1.74,1.75H17.51a1.75,1.75,0,0,0,1.75-1.75V1.76A1.75,1.75,0,0,0,17.51,0ZM6,16.78a.51.51,0,0,1-.51.51H3.29a.5.5,0,0,1-.5-.51V7.65a.5.5,0,0,1,.5-.51H5.45A.51.51,0,0,1,6,7.65ZM4.37,6.28A2.07,2.07,0,1,1,6.42,4.21,2.06,2.06,0,0,1,4.37,6.28ZM17.23,16.82a.46.46,0,0,1-.46.47H14.45a.47.47,0,0,1-.46-.47V12.54c0-.64.18-2.8-1.66-2.8-1.42,0-1.71,1.48-1.77,2.14v4.94a.47.47,0,0,1-.47.47H7.85a.47.47,0,0,1-.46-.47V7.61a.47.47,0,0,1,.46-.47h2.24a.47.47,0,0,1,.47.47v.8a3.17,3.17,0,0,1,3-1.42c3.71,0,3.68,3.49,3.68,5.41v4.42Z"/></g></g></svg>