<svg xmlns="http://www.w3.org/2000/svg" width="28" height="27.999" viewBox="0 0 28 27.999">
  <g id="Group_3599" data-name="Group 3599" transform="translate(0.554 -0.394)">
    <path id="facebook-messenger-brands" d="M14.483.452C6.578.452.452,6.229.452,14.032A13.273,13.273,0,0,0,4.859,24.077c.471.424.374.67.454,3.287a1.125,1.125,0,0,0,1.574.992c2.987-1.315,3.025-1.419,3.532-1.281,8.653,2.382,18.033-3.156,18.033-13.043C28.452,6.229,22.388.452,14.483.452ZM22.907,10.9l-4.121,6.524a2.11,2.11,0,0,1-3.043.561l-3.279-2.454a.847.847,0,0,0-1.016,0L7.024,18.889A.666.666,0,0,1,6.058,18l4.121-6.524a2.109,2.109,0,0,1,3.043-.561L16.5,13.373a.847.847,0,0,0,1.016,0l4.426-3.352a.664.664,0,0,1,.965.882Z" transform="translate(-1.006 -0.057)" fill="#eee"/>
  </g>
</svg>
