<svg xmlns="http://www.w3.org/2000/svg" width="24" height="23.999" viewBox="0 0 24 23.999">
  <g id="Group_3593" data-name="Group 3593" transform="translate(0.554 -0.395)">
    <path id="facebook-messenger-brands" d="M12.478.452C5.7.452.452,5.4.452,12.092A11.377,11.377,0,0,0,4.229,20.7c.4.363.321.574.39,2.818a.964.964,0,0,0,1.349.85c2.56-1.127,2.593-1.216,3.027-1.1,7.417,2.041,15.457-2.705,15.457-11.179C24.452,5.4,19.254.452,12.478.452ZM19.7,9.41,16.167,15a1.808,1.808,0,0,1-2.609.48l-2.81-2.1a.726.726,0,0,0-.871,0L6.085,16.255a.57.57,0,0,1-.828-.758L8.79,9.9a1.808,1.808,0,0,1,2.609-.48l2.809,2.1a.726.726,0,0,0,.871,0l3.794-2.873a.569.569,0,0,1,.827.756Z" transform="translate(-1.006 -0.057)" fill="#1a1c20"/>
  </g>
</svg>
