<svg xmlns="http://www.w3.org/2000/svg" xmlns:xlink="http://www.w3.org/1999/xlink" width="60" height="60" viewBox="0 0 60 60"><defs><style>.a{fill:#fff;}.b{clip-path:url(#a);}</style><clipPath id="a"><rect class="a" width="60" height="60" transform="translate(731 2613)"/></clipPath></defs><g class="b" transform="translate(-731 -2613)"><g transform="translate(731 2613.638)"><g transform="translate(-247.66 -3543.83)"><g transform="translate(-337.021 2913.191)"><g transform="translate(584.681 630.638)"><path class="a" d="M34.467,4.468a4.468,4.468,0,1,1-8.935,0A4.388,4.388,0,0,1,30,0a4.581,4.581,0,0,1,4.467,4.467"/><path class="a" d="M30.075,20.426c-6.724,0-11.5-8.2-12.1-10.072A1.854,1.854,0,0,1,20.815,8.2c1.344,1.15,5.227,4.748,9.26,4.748,3.884,0,7.915-3.741,9.11-4.891,1.345-1.151,3.435.432,2.838,2.159-.6,1.871-5.227,10.072-11.948,10.215"/><path class="a" d="M5.868,19.421a4.278,4.278,0,0,1,2.615,2.171,4.208,4.208,0,0,1,.185,3.374,4.485,4.485,0,0,1-5.6,2.918A4.278,4.278,0,0,1,.453,25.714a4.208,4.208,0,0,1-.185-3.374,4.318,4.318,0,0,1,5.6-2.918"/><path class="a" d="M20.093,28.954C18.237,35.225,8.96,37.021,7.105,37.021S4.394,34.483,5.82,33.587s5.994-3.434,7.136-7.018c1.142-3.733-1.285-8.511-1.856-10.154a1.774,1.774,0,0,1,2.854-1.941c1.569,1.195,7.993,8.212,6.137,14.48"/><path class="a" d="M11.094,50.4A4.377,4.377,0,0,1,17.3,49.371a4.468,4.468,0,0,1,1.035,6.185,4.377,4.377,0,0,1-6.209,1.031A4.3,4.3,0,0,1,11.094,50.4"/><path class="a" d="M23.674,39.886c5.492,3.837,4.48,13.967,4.047,15.963-.578,2-3.036,2.149-3.469.307s-1.59-7.214-4.625-9.517c-3.18-2.3-8.383-1.228-10.118-1.075-1.734.307-2.6-2.3-1.012-3.53,1.446-1.535,9.829-6.14,15.177-2.149"/><path class="a" d="M54.122,19.417a4.461,4.461,0,1,0,5.641,2.81,4.322,4.322,0,0,0-5.641-2.81"/><path class="a" d="M41.23,28.928c1.992,6.413,10.955,8.093,12.947,8.093,1.85,0,2.7-2.6,1.281-3.36-1.423-.916-5.975-3.36-7.114-7.025s1.138-8.552,1.85-10.232-1.281-3.054-2.845-1.985c-1.707,1.069-8.11,8.251-6.118,14.508"/><path class="a" d="M50.181,51.617a4.661,4.661,0,0,0-6.273-1.056,4.585,4.585,0,0,0-.9,6.332,4.661,4.661,0,0,0,6.273,1.056,4.585,4.585,0,0,0,.9-6.332"/><path class="a" d="M36.795,41.623c-5.236,4.2-3.44,13.95-2.694,15.751s3.291,1.8,3.59,0,.9-7.2,4.041-9.6c2.991-2.55,8.527-1.95,10.172-1.95,1.795.15,2.394-2.55.748-3.6-1.645-1.2-10.621-4.95-15.854-.6"/></g></g></g></g></g></svg>