<svg xmlns="http://www.w3.org/2000/svg" viewBox="0 0 335.04 257.59"><defs><style>.cls-1{isolation:isolate;}.cls-2{fill:#f0c54d;}.cls-3,.cls-4{opacity:0.5;}.cls-4,.cls-5{fill:#f5f5f5;}.cls-6{mix-blend-mode:soft-light;}</style></defs><title>newsroom-img-pattern_1</title><g class="cls-1"><g id="Layer_2" data-name="Layer 2"><g id="Layer_1-2" data-name="Layer 1"><rect class="cls-2" width="335.04" height="257.59" rx="31.43"/><g class="cls-3"><circle class="cls-4" cx="26.51" cy="73.86" r="13.56"/><path class="cls-2" d="M22.86,67.68h2.2A6.19,6.19,0,0,1,28.76,69a7.39,7.39,0,0,1,.77.73,6,6,0,0,1,1.62,4V74a6.16,6.16,0,0,1-1.84,4.31,5.84,5.84,0,0,1-1.21.91,5.78,5.78,0,0,1-.88.44,5.39,5.39,0,0,1-1.8.42H22.71a.93.93,0,0,1-.52-.26,1,1,0,0,1,.27-1.7,1.23,1.23,0,0,1,.47-.09h2a4,4,0,0,0,2.82-1.11,4.8,4.8,0,0,0,.7-.87,4,4,0,0,0,.6-2v-.22a4,4,0,0,0-.95-2.52,4.11,4.11,0,0,0-3.29-1.5h-.91v1.68a1,1,0,0,1-.77,1.07l-.26,0h0A1,1,0,0,1,22,71.9a1,1,0,0,1-.09-.44V68.72a1,1,0,0,1,.66-1A.86.86,0,0,1,22.86,67.68Z"/><path class="cls-5" d="M22.92,74.26H23a1.08,1.08,0,0,1,.88.48,1.1,1.1,0,0,1,.18.62,1.05,1.05,0,0,1-.59,1,1.21,1.21,0,0,1-.49.12,1.09,1.09,0,0,1-1-.64,1.16,1.16,0,0,1-.1-.46,1.09,1.09,0,0,1,1.06-1.08Z"/><circle class="cls-4" cx="68.09" cy="33.88" r="13.56"/><path class="cls-2" d="M64.44,27.7h2.2A6.14,6.14,0,0,1,70.34,29a8.24,8.24,0,0,1,.77.72,6.05,6.05,0,0,1,1.62,4.06V34a6.18,6.18,0,0,1-1.84,4.31,5.84,5.84,0,0,1-1.21.91,6.06,6.06,0,0,1-.87.44,5.43,5.43,0,0,1-1.81.41H64.3a.92.92,0,0,1-.53-.25,1,1,0,0,1-.33-.77,1,1,0,0,1,.6-.93,1.23,1.23,0,0,1,.47-.09h2a4,4,0,0,0,2.82-1.12,5.17,5.17,0,0,0,.7-.86,4,4,0,0,0,.6-2v-.22a4,4,0,0,0-1-2.52,4.11,4.11,0,0,0-3.29-1.5h-.91v1.68a1.05,1.05,0,0,1-.77,1.07l-.26,0h0a1,1,0,0,1-1-.62,1.13,1.13,0,0,1-.09-.45V28.75a1,1,0,0,1,.66-1A.88.88,0,0,1,64.44,27.7Z"/><path class="cls-5" d="M64.5,34.29h.06a1.07,1.07,0,0,1,.88.47,1.16,1.16,0,0,1,.19.62,1.09,1.09,0,0,1-.6,1,1.21,1.21,0,0,1-.49.12,1.1,1.1,0,0,1-1-.64,1.2,1.2,0,0,1-.1-.46,1.08,1.08,0,0,1,.59-1A1.13,1.13,0,0,1,64.5,34.29Z"/><circle class="cls-4" cx="115.09" cy="73.86" r="13.56"/><path class="cls-2" d="M111.44,67.68h2.21A6.14,6.14,0,0,1,117.34,69a7.39,7.39,0,0,1,.77.73,6,6,0,0,1,1.62,4V74a6.16,6.16,0,0,1-1.84,4.31,7.06,7.06,0,0,1-2.08,1.35A5.43,5.43,0,0,1,114,80h-2.7a.93.93,0,0,1-.52-.26,1,1,0,0,1,.27-1.7,1.19,1.19,0,0,1,.47-.09h2a4,4,0,0,0,2.82-1.11,4.8,4.8,0,0,0,.7-.87,4,4,0,0,0,.6-2v-.22a4,4,0,0,0-1-2.52,4.09,4.09,0,0,0-3.28-1.5h-.92v1.68a1,1,0,0,1-.77,1.07l-.26,0h0a1,1,0,0,1-1-.62,1.23,1.23,0,0,1-.08-.44V68.72a1,1,0,0,1,.65-1A.9.9,0,0,1,111.44,67.68Z"/><path class="cls-5" d="M111.51,74.26h.06a1.06,1.06,0,0,1,.87.48,1,1,0,0,1,.19.62,1.07,1.07,0,0,1-.59,1,1.29,1.29,0,0,1-.5.12,1.1,1.1,0,0,1-1-.64,1.34,1.34,0,0,1-.09-.46,1.08,1.08,0,0,1,.58-1A1.13,1.13,0,0,1,111.51,74.26Z"/><g class="cls-6"><path class="cls-5" d="M22.86,27.7h2.2A6.14,6.14,0,0,1,28.76,29a8.24,8.24,0,0,1,.77.72,6.05,6.05,0,0,1,1.62,4.06V34a6.18,6.18,0,0,1-1.84,4.31,5.84,5.84,0,0,1-1.21.91,5.78,5.78,0,0,1-.88.44,5.33,5.33,0,0,1-1.8.41H22.71a.9.9,0,0,1-.52-.25,1,1,0,0,1-.33-.77,1,1,0,0,1,.6-.93,1.23,1.23,0,0,1,.47-.09h2a4,4,0,0,0,2.82-1.12,5.17,5.17,0,0,0,.7-.86,4,4,0,0,0,.6-2v-.22a4,4,0,0,0-.95-2.52,4.11,4.11,0,0,0-3.29-1.5h-.91v1.68a1.05,1.05,0,0,1-.77,1.07l-.26,0h0a1,1,0,0,1-.95-.62,1.13,1.13,0,0,1-.09-.45V28.75a1,1,0,0,1,.66-1A.88.88,0,0,1,22.86,27.7Z"/></g><path class="cls-5" d="M22.92,34.29H23a1.07,1.07,0,0,1,.88.47,1.15,1.15,0,0,1,.18.62,1.08,1.08,0,0,1-.59,1,1.21,1.21,0,0,1-.49.12,1.1,1.1,0,0,1-1-.64,1.2,1.2,0,0,1-.1-.46,1.09,1.09,0,0,1,1.06-1.08Z"/><g class="cls-6"><path class="cls-5" d="M64.44,67.68h2.2A6.19,6.19,0,0,1,70.34,69a7.39,7.39,0,0,1,.77.73,6,6,0,0,1,1.62,4V74a6.16,6.16,0,0,1-1.84,4.31,5.84,5.84,0,0,1-1.21.91,6.06,6.06,0,0,1-.87.44A5.49,5.49,0,0,1,67,80H64.3a1,1,0,0,1-.53-.26,1,1,0,0,1,.27-1.7,1.23,1.23,0,0,1,.47-.09h2a4,4,0,0,0,2.82-1.11,4.8,4.8,0,0,0,.7-.87,4,4,0,0,0,.6-2v-.22a4,4,0,0,0-1-2.52,4.11,4.11,0,0,0-3.29-1.5h-.91v1.68a1,1,0,0,1-.77,1.07l-.26,0h0a1,1,0,0,1-1-.62,1,1,0,0,1-.09-.44V68.72a1,1,0,0,1,.66-1A.86.86,0,0,1,64.44,67.68Z"/></g><path class="cls-5" d="M64.5,74.26h.06a1.08,1.08,0,0,1,.88.48,1.11,1.11,0,0,1,.19.62,1.06,1.06,0,0,1-.6,1,1.21,1.21,0,0,1-.49.12,1.09,1.09,0,0,1-1-.64,1.16,1.16,0,0,1-.1-.46,1.09,1.09,0,0,1,.59-1A1.13,1.13,0,0,1,64.5,74.26Z"/><circle class="cls-4" cx="214.52" cy="73.86" r="13.56"/><path class="cls-2" d="M210.88,67.68h2.2A6.14,6.14,0,0,1,216.77,69a7.26,7.26,0,0,1,.78.73,6,6,0,0,1,1.62,4V74a6.17,6.17,0,0,1-1.85,4.31,5.84,5.84,0,0,1-1.2.91,6.32,6.32,0,0,1-.88.44,5.38,5.38,0,0,1-1.81.42h-2.7a.93.93,0,0,1-.52-.26,1,1,0,0,1,.27-1.7A1.19,1.19,0,0,1,211,78h2a4,4,0,0,0,2.81-1.11,4.93,4.93,0,0,0,.71-.87,4,4,0,0,0,.6-2v-.22a4,4,0,0,0-1-2.52,4.09,4.09,0,0,0-3.28-1.5H212v1.68a1,1,0,0,1-.76,1.07l-.26,0h0a1,1,0,0,1-1-.62,1.23,1.23,0,0,1-.08-.44V68.72a1,1,0,0,1,.66-1A.86.86,0,0,1,210.88,67.68Z"/><path class="cls-5" d="M210.94,74.26H211a1.06,1.06,0,0,1,.87.48,1,1,0,0,1,.19.62,1.07,1.07,0,0,1-.59,1,1.29,1.29,0,0,1-.49.12,1.1,1.1,0,0,1-1-.64,1.34,1.34,0,0,1-.09-.46,1.08,1.08,0,0,1,.58-1A1.13,1.13,0,0,1,210.94,74.26Z"/><g class="cls-6"><path class="cls-5" d="M161.16,67.68h2.2a6.19,6.19,0,0,1,3.7,1.31,7.39,7.39,0,0,1,.77.73,6,6,0,0,1,1.62,4V74a6.16,6.16,0,0,1-1.84,4.31,5.84,5.84,0,0,1-1.21.91,6.06,6.06,0,0,1-.87.44,5.49,5.49,0,0,1-1.81.42H161a1,1,0,0,1-.52-.26,1,1,0,0,1,.27-1.7,1.23,1.23,0,0,1,.47-.09h2a4,4,0,0,0,2.82-1.11,4.8,4.8,0,0,0,.7-.87,4,4,0,0,0,.6-2v-.22a4,4,0,0,0-.95-2.52,4.11,4.11,0,0,0-3.29-1.5h-.91v1.68a1,1,0,0,1-.77,1.07l-.26,0h0a1,1,0,0,1-.95-.62,1,1,0,0,1-.09-.44V68.72a1,1,0,0,1,.66-1A.86.86,0,0,1,161.16,67.68Z"/></g><path class="cls-5" d="M161.22,74.26h.06a1.08,1.08,0,0,1,.88.48,1.1,1.1,0,0,1,.18.62,1.05,1.05,0,0,1-.59,1,1.21,1.21,0,0,1-.49.12,1.09,1.09,0,0,1-1-.64,1.16,1.16,0,0,1-.1-.46,1.09,1.09,0,0,1,.59-1A1.13,1.13,0,0,1,161.22,74.26Z"/><circle class="cls-4" cx="308.53" cy="73.86" r="13.56"/><path class="cls-2" d="M304.88,67.68h2.21A6.16,6.16,0,0,1,310.78,69a7.39,7.39,0,0,1,.77.73,6,6,0,0,1,1.62,4V74a6.16,6.16,0,0,1-1.84,4.31,7.06,7.06,0,0,1-2.08,1.35,5.43,5.43,0,0,1-1.81.42h-2.7a.93.93,0,0,1-.52-.26,1,1,0,0,1,.27-1.7A1.19,1.19,0,0,1,305,78h2a4,4,0,0,0,2.82-1.11,4.8,4.8,0,0,0,.7-.87,4,4,0,0,0,.6-2v-.22a4,4,0,0,0-.95-2.52,4.09,4.09,0,0,0-3.28-1.5H306v1.68a1,1,0,0,1-.77,1.07l-.26,0h0a1,1,0,0,1-1-.62,1,1,0,0,1-.08-.44V68.72a1,1,0,0,1,.65-1A.9.9,0,0,1,304.88,67.68Z"/><path class="cls-5" d="M305,74.26H305a1.06,1.06,0,0,1,.87.48,1,1,0,0,1,.19.62,1.07,1.07,0,0,1-.59,1,1.29,1.29,0,0,1-.5.12,1.1,1.1,0,0,1-1-.64,1.34,1.34,0,0,1-.09-.46,1.08,1.08,0,0,1,.58-1A1.13,1.13,0,0,1,305,74.26Z"/><g class="cls-6"><path class="cls-5" d="M259.69,67.68h2.2A6.14,6.14,0,0,1,265.58,69a6.41,6.41,0,0,1,.78.73,6,6,0,0,1,1.62,4V74a6.17,6.17,0,0,1-1.85,4.31,5.84,5.84,0,0,1-1.2.91,6.32,6.32,0,0,1-.88.44,5.39,5.39,0,0,1-1.8.42h-2.71a.93.93,0,0,1-.52-.26,1,1,0,0,1,.27-1.7,1.19,1.19,0,0,1,.47-.09h2a4,4,0,0,0,2.82-1.11,5.29,5.29,0,0,0,.7-.87,4,4,0,0,0,.6-2v-.22a4,4,0,0,0-1-2.52,4.08,4.08,0,0,0-3.28-1.5h-.92v1.68a1,1,0,0,1-.76,1.07l-.26,0h0a1,1,0,0,1-1-.62,1,1,0,0,1-.09-.44V68.72a1,1,0,0,1,.66-1A.86.86,0,0,1,259.69,67.68Z"/></g><path class="cls-5" d="M259.75,74.26h.06a1.06,1.06,0,0,1,.87.48,1,1,0,0,1,.19.62,1.07,1.07,0,0,1-.59,1,1.25,1.25,0,0,1-.49.12,1.1,1.1,0,0,1-1-.64,1.34,1.34,0,0,1-.09-.46,1.07,1.07,0,0,1,.59-1A1.06,1.06,0,0,1,259.75,74.26Z"/><circle class="cls-4" cx="164.81" cy="33.88" r="13.56"/><path class="cls-2" d="M161.16,27.7h2.2a6.14,6.14,0,0,1,3.7,1.32,8.24,8.24,0,0,1,.77.72,6.05,6.05,0,0,1,1.62,4.06V34a6.18,6.18,0,0,1-1.84,4.31,5.84,5.84,0,0,1-1.21.91,6.06,6.06,0,0,1-.87.44,5.43,5.43,0,0,1-1.81.41H161a.93.93,0,0,1-.52-.25,1,1,0,0,1-.33-.77,1,1,0,0,1,.6-.93,1.23,1.23,0,0,1,.47-.09h2a4,4,0,0,0,2.82-1.12,5.17,5.17,0,0,0,.7-.86,4,4,0,0,0,.6-2v-.22a4,4,0,0,0-.95-2.52,4.11,4.11,0,0,0-3.29-1.5h-.91v1.68a1.05,1.05,0,0,1-.77,1.07l-.26,0h0a1,1,0,0,1-.95-.62,1.13,1.13,0,0,1-.09-.45V28.75a1,1,0,0,1,.66-1A.88.88,0,0,1,161.16,27.7Z"/><path class="cls-5" d="M161.22,34.29h.06a1.07,1.07,0,0,1,.88.47,1.15,1.15,0,0,1,.18.62,1.08,1.08,0,0,1-.59,1,1.21,1.21,0,0,1-.49.12,1.1,1.1,0,0,1-1-.64,1.2,1.2,0,0,1-.1-.46,1.08,1.08,0,0,1,.59-1A1.13,1.13,0,0,1,161.22,34.29Z"/><g class="cls-6"><path class="cls-5" d="M111.44,27.7h2.21A6.09,6.09,0,0,1,117.34,29a8.24,8.24,0,0,1,.77.72,6.05,6.05,0,0,1,1.62,4.06V34a6.18,6.18,0,0,1-1.84,4.31,7.06,7.06,0,0,1-2.08,1.35,5.38,5.38,0,0,1-1.81.41h-2.7a.9.9,0,0,1-.52-.25,1,1,0,0,1-.33-.77,1,1,0,0,1,.6-.93,1.19,1.19,0,0,1,.47-.09h2a4,4,0,0,0,2.82-1.12,5.17,5.17,0,0,0,.7-.86,4,4,0,0,0,.6-2v-.22a4,4,0,0,0-1-2.52,4.09,4.09,0,0,0-3.28-1.5h-.92v1.68a1,1,0,0,1-.77,1.07l-.26,0h0a1,1,0,0,1-1-.62,1.33,1.33,0,0,1-.08-.45V28.75a1,1,0,0,1,.65-1A.93.93,0,0,1,111.44,27.7Z"/></g><path class="cls-5" d="M111.51,34.29h.06a1.05,1.05,0,0,1,.87.47,1.08,1.08,0,0,1,.19.62,1.1,1.1,0,0,1-.59,1,1.29,1.29,0,0,1-.5.12,1.11,1.11,0,0,1-1-.64,1.38,1.38,0,0,1-.09-.46,1.07,1.07,0,0,1,.58-1A1.13,1.13,0,0,1,111.51,34.29Z"/><circle class="cls-4" cx="263.33" cy="33.88" r="13.56"/><path class="cls-2" d="M259.69,27.7h2.2A6.09,6.09,0,0,1,265.58,29a7,7,0,0,1,.78.72A6.05,6.05,0,0,1,268,33.8V34a6.19,6.19,0,0,1-1.85,4.31,5.84,5.84,0,0,1-1.2.91,6.32,6.32,0,0,1-.88.44,5.33,5.33,0,0,1-1.8.41h-2.71a.9.9,0,0,1-.52-.25,1,1,0,0,1-.33-.77,1,1,0,0,1,.6-.93,1.19,1.19,0,0,1,.47-.09h2a4,4,0,0,0,2.82-1.12,5.75,5.75,0,0,0,.7-.86,4,4,0,0,0,.6-2v-.22a4,4,0,0,0-1-2.52,4.08,4.08,0,0,0-3.28-1.5h-.92v1.68a1,1,0,0,1-.76,1.07l-.26,0h0a1,1,0,0,1-1-.62,1.13,1.13,0,0,1-.09-.45V28.75a1,1,0,0,1,.66-1A.88.88,0,0,1,259.69,27.7Z"/><path class="cls-5" d="M259.75,34.29h.06a1.05,1.05,0,0,1,.87.47,1.08,1.08,0,0,1,.19.62,1.1,1.1,0,0,1-.59,1,1.25,1.25,0,0,1-.49.12,1.12,1.12,0,0,1-1-.64,1.38,1.38,0,0,1-.09-.46,1.09,1.09,0,0,1,1.06-1.08Z"/><g class="cls-6"><path class="cls-5" d="M210.88,27.7h2.2A6.09,6.09,0,0,1,216.77,29a8.06,8.06,0,0,1,.78.72,6.05,6.05,0,0,1,1.62,4.06V34a6.19,6.19,0,0,1-1.85,4.31,5.84,5.84,0,0,1-1.2.91,6.32,6.32,0,0,1-.88.44,5.33,5.33,0,0,1-1.81.41h-2.7a.9.9,0,0,1-.52-.25,1,1,0,0,1-.33-.77,1,1,0,0,1,.6-.93A1.19,1.19,0,0,1,211,38h2a3.94,3.94,0,0,0,2.81-1.12,5.33,5.33,0,0,0,.71-.86,4,4,0,0,0,.6-2v-.22a4,4,0,0,0-1-2.52,4.09,4.09,0,0,0-3.28-1.5H212v1.68a1,1,0,0,1-.76,1.07l-.26,0h0a1,1,0,0,1-1-.62,1.33,1.33,0,0,1-.08-.45V28.75a1,1,0,0,1,.66-1A.88.88,0,0,1,210.88,27.7Z"/></g><path class="cls-5" d="M210.94,34.29H211a1.05,1.05,0,0,1,.87.47,1.08,1.08,0,0,1,.19.62,1.1,1.1,0,0,1-.59,1,1.29,1.29,0,0,1-.49.12,1.12,1.12,0,0,1-1-.64,1.38,1.38,0,0,1-.09-.46,1.07,1.07,0,0,1,.58-1A1.13,1.13,0,0,1,210.94,34.29Z"/><g class="cls-6"><path class="cls-5" d="M304.88,27.7h2.21A6.11,6.11,0,0,1,310.78,29a8.24,8.24,0,0,1,.77.72,6.05,6.05,0,0,1,1.62,4.06V34a6.18,6.18,0,0,1-1.84,4.31,7.06,7.06,0,0,1-2.08,1.35,5.38,5.38,0,0,1-1.81.41h-2.7a.9.9,0,0,1-.52-.25,1,1,0,0,1-.33-.77,1,1,0,0,1,.6-.93A1.19,1.19,0,0,1,305,38h2a4,4,0,0,0,2.82-1.12,5.17,5.17,0,0,0,.7-.86,4,4,0,0,0,.6-2v-.22a4,4,0,0,0-.95-2.52,4.09,4.09,0,0,0-3.28-1.5H306v1.68a1.05,1.05,0,0,1-.77,1.07l-.26,0h0a1,1,0,0,1-1-.62,1.12,1.12,0,0,1-.08-.45V28.75a1,1,0,0,1,.65-1A.93.93,0,0,1,304.88,27.7Z"/></g><path class="cls-5" d="M305,34.29H305a1.05,1.05,0,0,1,.87.47,1.08,1.08,0,0,1,.19.62,1.1,1.1,0,0,1-.59,1,1.29,1.29,0,0,1-.5.12,1.11,1.11,0,0,1-1-.64,1.38,1.38,0,0,1-.09-.46,1.07,1.07,0,0,1,.58-1A1.13,1.13,0,0,1,305,34.29Z"/><circle class="cls-4" cx="68.09" cy="109.81" r="13.56"/><path class="cls-2" d="M64.44,103.63h2.2a6.14,6.14,0,0,1,3.7,1.32,8.24,8.24,0,0,1,.77.72,6,6,0,0,1,1.62,4.06v.19a6.18,6.18,0,0,1-1.84,4.31,5.84,5.84,0,0,1-1.21.91,6.06,6.06,0,0,1-.87.44A5.43,5.43,0,0,1,67,116H64.3a.92.92,0,0,1-.53-.25,1,1,0,0,1-.33-.77A1,1,0,0,1,64,114a1.23,1.23,0,0,1,.47-.09h2a4,4,0,0,0,2.82-1.12,5.17,5.17,0,0,0,.7-.86,4,4,0,0,0,.6-2v-.22a4,4,0,0,0-1-2.52,4.11,4.11,0,0,0-3.29-1.5h-.91v1.68a1.05,1.05,0,0,1-.77,1.07l-.26,0h0a1,1,0,0,1-1-.62,1.13,1.13,0,0,1-.09-.45v-2.73a1,1,0,0,1,.66-1A.88.88,0,0,1,64.44,103.63Z"/><path class="cls-5" d="M64.5,110.22h.06a1.07,1.07,0,0,1,.88.47,1.16,1.16,0,0,1,.19.62,1.09,1.09,0,0,1-.6,1,1.21,1.21,0,0,1-.49.12,1.1,1.1,0,0,1-1-.65,1.12,1.12,0,0,1-.1-.45,1.07,1.07,0,0,1,.59-1A1.13,1.13,0,0,1,64.5,110.22Z"/><circle class="cls-4" cx="115.09" cy="143.39" r="13.56"/><path class="cls-2" d="M111.44,137.21h2.21a6.14,6.14,0,0,1,3.69,1.31,7.39,7.39,0,0,1,.77.73,6,6,0,0,1,1.62,4.05v.2a6.15,6.15,0,0,1-1.84,4.3,7.06,7.06,0,0,1-2.08,1.35,5.43,5.43,0,0,1-1.81.42h-2.7a.93.93,0,0,1-.52-.26,1,1,0,0,1-.33-.76,1,1,0,0,1,.6-.93,1,1,0,0,1,.47-.1h2a4,4,0,0,0,2.82-1.11,4.8,4.8,0,0,0,.7-.87,4,4,0,0,0,.6-2v-.22a4,4,0,0,0-1-2.52,4.09,4.09,0,0,0-3.28-1.5h-.92V141a1,1,0,0,1-.77,1.07l-.26,0h0a1,1,0,0,1-1-.61,1.33,1.33,0,0,1-.08-.45v-2.73a1,1,0,0,1,.65-1A.9.9,0,0,1,111.44,137.21Z"/><path class="cls-5" d="M111.51,143.79h.06a1.06,1.06,0,0,1,.87.48,1,1,0,0,1,.19.62,1.07,1.07,0,0,1-.59,1,1.29,1.29,0,0,1-.5.12,1.1,1.1,0,0,1-1-.64,1.34,1.34,0,0,1-.09-.46,1.08,1.08,0,0,1,.58-1A1.13,1.13,0,0,1,111.51,143.79Z"/><g class="cls-6"><path class="cls-5" d="M64.44,137.21h2.2a6.19,6.19,0,0,1,3.7,1.31,7.39,7.39,0,0,1,.77.73,6,6,0,0,1,1.62,4.05v.2a6.15,6.15,0,0,1-1.84,4.3,5.84,5.84,0,0,1-1.21.91,6.06,6.06,0,0,1-.87.44,5.49,5.49,0,0,1-1.81.42H64.3a1,1,0,0,1-.53-.26,1,1,0,0,1-.33-.76,1,1,0,0,1,.6-.93,1.07,1.07,0,0,1,.47-.1h2a4,4,0,0,0,2.82-1.11,4.8,4.8,0,0,0,.7-.87,4,4,0,0,0,.6-2v-.22a4,4,0,0,0-1-2.52,4.11,4.11,0,0,0-3.29-1.5h-.91V141a1,1,0,0,1-.77,1.07l-.26,0h0a1,1,0,0,1-1-.61,1.13,1.13,0,0,1-.09-.45v-2.73a1,1,0,0,1,.66-1A.86.86,0,0,1,64.44,137.21Z"/></g><path class="cls-5" d="M64.5,143.79h.06a1.08,1.08,0,0,1,.88.48,1.11,1.11,0,0,1,.19.62,1.06,1.06,0,0,1-.6,1,1.21,1.21,0,0,1-.49.12,1.09,1.09,0,0,1-1-.64,1.16,1.16,0,0,1-.1-.46,1.09,1.09,0,0,1,.59-1A1.13,1.13,0,0,1,64.5,143.79Z"/><circle class="cls-4" cx="214.52" cy="143.39" r="13.56"/><path class="cls-2" d="M210.88,137.21h2.2a6.14,6.14,0,0,1,3.69,1.31,7.26,7.26,0,0,1,.78.73,6,6,0,0,1,1.62,4.05v.2a6.17,6.17,0,0,1-1.85,4.3,5.84,5.84,0,0,1-1.2.91,6.32,6.32,0,0,1-.88.44,5.38,5.38,0,0,1-1.81.42h-2.7a.93.93,0,0,1-.52-.26,1,1,0,0,1-.33-.76,1,1,0,0,1,.6-.93,1,1,0,0,1,.47-.1h2a4,4,0,0,0,2.81-1.11,4.93,4.93,0,0,0,.71-.87,4,4,0,0,0,.6-2v-.22a4,4,0,0,0-1-2.52,4.09,4.09,0,0,0-3.28-1.5H212V141a1,1,0,0,1-.76,1.07l-.26,0h0a1,1,0,0,1-1-.61,1.33,1.33,0,0,1-.08-.45v-2.73a1,1,0,0,1,.66-1A.86.86,0,0,1,210.88,137.21Z"/><path class="cls-5" d="M210.94,143.79H211a1.06,1.06,0,0,1,.87.48,1,1,0,0,1,.19.62,1.07,1.07,0,0,1-.59,1,1.29,1.29,0,0,1-.49.12,1.1,1.1,0,0,1-1-.64,1.34,1.34,0,0,1-.09-.46,1.08,1.08,0,0,1,.58-1A1.13,1.13,0,0,1,210.94,143.79Z"/><g class="cls-6"><path class="cls-5" d="M161.16,137.21h2.2a6.19,6.19,0,0,1,3.7,1.31,7.39,7.39,0,0,1,.77.73,6,6,0,0,1,1.62,4.05v.2a6.15,6.15,0,0,1-1.84,4.3,5.84,5.84,0,0,1-1.21.91,6.06,6.06,0,0,1-.87.44,5.49,5.49,0,0,1-1.81.42H161a1,1,0,0,1-.52-.26,1,1,0,0,1-.33-.76,1,1,0,0,1,.6-.93,1.07,1.07,0,0,1,.47-.1h2a4,4,0,0,0,2.82-1.11,4.8,4.8,0,0,0,.7-.87,4,4,0,0,0,.6-2v-.22a4,4,0,0,0-.95-2.52,4.11,4.11,0,0,0-3.29-1.5h-.91V141a1,1,0,0,1-.77,1.07l-.26,0h0a1,1,0,0,1-.95-.61,1.13,1.13,0,0,1-.09-.45v-2.73a1,1,0,0,1,.66-1A.86.86,0,0,1,161.16,137.21Z"/></g><path class="cls-5" d="M161.22,143.79h.06a1.08,1.08,0,0,1,.88.48,1.1,1.1,0,0,1,.18.62,1.05,1.05,0,0,1-.59,1,1.21,1.21,0,0,1-.49.12,1.09,1.09,0,0,1-1-.64,1.16,1.16,0,0,1-.1-.46,1.09,1.09,0,0,1,.59-1A1.13,1.13,0,0,1,161.22,143.79Z"/><circle class="cls-4" cx="308.53" cy="143.39" r="13.56"/><path class="cls-2" d="M304.88,137.21h2.21a6.16,6.16,0,0,1,3.69,1.31,7.39,7.39,0,0,1,.77.73,6,6,0,0,1,1.62,4.05v.2a6.15,6.15,0,0,1-1.84,4.3,7.06,7.06,0,0,1-2.08,1.35,5.43,5.43,0,0,1-1.81.42h-2.7a.93.93,0,0,1-.52-.26,1,1,0,0,1-.33-.76,1,1,0,0,1,.6-.93,1,1,0,0,1,.47-.1h2a4,4,0,0,0,2.82-1.11,4.8,4.8,0,0,0,.7-.87,4,4,0,0,0,.6-2v-.22a4,4,0,0,0-.95-2.52,4.09,4.09,0,0,0-3.28-1.5H306V141a1,1,0,0,1-.77,1.07l-.26,0h0a1,1,0,0,1-1-.61,1.12,1.12,0,0,1-.08-.45v-2.73a1,1,0,0,1,.65-1A.9.9,0,0,1,304.88,137.21Z"/><path class="cls-5" d="M305,143.79H305a1.06,1.06,0,0,1,.87.48,1,1,0,0,1,.19.62,1.07,1.07,0,0,1-.59,1,1.29,1.29,0,0,1-.5.12,1.1,1.1,0,0,1-1-.64,1.34,1.34,0,0,1-.09-.46,1.08,1.08,0,0,1,.58-1A1.13,1.13,0,0,1,305,143.79Z"/><g class="cls-6"><path class="cls-5" d="M259.69,137.21h2.2a6.14,6.14,0,0,1,3.69,1.31,6.41,6.41,0,0,1,.78.73A6,6,0,0,1,268,143.3v.2a6.17,6.17,0,0,1-1.85,4.3,5.84,5.84,0,0,1-1.2.91,6.32,6.32,0,0,1-.88.44,5.39,5.39,0,0,1-1.8.42h-2.71a.93.93,0,0,1-.52-.26,1,1,0,0,1-.33-.76,1,1,0,0,1,.6-.93,1,1,0,0,1,.47-.1h2a4,4,0,0,0,2.82-1.11,5.29,5.29,0,0,0,.7-.87,4,4,0,0,0,.6-2v-.22a4,4,0,0,0-1-2.52,4.08,4.08,0,0,0-3.28-1.5h-.92V141A1,1,0,0,1,260,142l-.26,0h0a1,1,0,0,1-1-.61,1.13,1.13,0,0,1-.09-.45v-2.73a1,1,0,0,1,.66-1A.86.86,0,0,1,259.69,137.21Z"/></g><path class="cls-5" d="M259.75,143.79h.06a1.06,1.06,0,0,1,.87.48,1,1,0,0,1,.19.62,1.07,1.07,0,0,1-.59,1,1.25,1.25,0,0,1-.49.12,1.1,1.1,0,0,1-1-.64,1.34,1.34,0,0,1-.09-.46,1.07,1.07,0,0,1,.59-1A1.06,1.06,0,0,1,259.75,143.79Z"/><circle class="cls-4" cx="164.81" cy="109.81" r="13.56"/><path class="cls-2" d="M161.16,103.63h2.2a6.14,6.14,0,0,1,3.7,1.32,8.24,8.24,0,0,1,.77.72,6,6,0,0,1,1.62,4.06v.19a6.18,6.18,0,0,1-1.84,4.31,5.84,5.84,0,0,1-1.21.91,6.06,6.06,0,0,1-.87.44,5.43,5.43,0,0,1-1.81.41H161a.93.93,0,0,1-.52-.25,1,1,0,0,1-.33-.77,1,1,0,0,1,.6-.93,1.23,1.23,0,0,1,.47-.09h2a4,4,0,0,0,2.82-1.12,5.17,5.17,0,0,0,.7-.86,4,4,0,0,0,.6-2v-.22a4,4,0,0,0-.95-2.52,4.11,4.11,0,0,0-3.29-1.5h-.91v1.68a1.05,1.05,0,0,1-.77,1.07l-.26,0h0a1,1,0,0,1-.95-.62,1.13,1.13,0,0,1-.09-.45v-2.73a1,1,0,0,1,.66-1A.88.88,0,0,1,161.16,103.63Z"/><path class="cls-5" d="M161.22,110.22h.06a1.07,1.07,0,0,1,.88.47,1.15,1.15,0,0,1,.18.62,1.08,1.08,0,0,1-.59,1,1.21,1.21,0,0,1-.49.12,1.1,1.1,0,0,1-1-.65,1.12,1.12,0,0,1-.1-.45,1.07,1.07,0,0,1,.59-1A1.13,1.13,0,0,1,161.22,110.22Z"/><g class="cls-6"><path class="cls-5" d="M111.44,103.63h2.21a6.09,6.09,0,0,1,3.69,1.32,8.24,8.24,0,0,1,.77.72,6,6,0,0,1,1.62,4.06v.19a6.18,6.18,0,0,1-1.84,4.31,7.06,7.06,0,0,1-2.08,1.35A5.38,5.38,0,0,1,114,116h-2.7a.9.9,0,0,1-.52-.25,1,1,0,0,1-.33-.77,1,1,0,0,1,.6-.93,1.19,1.19,0,0,1,.47-.09h2a4,4,0,0,0,2.82-1.12,5.17,5.17,0,0,0,.7-.86,4,4,0,0,0,.6-2v-.22a4,4,0,0,0-1-2.52,4.09,4.09,0,0,0-3.28-1.5h-.92v1.68a1,1,0,0,1-.77,1.07l-.26,0h0a1,1,0,0,1-1-.62,1.33,1.33,0,0,1-.08-.45v-2.73a1,1,0,0,1,.65-1A.93.93,0,0,1,111.44,103.63Z"/></g><path class="cls-5" d="M111.51,110.22h.06a1.05,1.05,0,0,1,.87.47,1.08,1.08,0,0,1,.19.62,1.1,1.1,0,0,1-.59,1,1.29,1.29,0,0,1-.5.12,1.11,1.11,0,0,1-1-.65,1.29,1.29,0,0,1-.09-.45,1.06,1.06,0,0,1,.58-1A1.13,1.13,0,0,1,111.51,110.22Z"/><circle class="cls-4" cx="263.33" cy="109.81" r="13.56"/><path class="cls-2" d="M259.69,103.63h2.2a6.09,6.09,0,0,1,3.69,1.32,7,7,0,0,1,.78.72,6,6,0,0,1,1.62,4.06v.19a6.19,6.19,0,0,1-1.85,4.31,5.84,5.84,0,0,1-1.2.91,6.32,6.32,0,0,1-.88.44,5.33,5.33,0,0,1-1.8.41h-2.71a.9.9,0,0,1-.52-.25,1,1,0,0,1-.33-.77,1,1,0,0,1,.6-.93,1.19,1.19,0,0,1,.47-.09h2a4,4,0,0,0,2.82-1.12,5.75,5.75,0,0,0,.7-.86,4,4,0,0,0,.6-2v-.22a4,4,0,0,0-1-2.52,4.08,4.08,0,0,0-3.28-1.5h-.92v1.68a1,1,0,0,1-.76,1.07l-.26,0h0a1,1,0,0,1-1-.62,1.13,1.13,0,0,1-.09-.45v-2.73a1,1,0,0,1,.66-1A.88.88,0,0,1,259.69,103.63Z"/><path class="cls-5" d="M259.75,110.22h.06a1.05,1.05,0,0,1,.87.47,1.08,1.08,0,0,1,.19.62,1.1,1.1,0,0,1-.59,1,1.25,1.25,0,0,1-.49.12,1.11,1.11,0,0,1-1-.65,1.29,1.29,0,0,1-.09-.45,1.09,1.09,0,0,1,1.06-1.08Z"/><g class="cls-6"><path class="cls-5" d="M210.88,103.63h2.2a6.09,6.09,0,0,1,3.69,1.32,8.06,8.06,0,0,1,.78.72,6,6,0,0,1,1.62,4.06v.19a6.19,6.19,0,0,1-1.85,4.31,5.84,5.84,0,0,1-1.2.91,6.32,6.32,0,0,1-.88.44,5.33,5.33,0,0,1-1.81.41h-2.7a.9.9,0,0,1-.52-.25,1,1,0,0,1-.33-.77,1,1,0,0,1,.6-.93A1.19,1.19,0,0,1,211,114h2a3.94,3.94,0,0,0,2.81-1.12,5.33,5.33,0,0,0,.71-.86,4,4,0,0,0,.6-2v-.22a4,4,0,0,0-1-2.52,4.09,4.09,0,0,0-3.28-1.5H212v1.68a1,1,0,0,1-.76,1.07l-.26,0h0a1,1,0,0,1-1-.62,1.33,1.33,0,0,1-.08-.45v-2.73a1,1,0,0,1,.66-1A.88.88,0,0,1,210.88,103.63Z"/></g><path class="cls-5" d="M210.94,110.22H211a1.05,1.05,0,0,1,.87.47,1.08,1.08,0,0,1,.19.62,1.1,1.1,0,0,1-.59,1,1.29,1.29,0,0,1-.49.12,1.11,1.11,0,0,1-1-.65,1.29,1.29,0,0,1-.09-.45,1.06,1.06,0,0,1,.58-1A1.13,1.13,0,0,1,210.94,110.22Z"/><g class="cls-6"><path class="cls-5" d="M304.88,103.63h2.21a6.11,6.11,0,0,1,3.69,1.32,8.24,8.24,0,0,1,.77.72,6,6,0,0,1,1.62,4.06v.19a6.18,6.18,0,0,1-1.84,4.31,7.06,7.06,0,0,1-2.08,1.35,5.38,5.38,0,0,1-1.81.41h-2.7a.9.9,0,0,1-.52-.25,1,1,0,0,1-.33-.77,1,1,0,0,1,.6-.93A1.19,1.19,0,0,1,305,114h2a4,4,0,0,0,2.82-1.12,5.17,5.17,0,0,0,.7-.86,4,4,0,0,0,.6-2v-.22a4,4,0,0,0-.95-2.52,4.09,4.09,0,0,0-3.28-1.5H306v1.68a1.05,1.05,0,0,1-.77,1.07l-.26,0h0a1,1,0,0,1-1-.62,1.12,1.12,0,0,1-.08-.45v-2.73a1,1,0,0,1,.65-1A.93.93,0,0,1,304.88,103.63Z"/></g><path class="cls-5" d="M305,110.22H305a1.05,1.05,0,0,1,.87.47,1.08,1.08,0,0,1,.19.62,1.1,1.1,0,0,1-.59,1,1.29,1.29,0,0,1-.5.12,1.11,1.11,0,0,1-1-.65,1.29,1.29,0,0,1-.09-.45,1.06,1.06,0,0,1,.58-1A1.13,1.13,0,0,1,305,110.22Z"/><circle class="cls-4" cx="68.09" cy="184.54" r="13.56"/><path class="cls-2" d="M64.44,178.36h2.2a6.19,6.19,0,0,1,3.7,1.31,7.39,7.39,0,0,1,.77.73,6,6,0,0,1,1.62,4v.2a6.15,6.15,0,0,1-1.84,4.3,5.84,5.84,0,0,1-1.21.91,6.06,6.06,0,0,1-.87.44,5.49,5.49,0,0,1-1.81.42H64.3a1,1,0,0,1-.53-.26,1,1,0,0,1-.33-.76,1,1,0,0,1,.6-.93,1.07,1.07,0,0,1,.47-.1h2a4,4,0,0,0,2.82-1.11,4.8,4.8,0,0,0,.7-.87,4,4,0,0,0,.6-2v-.22a4,4,0,0,0-1-2.52,4.11,4.11,0,0,0-3.29-1.5h-.91v1.68a1,1,0,0,1-.77,1.07l-.26,0h0a1,1,0,0,1-1-.61,1.13,1.13,0,0,1-.09-.45v-2.73a1,1,0,0,1,.66-1A.86.86,0,0,1,64.44,178.36Z"/><path class="cls-5" d="M64.5,184.94h.06a1.08,1.08,0,0,1,.88.48,1.11,1.11,0,0,1,.19.62,1.06,1.06,0,0,1-.6,1,1.21,1.21,0,0,1-.49.12,1.09,1.09,0,0,1-1-.64,1.16,1.16,0,0,1-.1-.46,1.09,1.09,0,0,1,.59-1A1.13,1.13,0,0,1,64.5,184.94Z"/><circle class="cls-4" cx="115.09" cy="223.71" r="13.56"/><path class="cls-2" d="M111.44,217.53h2.21a6.14,6.14,0,0,1,3.69,1.31,7.39,7.39,0,0,1,.77.73,6,6,0,0,1,1.62,4.05v.2a6.15,6.15,0,0,1-1.84,4.3,7.06,7.06,0,0,1-2.08,1.35,5.43,5.43,0,0,1-1.81.42h-2.7a.93.93,0,0,1-.52-.26,1,1,0,0,1,.27-1.7,1.19,1.19,0,0,1,.47-.09h2a4,4,0,0,0,2.82-1.11,4.8,4.8,0,0,0,.7-.87,4,4,0,0,0,.6-2v-.22a4,4,0,0,0-1-2.52,4.09,4.09,0,0,0-3.28-1.5h-.92v1.68a1,1,0,0,1-.77,1.07l-.26,0h0a1,1,0,0,1-1-.61,1.33,1.33,0,0,1-.08-.45v-2.73a1,1,0,0,1,.65-1A.9.9,0,0,1,111.44,217.53Z"/><path class="cls-5" d="M111.51,224.11h.06a1.06,1.06,0,0,1,.87.48,1,1,0,0,1,.19.62,1.07,1.07,0,0,1-.59,1,1.29,1.29,0,0,1-.5.12,1.1,1.1,0,0,1-1-.64,1.34,1.34,0,0,1-.09-.46,1.08,1.08,0,0,1,.58-1A1.13,1.13,0,0,1,111.51,224.11Z"/><g class="cls-6"><path class="cls-5" d="M64.44,217.53h2.2a6.19,6.19,0,0,1,3.7,1.31,7.39,7.39,0,0,1,.77.73,6,6,0,0,1,1.62,4.05v.2a6.15,6.15,0,0,1-1.84,4.3,5.84,5.84,0,0,1-1.21.91,6.06,6.06,0,0,1-.87.44,5.49,5.49,0,0,1-1.81.42H64.3a1,1,0,0,1-.53-.26,1,1,0,0,1,.27-1.7,1.23,1.23,0,0,1,.47-.09h2a4,4,0,0,0,2.82-1.11,4.8,4.8,0,0,0,.7-.87,4,4,0,0,0,.6-2v-.22a4,4,0,0,0-1-2.52,4.11,4.11,0,0,0-3.29-1.5h-.91v1.68a1,1,0,0,1-.77,1.07l-.26,0h0a1,1,0,0,1-1-.61,1.13,1.13,0,0,1-.09-.45v-2.73a1,1,0,0,1,.66-1A.86.86,0,0,1,64.44,217.53Z"/></g><path class="cls-5" d="M64.5,224.11h.06a1.08,1.08,0,0,1,.88.48,1.11,1.11,0,0,1,.19.62,1.06,1.06,0,0,1-.6,1,1.21,1.21,0,0,1-.49.12,1.09,1.09,0,0,1-1-.64,1.16,1.16,0,0,1-.1-.46,1.09,1.09,0,0,1,.59-1A1.13,1.13,0,0,1,64.5,224.11Z"/><circle class="cls-4" cx="214.52" cy="223.71" r="13.56"/><path class="cls-2" d="M210.88,217.53h2.2a6.14,6.14,0,0,1,3.69,1.31,7.26,7.26,0,0,1,.78.73,6,6,0,0,1,1.62,4.05v.2a6.17,6.17,0,0,1-1.85,4.3,5.84,5.84,0,0,1-1.2.91,6.32,6.32,0,0,1-.88.44,5.38,5.38,0,0,1-1.81.42h-2.7a.93.93,0,0,1-.52-.26,1,1,0,0,1,.27-1.7,1.19,1.19,0,0,1,.47-.09h2a4,4,0,0,0,2.81-1.11,4.93,4.93,0,0,0,.71-.87,4,4,0,0,0,.6-2v-.22a4,4,0,0,0-1-2.52,4.09,4.09,0,0,0-3.28-1.5H212v1.68a1,1,0,0,1-.76,1.07l-.26,0h0a1,1,0,0,1-1-.61,1.33,1.33,0,0,1-.08-.45v-2.73a1,1,0,0,1,.66-1A.86.86,0,0,1,210.88,217.53Z"/><path class="cls-5" d="M210.94,224.11H211a1.06,1.06,0,0,1,.87.48,1,1,0,0,1,.19.62,1.07,1.07,0,0,1-.59,1,1.29,1.29,0,0,1-.49.12,1.1,1.1,0,0,1-1-.64,1.34,1.34,0,0,1-.09-.46,1.08,1.08,0,0,1,.58-1A1.13,1.13,0,0,1,210.94,224.11Z"/><g class="cls-6"><path class="cls-5" d="M161.16,217.53h2.2a6.19,6.19,0,0,1,3.7,1.31,7.39,7.39,0,0,1,.77.73,6,6,0,0,1,1.62,4.05v.2a6.15,6.15,0,0,1-1.84,4.3,5.84,5.84,0,0,1-1.21.91,6.06,6.06,0,0,1-.87.44,5.49,5.49,0,0,1-1.81.42H161a1,1,0,0,1-.52-.26,1,1,0,0,1,.27-1.7,1.23,1.23,0,0,1,.47-.09h2a4,4,0,0,0,2.82-1.11,4.8,4.8,0,0,0,.7-.87,4,4,0,0,0,.6-2v-.22a4,4,0,0,0-.95-2.52,4.11,4.11,0,0,0-3.29-1.5h-.91v1.68a1,1,0,0,1-.77,1.07l-.26,0h0a1,1,0,0,1-.95-.61,1.13,1.13,0,0,1-.09-.45v-2.73a1,1,0,0,1,.66-1A.86.86,0,0,1,161.16,217.53Z"/></g><path class="cls-5" d="M161.22,224.11h.06a1.08,1.08,0,0,1,.88.48,1.1,1.1,0,0,1,.18.62,1.05,1.05,0,0,1-.59,1,1.21,1.21,0,0,1-.49.12,1.09,1.09,0,0,1-1-.64,1.16,1.16,0,0,1-.1-.46,1.09,1.09,0,0,1,.59-1A1.13,1.13,0,0,1,161.22,224.11Z"/><circle class="cls-4" cx="308.53" cy="223.71" r="13.56"/><path class="cls-2" d="M304.88,217.53h2.21a6.16,6.16,0,0,1,3.69,1.31,7.39,7.39,0,0,1,.77.73,6,6,0,0,1,1.62,4.05v.2a6.15,6.15,0,0,1-1.84,4.3,7.06,7.06,0,0,1-2.08,1.35,5.43,5.43,0,0,1-1.81.42h-2.7a.93.93,0,0,1-.52-.26,1,1,0,0,1,.27-1.7,1.19,1.19,0,0,1,.47-.09h2a4,4,0,0,0,2.82-1.11,4.8,4.8,0,0,0,.7-.87,4,4,0,0,0,.6-2v-.22a4,4,0,0,0-.95-2.52,4.09,4.09,0,0,0-3.28-1.5H306v1.68a1,1,0,0,1-.77,1.07l-.26,0h0a1,1,0,0,1-1-.61,1.12,1.12,0,0,1-.08-.45v-2.73a1,1,0,0,1,.65-1A.9.9,0,0,1,304.88,217.53Z"/><path class="cls-5" d="M305,224.11H305a1.06,1.06,0,0,1,.87.48,1,1,0,0,1,.19.62,1.07,1.07,0,0,1-.59,1,1.29,1.29,0,0,1-.5.12,1.1,1.1,0,0,1-1-.64,1.34,1.34,0,0,1-.09-.46,1.08,1.08,0,0,1,.58-1A1.13,1.13,0,0,1,305,224.11Z"/><g class="cls-6"><path class="cls-5" d="M259.69,217.53h2.2a6.14,6.14,0,0,1,3.69,1.31,6.41,6.41,0,0,1,.78.73,6,6,0,0,1,1.62,4.05v.2a6.17,6.17,0,0,1-1.85,4.3,5.84,5.84,0,0,1-1.2.91,6.32,6.32,0,0,1-.88.44,5.39,5.39,0,0,1-1.8.42h-2.71a.93.93,0,0,1-.52-.26,1,1,0,0,1,.27-1.7,1.19,1.19,0,0,1,.47-.09h2a4,4,0,0,0,2.82-1.11,5.29,5.29,0,0,0,.7-.87,4,4,0,0,0,.6-2v-.22a4,4,0,0,0-1-2.52,4.08,4.08,0,0,0-3.28-1.5h-.92v1.68a1,1,0,0,1-.76,1.07l-.26,0h0a1,1,0,0,1-1-.61,1.13,1.13,0,0,1-.09-.45v-2.73a1,1,0,0,1,.66-1A.86.86,0,0,1,259.69,217.53Z"/></g><path class="cls-5" d="M259.75,224.11h.06a1.06,1.06,0,0,1,.87.48,1,1,0,0,1,.19.62,1.07,1.07,0,0,1-.59,1,1.25,1.25,0,0,1-.49.12,1.1,1.1,0,0,1-1-.64,1.34,1.34,0,0,1-.09-.46,1.07,1.07,0,0,1,.59-1A1.06,1.06,0,0,1,259.75,224.11Z"/><circle class="cls-4" cx="164.81" cy="184.54" r="13.56"/><path class="cls-2" d="M161.16,178.36h2.2a6.19,6.19,0,0,1,3.7,1.31,7.39,7.39,0,0,1,.77.73,6,6,0,0,1,1.62,4v.2a6.15,6.15,0,0,1-1.84,4.3,5.84,5.84,0,0,1-1.21.91,6.06,6.06,0,0,1-.87.44,5.49,5.49,0,0,1-1.81.42H161a1,1,0,0,1-.52-.26,1,1,0,0,1-.33-.76,1,1,0,0,1,.6-.93,1.07,1.07,0,0,1,.47-.1h2a4,4,0,0,0,2.82-1.11,4.8,4.8,0,0,0,.7-.87,4,4,0,0,0,.6-2v-.22a4,4,0,0,0-.95-2.52,4.11,4.11,0,0,0-3.29-1.5h-.91v1.68a1,1,0,0,1-.77,1.07l-.26,0h0a1,1,0,0,1-.95-.61,1.13,1.13,0,0,1-.09-.45v-2.73a1,1,0,0,1,.66-1A.86.86,0,0,1,161.16,178.36Z"/><path class="cls-5" d="M161.22,184.94h.06a1.08,1.08,0,0,1,.88.48,1.1,1.1,0,0,1,.18.62,1.05,1.05,0,0,1-.59,1,1.21,1.21,0,0,1-.49.12,1.09,1.09,0,0,1-1-.64,1.16,1.16,0,0,1-.1-.46,1.09,1.09,0,0,1,.59-1A1.13,1.13,0,0,1,161.22,184.94Z"/><g class="cls-6"><path class="cls-5" d="M111.44,178.36h2.21a6.14,6.14,0,0,1,3.69,1.31,7.39,7.39,0,0,1,.77.73,6,6,0,0,1,1.62,4v.2a6.15,6.15,0,0,1-1.84,4.3,7.06,7.06,0,0,1-2.08,1.35,5.43,5.43,0,0,1-1.81.42h-2.7a.93.93,0,0,1-.52-.26,1,1,0,0,1-.33-.76,1,1,0,0,1,.6-.93,1,1,0,0,1,.47-.1h2a4,4,0,0,0,2.82-1.11,4.8,4.8,0,0,0,.7-.87,4,4,0,0,0,.6-2v-.22a4,4,0,0,0-1-2.52,4.09,4.09,0,0,0-3.28-1.5h-.92v1.68a1,1,0,0,1-.77,1.07l-.26,0h0a1,1,0,0,1-1-.61,1.33,1.33,0,0,1-.08-.45v-2.73a1,1,0,0,1,.65-1A.9.9,0,0,1,111.44,178.36Z"/></g><path class="cls-5" d="M111.51,184.94h.06a1.06,1.06,0,0,1,.87.48,1,1,0,0,1,.19.62,1.07,1.07,0,0,1-.59,1,1.29,1.29,0,0,1-.5.12,1.1,1.1,0,0,1-1-.64,1.34,1.34,0,0,1-.09-.46,1.08,1.08,0,0,1,.58-1A1.13,1.13,0,0,1,111.51,184.94Z"/><circle class="cls-4" cx="263.33" cy="184.54" r="13.56"/><path class="cls-2" d="M259.69,178.36h2.2a6.14,6.14,0,0,1,3.69,1.31,6.41,6.41,0,0,1,.78.73,6,6,0,0,1,1.62,4v.2a6.17,6.17,0,0,1-1.85,4.3,5.84,5.84,0,0,1-1.2.91,6.32,6.32,0,0,1-.88.44,5.39,5.39,0,0,1-1.8.42h-2.71a.93.93,0,0,1-.52-.26,1,1,0,0,1-.33-.76,1,1,0,0,1,.6-.93,1,1,0,0,1,.47-.1h2a4,4,0,0,0,2.82-1.11,5.29,5.29,0,0,0,.7-.87,4,4,0,0,0,.6-2v-.22a4,4,0,0,0-1-2.52,4.08,4.08,0,0,0-3.28-1.5h-.92v1.68a1,1,0,0,1-.76,1.07l-.26,0h0a1,1,0,0,1-1-.61,1.13,1.13,0,0,1-.09-.45v-2.73a1,1,0,0,1,.66-1A.86.86,0,0,1,259.69,178.36Z"/><path class="cls-5" d="M259.75,184.94h.06a1.06,1.06,0,0,1,.87.48,1,1,0,0,1,.19.62,1.07,1.07,0,0,1-.59,1,1.25,1.25,0,0,1-.49.12,1.1,1.1,0,0,1-1-.64,1.34,1.34,0,0,1-.09-.46,1.07,1.07,0,0,1,.59-1A1.06,1.06,0,0,1,259.75,184.94Z"/><g class="cls-6"><path class="cls-5" d="M210.88,178.36h2.2a6.14,6.14,0,0,1,3.69,1.31,7.26,7.26,0,0,1,.78.73,6,6,0,0,1,1.62,4v.2a6.17,6.17,0,0,1-1.85,4.3,5.84,5.84,0,0,1-1.2.91,6.32,6.32,0,0,1-.88.44,5.38,5.38,0,0,1-1.81.42h-2.7a.93.93,0,0,1-.52-.26,1,1,0,0,1-.33-.76,1,1,0,0,1,.6-.93,1,1,0,0,1,.47-.1h2a4,4,0,0,0,2.81-1.11,4.93,4.93,0,0,0,.71-.87,4,4,0,0,0,.6-2v-.22a4,4,0,0,0-1-2.52,4.09,4.09,0,0,0-3.28-1.5H212v1.68a1,1,0,0,1-.76,1.07l-.26,0h0a1,1,0,0,1-1-.61,1.33,1.33,0,0,1-.08-.45v-2.73a1,1,0,0,1,.66-1A.86.86,0,0,1,210.88,178.36Z"/></g><path class="cls-5" d="M210.94,184.94H211a1.06,1.06,0,0,1,.87.48,1,1,0,0,1,.19.62,1.07,1.07,0,0,1-.59,1,1.29,1.29,0,0,1-.49.12,1.1,1.1,0,0,1-1-.64,1.34,1.34,0,0,1-.09-.46,1.08,1.08,0,0,1,.58-1A1.13,1.13,0,0,1,210.94,184.94Z"/><g class="cls-6"><path class="cls-5" d="M304.88,178.36h2.21a6.16,6.16,0,0,1,3.69,1.31,7.39,7.39,0,0,1,.77.73,6,6,0,0,1,1.62,4v.2a6.15,6.15,0,0,1-1.84,4.3,7.06,7.06,0,0,1-2.08,1.35,5.43,5.43,0,0,1-1.81.42h-2.7a.93.93,0,0,1-.52-.26,1,1,0,0,1-.33-.76,1,1,0,0,1,.6-.93,1,1,0,0,1,.47-.1h2a4,4,0,0,0,2.82-1.11,4.8,4.8,0,0,0,.7-.87,4,4,0,0,0,.6-2v-.22a4,4,0,0,0-.95-2.52,4.09,4.09,0,0,0-3.28-1.5H306v1.68a1,1,0,0,1-.77,1.07l-.26,0h0a1,1,0,0,1-1-.61,1.12,1.12,0,0,1-.08-.45v-2.73a1,1,0,0,1,.65-1A.9.9,0,0,1,304.88,178.36Z"/></g><path class="cls-5" d="M305,184.94H305a1.06,1.06,0,0,1,.87.48,1,1,0,0,1,.19.62,1.07,1.07,0,0,1-.59,1,1.29,1.29,0,0,1-.5.12,1.1,1.1,0,0,1-1-.64,1.34,1.34,0,0,1-.09-.46,1.08,1.08,0,0,1,.58-1A1.13,1.13,0,0,1,305,184.94Z"/><circle class="cls-4" cx="26.51" cy="143.39" r="13.56"/><path class="cls-2" d="M22.86,137.21h2.2a6.19,6.19,0,0,1,3.7,1.31,7.39,7.39,0,0,1,.77.73,6,6,0,0,1,1.62,4.05v.2a6.15,6.15,0,0,1-1.84,4.3,5.84,5.84,0,0,1-1.21.91,5.78,5.78,0,0,1-.88.44,5.39,5.39,0,0,1-1.8.42H22.71a.93.93,0,0,1-.52-.26,1,1,0,0,1-.33-.76,1,1,0,0,1,.6-.93,1.07,1.07,0,0,1,.47-.1h2a4,4,0,0,0,2.82-1.11,4.8,4.8,0,0,0,.7-.87,4,4,0,0,0,.6-2v-.22a4,4,0,0,0-.95-2.52,4.11,4.11,0,0,0-3.29-1.5h-.91V141a1,1,0,0,1-.77,1.07l-.26,0h0a1,1,0,0,1-.95-.61,1.13,1.13,0,0,1-.09-.45v-2.73a1,1,0,0,1,.66-1A.86.86,0,0,1,22.86,137.21Z"/><path class="cls-5" d="M22.92,143.79H23a1.08,1.08,0,0,1,.88.48,1.1,1.1,0,0,1,.18.62,1.05,1.05,0,0,1-.59,1A1.21,1.21,0,0,1,23,146a1.09,1.09,0,0,1-1-.64,1.16,1.16,0,0,1-.1-.46,1.09,1.09,0,0,1,1.06-1.08Z"/><g class="cls-6"><path class="cls-5" d="M22.86,102.43h2.2a6.19,6.19,0,0,1,3.7,1.31,7.39,7.39,0,0,1,.77.73,6,6,0,0,1,1.62,4v.2a6.15,6.15,0,0,1-1.84,4.3,5.84,5.84,0,0,1-1.21.91,6.63,6.63,0,0,1-.88.45,5.59,5.59,0,0,1-1.8.41H22.71a.93.93,0,0,1-.52-.26,1,1,0,0,1-.33-.76,1,1,0,0,1,.6-.93,1.07,1.07,0,0,1,.47-.1h2a4,4,0,0,0,2.82-1.11,4.8,4.8,0,0,0,.7-.87,4,4,0,0,0,.6-2v-.22a4,4,0,0,0-.95-2.52,4.11,4.11,0,0,0-3.29-1.5h-.91v1.68a1,1,0,0,1-.77,1.07l-.26,0h0a1,1,0,0,1-.95-.61,1.13,1.13,0,0,1-.09-.45v-2.73a1,1,0,0,1,.66-1A.86.86,0,0,1,22.86,102.43Z"/></g><path class="cls-5" d="M22.92,109H23a1.08,1.08,0,0,1,.88.48,1.1,1.1,0,0,1,.18.62,1.05,1.05,0,0,1-.59,1,1.21,1.21,0,0,1-.49.12,1.09,1.09,0,0,1-1-.64,1.16,1.16,0,0,1-.1-.46A1.09,1.09,0,0,1,22.92,109Z"/><circle class="cls-4" cx="26.51" cy="223.71" r="13.56"/><path class="cls-2" d="M22.86,217.53h2.2a6.19,6.19,0,0,1,3.7,1.31,7.39,7.39,0,0,1,.77.73,6,6,0,0,1,1.62,4.05v.2a6.15,6.15,0,0,1-1.84,4.3,5.84,5.84,0,0,1-1.21.91,5.78,5.78,0,0,1-.88.44,5.39,5.39,0,0,1-1.8.42H22.71a.93.93,0,0,1-.52-.26,1,1,0,0,1,.27-1.7,1.23,1.23,0,0,1,.47-.09h2a4,4,0,0,0,2.82-1.11,4.8,4.8,0,0,0,.7-.87,4,4,0,0,0,.6-2v-.22a4,4,0,0,0-.95-2.52,4.11,4.11,0,0,0-3.29-1.5h-.91v1.68a1,1,0,0,1-.77,1.07l-.26,0h0a1,1,0,0,1-.95-.61,1.13,1.13,0,0,1-.09-.45v-2.73a1,1,0,0,1,.66-1A.86.86,0,0,1,22.86,217.53Z"/><path class="cls-5" d="M22.92,224.11H23a1.08,1.08,0,0,1,.88.48,1.1,1.1,0,0,1,.18.62,1.05,1.05,0,0,1-.59,1,1.21,1.21,0,0,1-.49.12,1.09,1.09,0,0,1-1-.64,1.16,1.16,0,0,1-.1-.46,1.09,1.09,0,0,1,1.06-1.08Z"/><g class="cls-6"><path class="cls-5" d="M22.86,178.36h2.2a6.19,6.19,0,0,1,3.7,1.31,7.39,7.39,0,0,1,.77.73,6,6,0,0,1,1.62,4v.2a6.15,6.15,0,0,1-1.84,4.3,5.84,5.84,0,0,1-1.21.91,5.78,5.78,0,0,1-.88.44,5.39,5.39,0,0,1-1.8.42H22.71a.93.93,0,0,1-.52-.26,1,1,0,0,1-.33-.76,1,1,0,0,1,.6-.93,1.07,1.07,0,0,1,.47-.1h2a4,4,0,0,0,2.82-1.11,4.8,4.8,0,0,0,.7-.87,4,4,0,0,0,.6-2v-.22a4,4,0,0,0-.95-2.52,4.11,4.11,0,0,0-3.29-1.5h-.91v1.68a1,1,0,0,1-.77,1.07l-.26,0h0a1,1,0,0,1-.95-.61,1.13,1.13,0,0,1-.09-.45v-2.73a1,1,0,0,1,.66-1A.86.86,0,0,1,22.86,178.36Z"/></g><path class="cls-5" d="M22.92,184.94H23a1.08,1.08,0,0,1,.88.48A1.1,1.1,0,0,1,24,186a1.05,1.05,0,0,1-.59,1,1.21,1.21,0,0,1-.49.12,1.09,1.09,0,0,1-1-.64,1.16,1.16,0,0,1-.1-.46,1.09,1.09,0,0,1,1.06-1.08Z"/></g></g></g></g></svg>