<svg width="32" height="32" viewBox="0 0 32 32" fill="none" xmlns="http://www.w3.org/2000/svg">
<path fill-rule="evenodd" clip-rule="evenodd" d="M3 17.8656C4.7028 15.5992 7.41349 14.1333 10.4667 14.1333C15.6215 14.1333 19.8 18.3118 19.8 23.4666C19.8 26.0105 18.7824 28.3165 17.1321 30H23.958C24.4221 30 24.8672 29.8156 25.1954 29.4874C25.5236 29.1592 25.708 28.7141 25.708 28.25V9.875C25.708 9.64294 25.6158 9.42038 25.4517 9.25628C25.2876 9.09219 25.0651 9 24.833 9H10C9.968 9 9.91352 9.00375 9.85438 9.00781C9.83267 9.0093 9.81033 9.01084 9.78825 9.01225L7.41175 9C5.9435 9 4.75 7.87825 4.75 6.41175C4.75 4.9435 5.90675 3.75 7.375 3.75H27.5V23.875C27.5 24.358 27.85 24.75 28.3347 24.75C28.8195 24.75 29.25 24.358 29.25 23.875V2.875C29.25 2.392 28.8177 2 28.3347 2H7.41175C6.25361 2.00035 5.14217 2.45664 4.31786 3.27014C3.49355 4.08365 3.02264 5.18897 3.007 6.347L3 6.33825V17.8656ZM7.8272 19.5065L10.4667 22.1469L13.1061 19.5065L14.4268 20.8272L11.7864 23.4666L14.4268 26.1061L13.1061 27.4268L10.4667 24.7864L7.8272 27.4268L6.50653 26.1061L9.14693 23.4666L6.50653 20.8272L7.8272 19.5065Z" fill="#3160F1"/>
</svg>
