<svg xmlns="http://www.w3.org/2000/svg" viewBox="0 0 749.23 644.74"><defs><style>.cls-1{fill:#ffe066;}.cls-2{fill:#fcb400;}.cls-3{fill:#2a2b2a;}.cls-4{fill:#434343;}.cls-4,.cls-5,.cls-6{fill-rule:evenodd;}.cls-5{fill:#f1c232;}.cls-6{fill:#ffe599;}.cls-7{fill:#f0c54d;}.cls-8{fill:#c2bebb;}.cls-9{fill:#eaeae8;}.cls-10{fill:#474747;}.cls-11{fill:#282828;}.cls-12{fill:#3d7cba;}.cls-13{fill:#303231;opacity:0.2;}.cls-14{fill:#ffccb8;}.cls-15{fill:none;stroke:#482917;stroke-miterlimit:10;stroke-width:0.75px;}.cls-16{fill:#482917;opacity:0.1;}.cls-17{fill:#2c1817;}.cls-18{fill:#575461;}.cls-19{fill:#292929;}.cls-20{fill:#153b60;}</style></defs><title>pricing-bg</title><g id="Layer_2" data-name="Layer 2"><g id="Layer_1-2" data-name="Layer 1"><circle class="cls-1" cx="353.91" cy="186.54" r="9.85" transform="translate(-21.57 324.6) rotate(-47.98)"/><circle class="cls-2" cx="353.91" cy="186.54" r="9.37" transform="translate(86.39 484) rotate(-75.83)"/><circle class="cls-1" cx="353.91" cy="186.54" r="7.44" transform="translate(98.86 494.76) rotate(-78.19)"/><path class="cls-3" d="M351.44,182.35h1.49a4.21,4.21,0,0,1,2.51.89c.12.1.29.26.52.49a4.12,4.12,0,0,1,1.1,2.75v.13a4.2,4.2,0,0,1-1.25,2.92,3.86,3.86,0,0,1-.82.62,6,6,0,0,1-.59.3,3.93,3.93,0,0,1-1.23.28h-1.83a.61.61,0,0,1-.35-.18.69.69,0,0,1-.23-.51.7.7,0,0,1,.41-.64.83.83,0,0,1,.32-.06h1.38a2.71,2.71,0,0,0,1.91-.75,3.59,3.59,0,0,0,.47-.59,2.62,2.62,0,0,0,.41-1.38v-.14a2.66,2.66,0,0,0-.65-1.71,2.76,2.76,0,0,0-2.22-1h-.62v1.14a.7.7,0,0,1-.52.72.62.62,0,0,1-.18,0h0a.69.69,0,0,1-.65-.41.81.81,0,0,1-.06-.31v-1.85a.69.69,0,0,1,.45-.66A.68.68,0,0,1,351.44,182.35Z"/><path class="cls-2" d="M351.48,186.81h0a.73.73,0,0,1,.72.75.73.73,0,0,1-.4.65.88.88,0,0,1-.33.08.73.73,0,0,1-.68-.43,1,1,0,0,1-.07-.31.74.74,0,0,1,.4-.65A.71.71,0,0,1,351.48,186.81Z"/><circle class="cls-1" cx="300.63" cy="138.54" r="15.13" transform="translate(-3.53 269.15) rotate(-47.98)"/><circle class="cls-2" cx="300.63" cy="138.54" r="14.39" transform="translate(92.7 396.1) rotate(-75.83)"/><circle class="cls-1" cx="300.63" cy="138.54" r="11.43" transform="translate(103.47 404.44) rotate(-78.19)"/><path class="cls-3" d="M296.84,132.11h2.29a6.38,6.38,0,0,1,3.84,1.37,8.68,8.68,0,0,1,.81.75,6.28,6.28,0,0,1,1.68,4.22v.2a6.4,6.4,0,0,1-1.92,4.48,5.9,5.9,0,0,1-1.25,1,6.1,6.1,0,0,1-.91.46,5.62,5.62,0,0,1-1.88.43h-2.81a1,1,0,0,1-.55-.26,1.1,1.1,0,0,1-.34-.8,1.06,1.06,0,0,1,.62-1,1.16,1.16,0,0,1,.49-.1H299a4.13,4.13,0,0,0,2.93-1.16,4.41,4.41,0,0,0,.73-.9,4.14,4.14,0,0,0,.63-2.11v-.23a4.14,4.14,0,0,0-1-2.62,4.27,4.27,0,0,0-3.42-1.56h-1V136a1.09,1.09,0,0,1-.8,1.11l-.27,0h0a1.05,1.05,0,0,1-1-.64,1.23,1.23,0,0,1-.09-.47V133.2a1,1,0,0,1,.68-1A1,1,0,0,1,296.84,132.11Z"/><path class="cls-2" d="M296.9,139H297a1.09,1.09,0,0,1,.91.5,1.13,1.13,0,0,1,.2.64,1.11,1.11,0,0,1-.62,1,1.2,1.2,0,0,1-.51.13,1.13,1.13,0,0,1-1-.67,1.24,1.24,0,0,1-.1-.47,1.11,1.11,0,0,1,.61-1A1.06,1.06,0,0,1,296.9,139Z"/><path class="cls-4" d="M193.28,132.57a.45.45,0,0,1,.37-.19c1.43,0,3.35.76,5.69,2.42s4.65,5.53,3.78,2.48c-.6-2.1,1.63-7.39,2.86-9,.91-1.21,1.69-1.68,2.3-1.41.77.34,1,1.74.89,2.17a10.07,10.07,0,0,0,.85,3,2,2,0,0,1-.52,2.34,2.81,2.81,0,0,1,2.26,3.19,4.66,4.66,0,0,1-1,3,3.64,3.64,0,0,1-1.51,1,.68.68,0,0,1-.26,0c-2.24,0-5.88-3.32-5.12-2.3a8.12,8.12,0,0,1,.67,3c.14.69.24,1.39-.12,1.68a.65.65,0,0,1-.43.13,2.57,2.57,0,0,1-1-.29,8.14,8.14,0,0,1-2.67-2.05,4.56,4.56,0,0,1-1.31-2.82,2.21,2.21,0,0,1-1.85-1,26.89,26.89,0,0,0-2.36-3,2.92,2.92,0,0,1-1.51-1.84A.48.48,0,0,1,193.28,132.57Z"/><path class="cls-5" d="M204.21,137.38c-.24,0-.41.65-.28.86a.35.35,0,0,0,.14.13,30.11,30.11,0,0,0,3,1.8c1.33.61,2.36,1,2.76.39,1.41-1.43,1.74-6.14-1.15-5.2C207.18,135.84,205,137.24,204.21,137.38Z"/><path class="cls-6" d="M206.41,129.36a.93.93,0,1,0,.39-1.26A.93.93,0,0,0,206.41,129.36Z"/><path class="cls-6" d="M207.44,131.31a.58.58,0,0,0,1-.55.58.58,0,0,0-1,.55Z"/><path class="cls-6" d="M205.93,130.42a.29.29,0,0,0,.39.12.28.28,0,0,0,.12-.39.29.29,0,0,0-.51.27Z"/><path class="cls-6" d="M207.83,133.51a.62.62,0,1,0,.26-.83A.61.61,0,0,0,207.83,133.51Z"/><path class="cls-5" d="M203.71,136.72a10.62,10.62,0,0,0,2.21-2.88c1-1.91,1.1-2.66.54-2.88a1.28,1.28,0,0,0-1.64.71,13.14,13.14,0,0,0-1.19,3.52,10.76,10.76,0,0,1-.21,1.3C203.35,136.78,203.42,137,203.71,136.72Z"/><path class="cls-5" d="M204,137.09a13.87,13.87,0,0,0,2.68-1.76c.78-.8.95-1.16.71-1.35a.66.66,0,0,0-.93.1c-.11.12-.27.3-.43.5a10.85,10.85,0,0,1-2.11,2.39C203.78,137.08,203.8,137.2,204,137.09Z"/><path class="cls-6" d="M209.14,136c0,.14.15.27.37.29s.4-.07.42-.21-.15-.27-.37-.29S209.16,135.84,209.14,136Z"/><path class="cls-6" d="M209.48,137.12c0,.14.16.26.38.28s.4-.08.41-.22-.15-.27-.37-.29S209.49,137,209.48,137.12Z"/><path class="cls-6" d="M209.42,138.09c0,.14.11.3.32.35s.41,0,.44-.15-.1-.29-.32-.34S209.45,138,209.42,138.09Z"/><path class="cls-6" d="M209.89,139.36c.08-.12,0-.31-.2-.42s-.4-.11-.47,0,0,.31.2.42S209.82,139.48,209.89,139.36Z"/><path class="cls-6" d="M209.06,140.28c.12-.08.11-.29,0-.47s-.33-.25-.44-.17-.1.29,0,.47S209,140.36,209.06,140.28Z"/><path class="cls-6" d="M208.33,136.31a18.89,18.89,0,0,0-3,1.15c-.95.39-1.43.66.3.76C209.24,138.43,210,136.34,208.33,136.31Z"/><path class="cls-6" d="M207.61,138.77a10.89,10.89,0,0,0-1.79-.17c-.57,0-.89,0,0,.46C207.53,140.07,208.44,139.21,207.61,138.77Z"/><path class="cls-5" d="M202.61,138c.11-.12.78.14.86.33a.4.4,0,0,1,0,.15,22,22,0,0,1,.42,3.1c-.07,1.1.38,2.1-.08,2-1.24,0-5.29-3.53-3.85-4.66C200.71,138.32,202.29,138.34,202.61,138Z"/><path class="cls-6" d="M200.56,140.05a.36.36,0,0,1,.05.38c-.06.13-.17.19-.25.12a.34.34,0,0,1-.05-.38C200.37,140,200.48,140,200.56,140.05Z"/><path class="cls-6" d="M201.09,140.88a.36.36,0,0,1,0,.38c-.06.13-.18.19-.26.11a.34.34,0,0,1,0-.37C200.89,140.86,201,140.81,201.09,140.88Z"/><path class="cls-6" d="M201.66,141.39a.42.42,0,0,1,.09.38c0,.15-.14.23-.23.18a.42.42,0,0,1-.09-.38C201.47,141.42,201.57,141.34,201.66,141.39Z"/><path class="cls-6" d="M202.21,142.38c-.09,0-.16-.19-.17-.36s.06-.29.15-.26.17.18.18.35S202.3,142.4,202.21,142.38Z"/><path class="cls-6" d="M203,142.41c-.08,0-.19-.1-.25-.27s0-.33,0-.35.19.1.25.28S203.07,142.39,203,142.41Z"/><path class="cls-6" d="M201,139.77a8.17,8.17,0,0,1,1.57-1.06c.52-.33.83-.46.33.6C201.9,141.48,200.49,140.74,201,139.77Z"/><path class="cls-6" d="M202.6,140.73a7,7,0,0,1,.47-1.12c.16-.36.27-.54.27.23C203.36,141.41,202.58,141.45,202.6,140.73Z"/><path class="cls-4" d="M202.81,137.08a18.44,18.44,0,0,1,1.4,2.36c.64,1.32.81,2.18.63,2.23s-.47-1.32-.91-1.94a3.57,3.57,0,0,1-.54-1,7,7,0,0,1-.75-.64,1.46,1.46,0,0,1-.33-1.12C202.38,136.64,202.6,136.82,202.81,137.08Z"/><path class="cls-4" d="M202,136.65a.34.34,0,1,1,.67.14.34.34,0,0,1-.67-.14Z"/><path class="cls-4" d="M202.22,136.62l.08-.05a9.32,9.32,0,0,0-1.26-2,2.25,2.25,0,0,0-1.18-.31l0,.08a2.2,2.2,0,0,1,1.14.3,5.9,5.9,0,0,1,1,1.48,4,4,0,0,0-1-1,7.36,7.36,0,0,0-1.52-.42l0,.09a6.88,6.88,0,0,1,1.5.41A6.2,6.2,0,0,1,202.22,136.62Z"/><path class="cls-4" d="M199.65,134.31c0,.05.07.1.18.1s.21,0,.22-.1-.07-.1-.18-.1S199.66,134.25,199.65,134.31Z"/><path class="cls-4" d="M199.18,134.65s0,.12.14.15a.2.2,0,0,0,.22,0s0-.12-.14-.15S199.2,134.6,199.18,134.65Z"/><path class="cls-6" d="M195.42,133.55a.53.53,0,0,1-.53.65.76.76,0,0,1-.75-.63.53.53,0,0,1,.53-.64A.77.77,0,0,1,195.42,133.55Z"/><path class="cls-6" d="M196.57,135.13a.33.33,0,0,1-.33.4.48.48,0,0,1-.47-.39.33.33,0,0,1,.33-.4A.47.47,0,0,1,196.57,135.13Z"/><path class="cls-6" d="M196.86,134a.16.16,0,0,1-.16.2.23.23,0,0,1-.24-.19.17.17,0,0,1,.17-.2A.24.24,0,0,1,196.86,134Z"/><path class="cls-6" d="M197.71,136.57a.35.35,0,0,1-.35.42.5.5,0,0,1-.49-.41.35.35,0,0,1,.35-.42A.5.5,0,0,1,197.71,136.57Z"/><path class="cls-5" d="M201.42,137.53a8.61,8.61,0,0,1-2.43-1c-1.36-.81-1.74-1.23-1.53-1.54a.86.86,0,0,1,1.21-.12,11,11,0,0,1,2.14,1.71,8.52,8.52,0,0,0,.68.71C201.65,137.45,201.69,137.59,201.42,137.53Z"/><path class="cls-5" d="M201.37,137.81a10.62,10.62,0,0,1-2.23-.16c-.77-.23-1-.38-1-.58s.25-.33.56-.24l.45.15a8.66,8.66,0,0,0,2.17.73C201.48,137.73,201.52,137.81,201.37,137.81Z"/><circle class="cls-1" cx="459.65" cy="82.94" r="17.12" transform="matrix(0.67, -0.74, 0.74, 0.67, 90.35, 368.91)"/><circle class="cls-2" cx="459.65" cy="82.94" r="16.28" transform="translate(266.68 508.28) rotate(-75.83)"/><circle class="cls-1" cx="459.65" cy="82.94" r="12.92" transform="translate(284.35 515.87) rotate(-78.19)"/><path class="cls-3" d="M455.36,75.67H458a7.19,7.19,0,0,1,4.35,1.55,9.42,9.42,0,0,1,.91.85,7.08,7.08,0,0,1,1.9,4.77v.23a7.15,7.15,0,0,1-3.59,6.14,7.17,7.17,0,0,1-1,.52,6.51,6.51,0,0,1-2.12.48h-3.18a1.09,1.09,0,0,1-.62-.3,1.2,1.2,0,0,1-.39-.9,1.22,1.22,0,0,1,.71-1.1,1.42,1.42,0,0,1,.55-.11h2.4a4.66,4.66,0,0,0,3.32-1.31,5.84,5.84,0,0,0,.82-1,4.7,4.7,0,0,0,.71-2.39v-.25a4.7,4.7,0,0,0-1.13-3,4.83,4.83,0,0,0-3.86-1.76h-1.08v2a1.23,1.23,0,0,1-.9,1.26,2,2,0,0,1-.31,0h0a1.2,1.2,0,0,1-1.13-.73,1.5,1.5,0,0,1-.1-.52V76.9a1.21,1.21,0,0,1,1.18-1.23Z"/><path class="cls-2" d="M455.43,83.41h.07a1.27,1.27,0,0,1,1,.56,1.31,1.31,0,0,1,.22.74,1.25,1.25,0,0,1-.7,1.13,1.53,1.53,0,0,1-.58.14,1.29,1.29,0,0,1-1.18-.76,1.57,1.57,0,0,1-.11-.53,1.3,1.3,0,0,1,1.25-1.28Z"/><path class="cls-7" d="M172,66h78.79s.41-20.19-18.84-17.89c0,0-4.7-11.72-20.08-9s-15.49,14.54-15.49,14.54S185.17,50.31,182,61C182,61,173.34,61.5,172,66Z"/><polyline class="cls-7" points="0 644.74 749.23 644.74 749.23 0"/><path class="cls-8" d="M439.49,631H276a12.24,12.24,0,0,0-12.24,12.24H443.84Z"/><polygon class="cls-9" points="490.89 643.21 392.98 643.21 337.41 487.08 435.32 487.08 490.89 643.21"/><polygon class="cls-8" points="477.58 643.21 379.67 643.21 324.1 487.08 422.01 487.08 477.58 643.21"/><path class="cls-8" d="M173.12,572.32H637.44c12.91,0,24.49-10.43,25.87-23.35,6.79-63.64,25.55-239.67,32.34-303.31,1.37-12.91-8-23.35-20.89-23.35H210.45c-12.91,0-24.5,10.47-25.87,23.38L152.24,548.94C150.86,561.85,160.21,572.32,173.12,572.32Z"/><path class="cls-10" d="M695.65,245.69,667.79,506.92H156.72l27.86-261.23c1.37-12.91,13-23.38,25.87-23.38H674.77C687.68,222.31,697,232.78,695.65,245.69Z"/><path class="cls-9" d="M153.53,572.32H617.84c12.92,0,24.5-10.43,25.87-23.35,6.79-63.64,25.56-239.67,32.34-303.31,1.38-12.91-8-23.35-20.89-23.35H190.86c-12.92,0-24.5,10.47-25.88,23.38L132.64,548.94C131.27,561.85,140.62,572.32,153.53,572.32Z"/><path class="cls-11" d="M676.06,245.69,648.2,506.92H137.12L165,245.69c1.38-12.91,13-23.38,25.88-23.38H655.17C668.08,222.31,677.43,232.78,676.06,245.69Z"/><path class="cls-12" d="M658.16,255.7,634.35,478.94A14.61,14.61,0,0,1,619.82,492H168.36a14.62,14.62,0,0,1-14.53-16.17l23.8-223.23a14.62,14.62,0,0,1,14.54-13.07H643.62A14.62,14.62,0,0,1,658.16,255.7Z"/><path class="cls-9" d="M486.53,631H362.75a12.24,12.24,0,0,0-12.24,12.24H490.89Z"/><polygon class="cls-13" points="353.8 572.32 465.66 572.32 472.07 590.33 360.85 590.33 353.8 572.32"/><path class="cls-7" d="M512.82,476.18s8.43-185.77-1.12-195.39C493.47,262.41,460.52,254,460.52,254l-34.77-.52s-39.49,11.73-51.65,37.67C367.23,305.79,365,465.64,365,465.64s39.13,16.13,84.23,17.87S512.82,476.18,512.82,476.18Z"/><path class="cls-14" d="M534.53,397.32s-10.42,62.42-21.26,68.32c-6.44,3.51-65.14-22.07-65.14-22.07l-3.39-36.78,45.07,16.8-2-26.27Z"/><path class="cls-15" d="M392.69,296.66s1.06,92.87,1.19,115.75"/><path class="cls-11" d="M412.41,181c-5.43-.32-16.59-1.24-20.83-4.63-16.21-13-12.67-38.43-6.11-39.2,6.4-.75,13,4.92,15.76,5.21,15.22,1.57,38-8.64,44.59-8.83s13.76,2.29,17.07,8c3.35-.4,7.27-.64,10,1.33,3.17,2.29,3.78,6.71,3.82,10.61.13,10.54-1.84,21-3.8,31.33-.76,4-1.58,8.17-3.91,11.54a20.57,20.57,0,0,1-9.18,6.87,33.71,33.71,0,0,1-16.25,2.44c-9-.88-17.26-5.35-24.57-10.66C413.28,190.86,416.14,187,412.41,181Z"/><path class="cls-14" d="M456.9,197a8.92,8.92,0,0,0,9.51,9,10.22,10.22,0,0,0,9.51-10.11,8.92,8.92,0,0,0-9.51-9A10.21,10.21,0,0,0,456.9,197Z"/><path class="cls-14" d="M460.52,202.93v51s-8.55,9.31-20.6,9.31c-14.17,0-14.17-9.83-14.17-9.83V202.93Z"/><path class="cls-16" d="M456.6,202.93s1.55,31.53-12.34,38.46a25.67,25.67,0,0,1-18.51,1.5v-40Z"/><path class="cls-14" d="M400.59,158.17v47.2c1.61,18.07,12,28.73,25.16,29.91,0,0,16.38,2.72,27.67-15.47l7.1-10.81V158.17Z"/><path class="cls-11" d="M429.16,181.65c-.12,1.08,5.82,2.64,9.39,3s4.91-.33,5-1.41-4.15-2.46-7.72-2.86S429.28,180.56,429.16,181.65Z"/><path class="cls-17" d="M428.46,194.86c-.23,2,.37,3.8,1.35,3.91s1.95-1.46,2.18-3.51-.37-3.8-1.34-3.91S428.69,192.81,428.46,194.86Z"/><path class="cls-11" d="M416.63,180.23c-.12,1.08-6.26,1.28-9.83.87s-4.71-1.42-4.59-2.5,4.59-1.47,8.17-1.07S416.75,179.14,416.63,180.23Z"/><path class="cls-17" d="M414.36,193.27c-.23,2-1.21,3.62-2.18,3.51s-1.58-1.86-1.35-3.91,1.21-3.62,2.19-3.51S414.59,191.22,414.36,193.27Z"/><path class="cls-15" d="M472.66,194.49c-4.66-.74-8,.51-11,4.14"/><path class="cls-11" d="M462,182.35c-6.94-2.4-10-14.94-16.6-18.87-3.51-2.09-7.54-1.39-11.17.21s-7.09,4-10.76,5.44-7.78,1.67-11.11-1-5.5-8.82-4-13.85a1.67,1.67,0,0,0,1.55,1.1c15.25-1.47,29.71-9.66,44.65-5,4.3,1.35,9,3.68,11.05,9.28C468.07,166.34,464.22,175.58,462,182.35Z"/><path class="cls-11" d="M453.7,169.7s-4.63,29.57,3.34,29.57c4.56,0,9.3-25.75,9.3-25.75Z"/><path class="cls-15" d="M419.62,193.07s-1.48,15.29-1.52,17.08c-.06,3.25,7.65,1.73,7.65,1.73"/><path class="cls-15" d="M420.43,220.38c3.2,4.07,10.3,4.09,13.52,0"/><path class="cls-11" d="M410.72,154.68a16.53,16.53,0,0,1-4.11,15.09,13.82,13.82,0,0,1-13.33,3.52V157Z"/><path class="cls-15" d="M419.05,257s2.12,15.25,18.1,17.27c19.5,2.46,29.83-18.34,29.83-18.34"/><path class="cls-7" d="M534.53,397.32s-2.61-71-4.35-81.4-8.68-34.73-31.71-45.56c0,0-16,23.86-15.17,42.09s4.52,84.87,4.52,84.87,17.18,3.26,25,3.26S534.53,397.32,534.53,397.32Z"/><path class="cls-15" d="M487.24,386.71s16.89,3,24.28,2.59,23-5.21,23-5.21"/><path class="cls-15" d="M493.62,278.54S485,296,483.26,307.68s6.87,121,6.87,121"/><path class="cls-10" d="M272.05,481.13H456.37a5.45,5.45,0,0,0,5.52-6.16L449,351.33a7,7,0,0,0-6.8-6.16H257.88a5.44,5.44,0,0,0-5.52,6.16L265.25,475A7,7,0,0,0,272.05,481.13Z"/><path class="cls-11" d="M242.24,351.33,255.14,475a7,7,0,0,0,6.81,6.17H446.27a5.43,5.43,0,0,0,5.49-6.17L438.87,351.33a7,7,0,0,0-6.78-6.17H247.77A5.47,5.47,0,0,0,242.24,351.33Z"/><path class="cls-18" d="M308.42,460.61H395.5a14.7,14.7,0,0,1,14.27,12.92l.82,7.87H297.66l-.82-7.87A11.43,11.43,0,0,1,308.42,460.61Z"/><polygon class="cls-19" points="425.73 469.04 438.24 469.04 437.98 466.51 425.47 466.51 425.73 469.04"/><polygon class="cls-19" points="426.15 473.04 438.66 473.04 438.39 470.51 425.89 470.51 426.15 473.04"/><polygon class="cls-19" points="426.57 477.05 439.07 477.05 438.81 474.52 426.3 474.52 426.57 477.05"/><path class="cls-20" d="M186.89,486.42l6.3-59.12h253a78.07,78.07,0,0,1,58.47,26.34h0a79.78,79.78,0,0,0,59.71,26.88H639l-.95,8.89a14.11,14.11,0,0,1-14,12.63H200.93A14.12,14.12,0,0,1,186.89,486.42Z"/><circle class="cls-1" cx="570.65" cy="154.94" r="31.11" transform="translate(73.56 475.18) rotate(-47.98)"/><circle class="cls-2" cx="570.65" cy="154.94" r="29.59" transform="translate(280.69 670.28) rotate(-75.83)"/><circle class="cls-1" cx="570.65" cy="154.94" r="23.49" transform="translate(302.15 681.77) rotate(-78.19)"/><path class="cls-3" d="M562.85,141.72h4.71a13.14,13.14,0,0,1,7.9,2.81,18.72,18.72,0,0,1,1.66,1.55,12.89,12.89,0,0,1,3.46,8.67v.42a13,13,0,0,1-6.52,11.16,13,13,0,0,1-1.88.95,11.9,11.9,0,0,1-3.86.88h-5.78a2,2,0,0,1-1.12-.54,2.24,2.24,0,0,1-.71-1.64,2.18,2.18,0,0,1,1.29-2,2.55,2.55,0,0,1,1-.2h4.36a8.49,8.49,0,0,0,6-2.38,11.22,11.22,0,0,0,1.5-1.85,8.53,8.53,0,0,0,1.28-4.35v-.46a8.55,8.55,0,0,0-2-5.4,8.76,8.76,0,0,0-7-3.2h-2v3.59a2.24,2.24,0,0,1-1.64,2.29,3.15,3.15,0,0,1-.56.06h0a2.17,2.17,0,0,1-2-1.32,2.3,2.3,0,0,1-.19-.95V144a2.16,2.16,0,0,1,1.41-2.08A1.86,1.86,0,0,1,562.85,141.72Z"/><path class="cls-2" d="M563,155.8h.12a2.29,2.29,0,0,1,1.87,1,2.34,2.34,0,0,1,.4,1.33,2.29,2.29,0,0,1-1.27,2.06,2.68,2.68,0,0,1-1.05.26,2.37,2.37,0,0,1-2.15-1.38,2.8,2.8,0,0,1-.2-1,2.32,2.32,0,0,1,1.26-2.06A2.41,2.41,0,0,1,563,155.8Z"/></g></g></svg>