<svg xmlns="http://www.w3.org/2000/svg" width="1920.074" height="339.72" viewBox="0 0 1920.074 339.72">
  <g id="Group_3741" data-name="Group 3741" transform="translate(0.004 -4802.18)">
    <path id="Path_1491" data-name="Path 1491" d="M229.5,262.6c.6-2.8,12.7-51.8,40.8-56.9,36.6-6.7,84.3,63.7,67,94.3-14.1,24.9-75.6,31.1-98.7,1.1C228.5,287.9,228.6,271.4,229.5,262.6Z" transform="translate(1283.17 4689.455)" fill="#a74d45" opacity="0.7"/>
    <path id="Path_1492" data-name="Path 1492" d="M204.7,228.8c-13.5-23-9.5-50.3,6.7-64,21.1-17.8,57.7-8.1,61.7,4.1,2.4,7.6-8.7,12.7-7.4,24.5,1.7,15.9,23.1,18.6,22.9,29.3-.1,13.2-32.6,31-60,22.4C216.9,241.6,209.1,234,204.7,228.8Z" transform="translate(1502.17 4647.455)" fill="#a74d45" opacity="0.7"/>
    <g id="Group_3443" data-name="Group 3443" transform="translate(68.15 -746)">
      <path id="Path_1526" data-name="Path 1526" d="M17,29a3.687,3.687,0,0,0-4.8,4.9c1.7,3.7,4.4,6.8,8.1,3S20.7,30.5,17,29Z" transform="translate(227.17 5535.455)" fill="#a74d45"/>
      <path id="Path_1527" data-name="Path 1527" d="M44,47.6a4.772,4.772,0,0,0-8.8,0c-1.9,4.8-2.4,10,4.4,10S45.9,52.3,44,47.6Z" transform="translate(227.17 5535.455)" fill="#a74d45"/>
      <path id="Path_1528" data-name="Path 1528" d="M6.4,82.7c6.5,2.5,10.7-7.2,4.6-10.3-2.6-1.3-5.1-1-6.9,3.1S3.7,81.7,6.4,82.7Z" transform="translate(227.17 5535.455)" fill="#a74d45"/>
      <path id="Path_1529" data-name="Path 1529" d="M44.3,109.9c4-5.6-4.3-12.2-8.8-7-1.9,2.2-2.2,4.7,1.3,7.5S42.7,112.3,44.3,109.9Z" transform="translate(227.17 5535.455)" fill="#a74d45"/>
      <path id="Path_1530" data-name="Path 1530" d="M108.2,75.2a4.772,4.772,0,0,0-8.8,0c-1.9,4.8-2.4,10,4.4,10S110.1,80,108.2,75.2Z" transform="translate(227.17 5535.455)" fill="#a74d45"/>
      <path id="Path_1531" data-name="Path 1531" d="M76.7,40.1c-4.8-4.9-12.7,2-8.4,7.4,1.8,2.2,4.2,3,7.6.1C79.2,44.7,78.7,42.2,76.7,40.1Z" transform="translate(227.17 5535.455)" fill="#a74d45"/>
      <path id="Path_1532" data-name="Path 1532" d="M56.9,17.9C56.5,11,46,11,45.6,17.9c-.1,2.9,1.2,5.1,5.6,5.1S57,20.8,56.9,17.9Z" transform="translate(227.17 5535.455)" fill="#a74d45"/>
      <path id="Path_1533" data-name="Path 1533" d="M66.6,68.8a4.772,4.772,0,0,0-8.8,0c-1.9,4.8-2.4,10,4.4,10S68.5,73.6,66.6,68.8Z" transform="translate(227.17 5535.455)" fill="#a74d45"/>
      <path id="Path_1534" data-name="Path 1534" d="M85.7,17.6a2.437,2.437,0,0,0-4.5,0c-1,2.5-1.2,5.2,2.3,5.2S86.7,20.1,85.7,17.6Z" transform="translate(227.17 5535.455)" fill="#a74d45"/>
      <path id="Path_1535" data-name="Path 1535" d="M38.5,75.8a1.876,1.876,0,0,0-3.5,0c-.8,1.9-1,4,1.8,4S39.3,77.8,38.5,75.8Z" transform="translate(227.17 5535.455)" fill="#a74d45"/>
      <path id="Path_1536" data-name="Path 1536" d="M89.5,65.9a1.876,1.876,0,0,0-3.5,0c-.8,1.9-1,4,1.8,4S90.3,67.8,89.5,65.9Z" transform="translate(227.17 5535.455)" fill="#a74d45"/>
      <path id="Path_1537" data-name="Path 1537" d="M66,119.1a1.876,1.876,0,0,0-3.5,0c-.8,1.9-1,4,1.8,4C66.9,123.1,66.7,121,66,119.1Z" transform="translate(227.17 5535.455)" fill="#a74d45"/>
      <path id="Path_1538" data-name="Path 1538" d="M5.7,57.5a1.876,1.876,0,0,0-3.5,0c-.8,1.9-1,4,1.8,4S6.5,59.4,5.7,57.5Z" transform="translate(227.17 5535.455)" fill="#a74d45"/>
      <path id="Path_1539" data-name="Path 1539" d="M85.1,101.1a4.772,4.772,0,0,0-8.8,0c-1.9,4.8-2.4,10,4.4,10C87.5,111,87,105.9,85.1,101.1Z" transform="translate(227.17 5535.455)" fill="#a74d45"/>
      <path id="Path_1540" data-name="Path 1540" d="M112.2,43.8a5.349,5.349,0,0,0-9.5-3.9c-2.6,3.3-3.6,7,1.8,9.2C109.8,51.2,111.7,48,112.2,43.8Z" transform="translate(227.17 5535.455)" fill="#a74d45"/>
    </g>
    <g id="Group_3476" data-name="Group 3476" transform="translate(0 -173.755)">
      <path id="Path_1524" data-name="Path 1524" d="M6.294,175.142c5.281,10.433,8.216,18.439,14.14,17.538,7.213-1.159,13.524-15.971,11.463-37.224q.58-17.582,5.41-18.934c6.054-1.546,17,15.585,32.973,51.65,4.637-15.07,8.887-22.669,12.88-22.54,5.281.129,10.175,13.653,14.555,40.573,1.8,11.592,7.6,19.836,14.168,20.48h0a6.694,6.694,0,0,0,6.569-3.735c6.569-13.009,11.721-19.192,15.456-18.419,5.023,1.03,7.342,14.683,7.084,41.088-.773,5.41,0,9.016,2.19,10.819,5.538,4.508,20.222-2.318,44.05-20.222,3.606-1.546,5.925-1.288,7.471-.644,7.213,2.962,9.274,19.063,5.152,40.444,10.562-4.766,21.124-9.531,31.814-14.426,2.962-2.061,6.183-3.606,8.243-2.318,7.213,4.122-8.115,36.451-1.03,41.088,7.857,5.152,34.905-29.882,43.278-24.859,4.25,2.576,2.061,14.426-2.19,28.337-2.19,5.41-4.25,10.819-6.44,16.229-4.894,9.016,2.962,19.449,12.623,17.388h.258l58.219-13.138c8.5-1.932,15.327,3.606,15.327,12.236h0A18.636,18.636,0,0,1,341.411,355.1L5.826,354.211Z" transform="translate(-5.83 4960.556)" fill="#37605c"/>
      <g id="Group_3442" data-name="Group 3442" transform="translate(-149 -624)">
        <path id="Path_1541" data-name="Path 1541" d="M28.9,139.3s6.6.6,22.4,41.5C29.7,143.6,25.8,139.9,28.9,139.3Z" transform="translate(227.17 5535.455)" fill="#f6ded5"/>
        <path id="Path_1542" data-name="Path 1542" d="M77.2,203s10.2,13.6,17.7-3.1C88.2,217.1,82.4,212.3,77.2,203Z" transform="translate(227.17 5535.455)" fill="#f6ded5"/>
        <path id="Path_1543" data-name="Path 1543" d="M153.9,245.7l27.3-12.1s3-1.1,2,1.4a4.479,4.479,0,0,1-2.2,2.3C172,241.7,153.9,245.7,153.9,245.7Z" transform="translate(227.17 5535.455)" fill="#f6ded5"/>
        <path id="Path_1544" data-name="Path 1544" d="M210.3,276.2a24.729,24.729,0,0,0-1.2,4.1c-.5,2-3,18,17.7,11.8C211.5,296.3,199.1,296.6,210.3,276.2Z" transform="translate(227.17 5535.455)" fill="#f6ded5"/>
      </g>
    </g>
    <g id="Group_3477" data-name="Group 3477" transform="translate(0 -174)">
      <path id="Path_1525" data-name="Path 1525" d="M1247.8,300s-18.7-28.6,7.6-26-11.2-49.9,17.4-51,21.1,1.2,19.1-26.3,58.6-18.7,35.7,26.3,48.6,8.5,39.1-21.2,21.2-34.1,21.2.4V300Z" transform="translate(532.17 5015.455)" fill="#37605c"/>
      <g id="Group_3444" data-name="Group 3444" transform="translate(188.53 -586)">
        <path id="Path_1545" data-name="Path 1545" d="M1254.3,274.7s12.2,2.2,12.2-8.3C1266.3,272.5,1266.1,277.8,1254.3,274.7Z" transform="translate(227.17 5535.455)" fill="#f6ded5"/>
        <path id="Path_1546" data-name="Path 1546" d="M1296.5,213.4s1.6,12.9-8.4,11.2c7.7,2.3,12.7,1.9,9.5-14.5l-3.1-9.5Z" transform="translate(227.17 5535.455)" fill="#f6ded5"/>
        <path id="Path_1547" data-name="Path 1547" d="M1373.9,178.8s-9.9,3.9-6.2,20.4C1367.7,199.2,1367.1,186.5,1373.9,178.8Z" transform="translate(227.17 5535.455)" fill="#f6ded5"/>
      </g>
    </g>
  </g>
</svg>
