<svg xmlns="http://www.w3.org/2000/svg" viewBox="0 0 100.18 96.09"><defs><style>.cls-1{fill:#f0c54d;}</style></defs><title>record-icon</title><g id="Layer_2" data-name="Layer 2"><g id="Layer_1-2" data-name="Layer 1"><path class="cls-1" d="M13.08,96.07v0H80.54A11.45,11.45,0,0,0,91.72,87l8.21-28.9,0-.14A11.4,11.4,0,0,0,88.77,44.3H85.26V15a1.76,1.76,0,0,0-.49-1.23L72.18.55l0,0s0,0,0,0L72,.41l0,0-.1-.07,0,0-.1-.05a.2.2,0,0,0-.08,0l-.07,0L71.45.09h0A1.76,1.76,0,0,0,71,0H36.78A6.79,6.79,0,0,0,30,6.79V8.92H27a7.08,7.08,0,0,0-1.83.25H12a12,12,0,0,0-12,12V82.29A13.81,13.81,0,0,0,13.08,96.07ZM94.83,50.73a7.78,7.78,0,0,1,1.65,6.43l-8.21,28.9,0,.14a7.87,7.87,0,0,1-7.7,6.33H23.07a13.71,13.71,0,0,0,4.13-7l10.48-31.5,0-.15a7.83,7.83,0,0,1,7.64-6H88.77a7.81,7.81,0,0,1,6.06,2.87ZM25.55,79.23,23.8,84.5l0,.15a10.06,10.06,0,0,1-.48,1.5h-6a3.23,3.23,0,0,1-3.23-3.23V26a3.22,3.22,0,0,1,3.23-3.22h2.88V72.59a6.79,6.79,0,0,0,5.37,6.64Zm47.12-73,6.65,7H72.67ZM36.78,3.56H69.11V15a1.78,1.78,0,0,0,1.78,1.78H81.7V44.3H45.36A11.36,11.36,0,0,0,34.28,53l-.73,2.18V6.79a3.23,3.23,0,0,1,3.23-3.23ZM30,12.48V65.89L26.7,75.81a3.24,3.24,0,0,1-3-3.22V15.71A3.22,3.22,0,0,1,27,12.48ZM3.56,21.17A8.45,8.45,0,0,1,12,12.73h8.87a6.71,6.71,0,0,0-.69,3v3.54H17.3A6.79,6.79,0,0,0,10.51,26V82.92a6.8,6.8,0,0,0,6.79,6.79h3.57A10.25,10.25,0,0,1,3.56,82.29Z"/></g></g></svg>