<svg xmlns="http://www.w3.org/2000/svg" viewBox="0 0 96.35 96.27"><defs><style>.cls-1{fill:#f0c54d;}</style></defs><title>reliability</title><g id="Layer_2" data-name="Layer 2"><g id="Layer_1-2" data-name="Layer 1"><path class="cls-1" d="M60.83,50l2,5h-10a44.64,44.64,0,0,0,5.65-21.43l6.89-2.07v2.23c0,.37,0,.74,0,1.11a7.71,7.71,0,0,0-5.14,7.26v4.69a8.55,8.55,0,0,0,.61,3.2ZM36.13,61.86A6.85,6.85,0,0,0,38,66.58c-.64.47-1.26,1-1.92,1.38l-3.41,2.18L29.29,68a41.1,41.1,0,0,1-16.5-20.69L55,34.6A41.2,41.2,0,0,1,48.83,55H43a6.88,6.88,0,0,0-6.88,6.88ZM.93,44.2c0-.08,0-.17,0-.25L7.73,41.9c.2,1,.45,2.07.72,3.08L1.52,47.06c-.23-1-.42-1.93-.59-2.86ZM.14,37.29l6.81-2c0,1.08.12,2.15.25,3.21l-6.79,2c0-.15,0-.31,0-.46-.09-.89-.17-1.79-.22-2.75ZM55.06,17.23,10.32,30.65V18.34l22.43-8,22.31,6.38Zm0,3.59v3.29L10.56,37.46c-.11-1.07-.18-2.15-.21-3.23ZM65.38,24.6v3.29L58.5,30V26.67Zm0-3.59L58.5,23.08V19.79l6.88-2.07ZM11,40.9l28-8.39,16-4.81V31L11.75,44c-.27-1-.52-2-.71-3.08ZM0,9.81,32.69,0,65.38,9.81v4.32L58.5,16.19v-.78a1.71,1.71,0,0,0-1.25-1.65L33.16,6.87a1.64,1.64,0,0,0-1,0L8,15.51a1.72,1.72,0,0,0-1.14,1.62V31.68L0,33.74ZM32.69,87.46A60.11,60.11,0,0,1,2.32,50.4l7.17-2.15a44.5,44.5,0,0,0,17.93,22.6l4.34,2.78a1.7,1.7,0,0,0,1.86,0L38,70.85l0,0a6.8,6.8,0,0,0,3.19,7.26,6.85,6.85,0,0,0-1.62,4.43,5.52,5.52,0,0,0,0,.71,60.58,60.58,0,0,1-6.93,4.24Zm44.22,8.81H48.17a3.43,3.43,0,0,1-.28-6.84,1.77,1.77,0,0,0,1.57-1.83A1.71,1.71,0,0,0,47.74,86H46.45a3.44,3.44,0,0,1,0-6.88,1.72,1.72,0,0,0,0-3.44H44.73a3.45,3.45,0,0,1,0-6.89,1.72,1.72,0,1,0,0-3.44H43a3.44,3.44,0,0,1,0-6.88H65.38A1.72,1.72,0,0,0,67,56.06l-3-7.37a5,5,0,0,1-.37-1.92V42.08a4.3,4.3,0,0,1,8.6,0v6a1.77,1.77,0,0,0,.12.64l3.44,8.6a1.73,1.73,0,0,0,1.06,1L86,61.38V90.19Zm19.44-6.88H89.47V61.86h6.88Z"/><path class="cls-1" d="M87.09,18.57l-2.35,2.52A24.45,24.45,0,0,1,87,23.43l2.65-2.2a31.48,31.48,0,0,0-2.51-2.66Z"/><path class="cls-1" d="M96.35,39.92c0-.67,0-1.34-.07-2l-3.43.23q.06.89.06,1.77c0,.49,0,1,0,1.46l3.44.19c0-.54,0-1.09,0-1.65Z"/><path class="cls-1" d="M84.28,16.25a29.27,29.27,0,0,0-3.09-2l-1.66,3A25.46,25.46,0,0,1,82.25,19Z"/><path class="cls-1" d="M95.87,45.2l-3.38-.62a24.26,24.26,0,0,1-.78,3.13l3.28,1a28.6,28.6,0,0,0,.88-3.54Z"/><path class="cls-1" d="M77.89,12.73a28.82,28.82,0,0,0-3.48-1.13l-.86,3.33a25.58,25.58,0,0,1,3.07,1Z"/><path class="cls-1" d="M89.68,52.43l3,1.66c.35-.63.69-1.27,1-1.94l-3.12-1.43q-.39.87-.87,1.71Z"/><path class="cls-1" d="M88.86,26a29.73,29.73,0,0,1,1.56,2.82l3.1-1.48a28.4,28.4,0,0,0-1.77-3.19Z"/><path class="cls-1" d="M91.62,31.84A27.86,27.86,0,0,1,92.43,35l3.38-.65a28.79,28.79,0,0,0-.93-3.54Z"/><path class="cls-1" d="M74,29.3a10.91,10.91,0,0,1,6.9,10.2H84.3a14.36,14.36,0,0,0-9.06-13.4l-.62-.24-1.28,3.19Z"/></g></g></svg>