<svg xmlns="http://www.w3.org/2000/svg" viewBox="0 0 30.5 30.5"><defs><style>.cls-1{fill:#2a2b2a;}.cls-2{fill:none;stroke:#f0c54d;stroke-miterlimit:10;stroke-width:1.5px;}</style></defs><title>share-icon</title><g id="Layer_2" data-name="Layer 2"><g id="Layer_1-2" data-name="Layer 1"><path class="cls-1" d="M20.18,17.33a3.7,3.7,0,0,0-2.91,1.41L12.18,16.2a3.54,3.54,0,0,0,0-1.9l5.09-2.54a3.7,3.7,0,1,0-.81-2.3,3.52,3.52,0,0,0,.14,1L11.52,13a3.71,3.71,0,1,0,0,4.56l5.08,2.53a3.52,3.52,0,0,0-.14,1,3.72,3.72,0,1,0,3.72-3.71Zm0-10.1A2.23,2.23,0,1,1,18,9.46a2.23,2.23,0,0,1,2.23-2.23ZM8.6,17.48a2.23,2.23,0,1,1,2.22-2.23A2.23,2.23,0,0,1,8.6,17.48Zm11.58,5.79A2.23,2.23,0,1,1,22.4,21a2.23,2.23,0,0,1-2.22,2.23Z"/><circle class="cls-2" cx="15.25" cy="15.25" r="14.5"/></g></g></svg>