<svg xmlns="http://www.w3.org/2000/svg" width="52.905" height="89.999" viewBox="0 0 52.905 89.999">
  <g id="Group_3621" data-name="Group 3621" transform="translate(-13768 339)">
    <path id="Path_1569" data-name="Path 1569" d="M24.061,94.909l25-25.645a1.306,1.306,0,0,1,1.87,0l25,25.645a.3.3,0,0,0,.514-.209V7.5a2.5,2.5,0,0,0-2.5-2.5h-47.9a2.5,2.5,0,0,0-2.5,2.5V94.7a.3.3,0,0,0,.514.209Z" transform="translate(13744.452 -344)" fill="#fff"/>
    <path id="Path_1568" data-name="Path 1568" d="M24.061,94.909l25-25.645a1.306,1.306,0,0,1,1.87,0l25,25.645a.3.3,0,0,0,.514-.209V7.5a2.5,2.5,0,0,0-2.5-2.5h-47.9a2.5,2.5,0,0,0-2.5,2.5V94.7a.3.3,0,0,0,.514.209Zm21.7-69.63L50,16.688l4.24,8.591,9.481,1.378-6.86,6.687,1.619,9.442L50,38.328l-8.48,4.458,1.619-9.442-6.86-6.687Z" transform="translate(13744.452 -344)" fill="#fdbe34"/>
  </g>
</svg>
