<svg xmlns="http://www.w3.org/2000/svg" viewBox="0 0 89.48 89.48"><defs><style>.cls-1{fill:#f0c54d;}</style></defs><title>stress-free</title><g id="Layer_2" data-name="Layer 2"><g id="Layer_1-2" data-name="Layer 1"><path class="cls-1" d="M6.17,61.71a17,17,0,1,0,17-17,17,17,0,0,0-17,17Zm6.17,1.54H9.26V60.17h3.08Zm21.6-3.08H37v3.08H33.94Zm-4.63-3.09H26.23a3.09,3.09,0,1,0-3.09,3.09,6.16,6.16,0,0,1,1.54,12.12v3.3H21.6v-3.3a6.16,6.16,0,0,1-4.63-6h3.09a3.09,3.09,0,1,0,3.08-3.09A6.16,6.16,0,0,1,21.6,51.13V47.82h3.08v3.31a6.16,6.16,0,0,1,4.63,5.95Z"/><path class="cls-1" d="M23.14,34.33,21.6,35.48A38.75,38.75,0,0,1,0,43.16V59.41a31,31,0,0,0,23.14,30,31,31,0,0,0,23.14-30V43.16a38.75,38.75,0,0,1-21.6-7.68ZM43.2,61.71A20.06,20.06,0,1,1,23.14,41.65,20.08,20.08,0,0,1,43.2,61.71Z"/><path class="cls-1" d="M88.69,10.65,82.11,4.06A13.85,13.85,0,0,0,72.29,0H37.36A10.78,10.78,0,0,0,31.8,1.54L27.77,4V18.51h6.64l.39.26a16.76,16.76,0,0,0,9.33,2.83H55.54a3.09,3.09,0,0,0,0-6.17H44.74V12.34h2.45L51.1,8.43a7.63,7.63,0,0,1,5.45-2.26H73a7.63,7.63,0,0,1,5.45,2.26l6.21,6.21a2.7,2.7,0,0,0,1.9.79h.19a2.7,2.7,0,0,0,2.69-2.69v-.19a2.7,2.7,0,0,0-.79-1.9Z"/><rect class="cls-1" width="24.68" height="21.6"/><path class="cls-1" d="M83.31,83.31H70.73l-1,6.17H84.57l-1-6.17Z"/><path class="cls-1" d="M49.37,30.85a3.09,3.09,0,1,0,6.17,0V24.68H49.37Z"/><path class="cls-1" d="M74.05,21.6V80.22h6.17V21.6A15.36,15.36,0,0,0,74.61,9.7l.1-.12A4.51,4.51,0,0,0,73,9.26H56.55a4.59,4.59,0,0,0-3.27,1.35l-1.73,1.73h4a6.12,6.12,0,0,1,4.1,1.6,9.17,9.17,0,0,1,5.15-1.6,9.27,9.27,0,0,1,9.26,9.26Z"/></g></g></svg>