<svg id="east-24px" xmlns="http://www.w3.org/2000/svg" width="30" height="30" viewBox="0 0 30 30">
  <rect id="Rectangle_897" data-name="Rectangle 897" width="30" height="30" fill="none"/>
  <path id="Path_1451" data-name="Path 1451" d="M17.362,5.783h0a1.245,1.245,0,0,0,0,1.762l4.85,4.85H3.25A1.254,1.254,0,0,0,2,13.646H2A1.254,1.254,0,0,0,3.25,14.9H22.225l-4.85,4.85a1.245,1.245,0,0,0,0,1.762h0a1.245,1.245,0,0,0,1.763,0l6.987-6.987a1.245,1.245,0,0,0,0-1.762l-7-6.975A1.245,1.245,0,0,0,17.362,5.783Z" transform="translate(0.5 1.354)" fill="#fff"/>
</svg>
