<svg width="30" height="30" viewBox="0 0 30 30" fill="none" xmlns="http://www.w3.org/2000/svg">
<path d="M12.3333 5.66667C12.0696 5.66667 11.8118 5.74486 11.5926 5.89137C11.3733 6.03788 11.2024 6.24612 11.1015 6.48976C11.0006 6.73339 10.9742 7.00148 11.0256 7.26012C11.077 7.51876 11.204 7.75634 11.3905 7.94281C11.577 8.12928 11.8146 8.25627 12.0732 8.30771C12.3318 8.35916 12.5999 8.33276 12.8436 8.23184C13.0872 8.13092 13.2954 7.96002 13.4419 7.74076C13.5884 7.52149 13.6666 7.26371 13.6666 7C13.6666 6.64638 13.5262 6.30724 13.2761 6.05719C13.0261 5.80714 12.6869 5.66667 12.3333 5.66667ZM6.99998 5.66667C6.73627 5.66667 6.47848 5.74486 6.25922 5.89137C6.03995 6.03788 5.86906 6.24612 5.76814 6.48976C5.66722 6.73339 5.64082 7.00148 5.69227 7.26012C5.74371 7.51876 5.8707 7.75634 6.05717 7.94281C6.24364 8.12928 6.48122 8.25627 6.73986 8.30771C6.9985 8.35916 7.26659 8.33276 7.51022 8.23184C7.75386 8.13092 7.9621 7.96002 8.10861 7.74076C8.25511 7.52149 8.33331 7.26371 8.33331 7C8.33331 6.64638 8.19284 6.30724 7.94279 6.05719C7.69274 5.80714 7.3536 5.66667 6.99998 5.66667ZM17.6666 5.66667C17.4029 5.66667 17.1451 5.74486 16.9259 5.89137C16.7066 6.03788 16.5357 6.24612 16.4348 6.48976C16.3339 6.73339 16.3075 7.00148 16.3589 7.26012C16.4104 7.51876 16.5374 7.75634 16.7238 7.94281C16.9103 8.12928 17.1479 8.25627 17.4065 8.30771C17.6652 8.35916 17.9333 8.33276 18.1769 8.23184C18.4205 8.13092 18.6288 7.96002 18.7753 7.74076C18.9218 7.52149 19 7.26371 19 7C19 6.64638 18.8595 6.30724 18.6095 6.05719C18.3594 5.80714 18.0203 5.66667 17.6666 5.66667ZM25.6666 0.333333H4.33331C3.27245 0.333333 2.25503 0.75476 1.50489 1.50491C0.75474 2.25505 0.333313 3.27247 0.333313 4.33333V25.6667C0.333313 26.7275 0.75474 27.7449 1.50489 28.4951C2.25503 29.2452 3.27245 29.6667 4.33331 29.6667H25.6666C26.7275 29.6667 27.7449 29.2452 28.4951 28.4951C29.2452 27.7449 29.6666 26.7275 29.6666 25.6667V4.33333C29.6666 3.27247 29.2452 2.25505 28.4951 1.50491C27.7449 0.75476 26.7275 0.333333 25.6666 0.333333ZM27 25.6667C27 26.0203 26.8595 26.3594 26.6095 26.6095C26.3594 26.8595 26.0203 27 25.6666 27H4.33331C3.97969 27 3.64055 26.8595 3.3905 26.6095C3.14046 26.3594 2.99998 26.0203 2.99998 25.6667V13.6667H27V25.6667ZM27 11H2.99998V4.33333C2.99998 3.97971 3.14046 3.64057 3.3905 3.39052C3.64055 3.14048 3.97969 3 4.33331 3H25.6666C26.0203 3 26.3594 3.14048 26.6095 3.39052C26.8595 3.64057 27 3.97971 27 4.33333V11Z" fill="#FDBE34"/>
</svg>
