<svg xmlns="http://www.w3.org/2000/svg" width="23" height="23" viewBox="0 0 23 23">
  <g id="Layer_2" data-name="Layer 2" opacity="0.8">
    <g id="globe">
      <rect id="Rectangle_971" data-name="Rectangle 971" width="23" height="23" transform="translate(23 23) rotate(180)" fill="#eee" opacity="0"/>
      <path id="Path_1548" data-name="Path 1548" d="M21.167,11.583a9.583,9.583,0,1,0-9.583,9.583A9.583,9.583,0,0,0,21.167,11.583Zm-1.984-.958H16.375a12.372,12.372,0,0,0-2.233-6.267,7.667,7.667,0,0,1,5.041,6.268Zm-10.4,1.917h5.673a10.963,10.963,0,0,1-2.875,6.335,10.542,10.542,0,0,1-2.8-6.335Zm0-1.917a10.925,10.925,0,0,1,2.8-6.325,10.724,10.724,0,0,1,2.875,6.325Zm.345-6.3a12.631,12.631,0,0,0-2.271,6.3H3.984a7.667,7.667,0,0,1,5.146-6.3ZM3.984,12.542H6.859a12.324,12.324,0,0,0,2.252,6.287A7.667,7.667,0,0,1,3.984,12.542Zm10.11,6.277a12.593,12.593,0,0,0,2.281-6.277H19.2A7.667,7.667,0,0,1,14.094,18.819Z" transform="translate(-0.083 -0.083)" fill="#eee"/>
    </g>
  </g>
</svg>
