<svg xmlns="http://www.w3.org/2000/svg" width="214.285" height="300" viewBox="0 0 214.285 300">
  <g id="Group_3709" data-name="Group 3709" transform="translate(-268 -304.58)">
    <path id="Path_1549" data-name="Path 1549" d="M0,0H192.857V192.857H0Z" transform="translate(278.714 304.58)" fill="#418aff"/>
    <path id="Subtraction_1" data-name="Subtraction 1" d="M214.285,107.143H0A107.936,107.936,0,0,1,2.177,85.55,106.556,106.556,0,0,1,18.3,47.238,107.455,107.455,0,0,1,65.438,8.42,106.606,106.606,0,0,1,85.55,2.177a108.188,108.188,0,0,1,43.186,0A106.556,106.556,0,0,1,167.047,18.3a107.456,107.456,0,0,1,38.818,47.14,106.6,106.6,0,0,1,6.243,20.112,107.938,107.938,0,0,1,2.177,21.593Z" transform="translate(268 497.437)" fill="#fdbe34"/>
  </g>
</svg>
