<svg xmlns="http://www.w3.org/2000/svg" width="500" height="250.001" viewBox="0 0 500 250.001">
  <path id="Subtraction_1" data-name="Subtraction 1" d="M643,250H143a251.851,251.851,0,0,1,5.079-50.384A248.631,248.631,0,0,1,185.7,110.223,250.728,250.728,0,0,1,295.689,19.646,248.747,248.747,0,0,1,342.616,5.079a252.44,252.44,0,0,1,100.767,0A248.631,248.631,0,0,1,532.777,42.7a250.731,250.731,0,0,1,90.576,109.993,248.746,248.746,0,0,1,14.567,46.928A251.855,251.855,0,0,1,643,250Z" transform="translate(-143)" fill="#fdbe34"/>
</svg>
