<svg width="32" height="32" viewBox="0 0 32 32" fill="none" xmlns="http://www.w3.org/2000/svg">
<path d="M28.0001 24.4V7.6C28.8001 7.2 29.3334 6.26667 29.3334 5.33334C29.3334 3.86667 28.1334 2.66667 26.6667 2.66667C25.7334 2.66667 24.8001 3.20001 24.4001 4.00001H7.60008C7.20008 3.20001 6.26675 2.66667 5.33341 2.66667C3.86675 2.66667 2.66675 3.86667 2.66675 5.33334C2.66675 6.26667 3.20008 7.2 4.00008 7.6V24.4C3.20008 24.8 2.66675 25.7333 2.66675 26.6667C2.66675 28.1333 3.86675 29.3333 5.33341 29.3333C6.26675 29.3333 7.20008 28.8 7.60008 28H24.4001C24.8001 28.8 25.7334 29.3333 26.6667 29.3333C28.1334 29.3333 29.3334 28.1333 29.3334 26.6667C29.3334 25.7333 28.8001 24.8 28.0001 24.4ZM25.3334 24.4C24.9334 24.6667 24.6667 24.9333 24.4001 25.3333H7.60008C7.33341 24.9333 7.06675 24.6667 6.66675 24.4V7.6C7.06675 7.33334 7.33341 7.06667 7.60008 6.66667H24.4001C24.6667 7.06667 24.9334 7.33334 25.3334 7.6V24.4ZM18.6667 12V10.6667C18.6667 9.86667 18.1334 9.33334 17.3334 9.33334H10.6667C9.86675 9.33334 9.33341 9.86667 9.33341 10.6667V17.3333C9.33341 18.1333 9.86675 18.6667 10.6667 18.6667H12.0001V14.6667C12.0001 13.2 13.2001 12 14.6667 12H18.6667ZM21.3334 13.3333H14.6667C13.8667 13.3333 13.3334 13.8667 13.3334 14.6667V21.3333C13.3334 22.1333 13.8667 22.6667 14.6667 22.6667H21.3334C22.1334 22.6667 22.6667 22.1333 22.6667 21.3333V14.6667C22.6667 13.8667 22.1334 13.3333 21.3334 13.3333Z" fill="#3160F1"/>
</svg>
