<svg width="32" height="32" viewBox="0 0 32 32" fill="none" xmlns="http://www.w3.org/2000/svg">
<path d="M22.6666 8.08001C21.7419 8.08063 20.846 8.40161 20.1312 8.98833C19.4165 9.57506 18.9272 10.3913 18.7464 11.2982C18.5657 12.205 18.7047 13.1465 19.1399 13.9624C19.575 14.7783 20.2795 15.4183 21.1333 15.7733C20.9303 16.2599 20.5876 16.6754 20.1486 16.9673C19.7095 17.2592 19.1938 17.4144 18.6666 17.4133H13.3333C12.3933 17.4173 11.4719 17.6753 10.6666 18.16V10.5067C11.5562 10.1922 12.306 9.57325 12.7834 8.75937C13.2609 7.94549 13.4352 6.98903 13.2757 6.05904C13.1161 5.12904 12.6329 4.2854 11.9115 3.67721C11.19 3.06902 10.2768 2.73544 9.33326 2.73544C8.38968 2.73544 7.47647 3.06902 6.75505 3.67721C6.03362 4.2854 5.55043 5.12904 5.39087 6.05904C5.2313 6.98903 5.40565 7.94549 5.88308 8.75937C6.36052 9.57325 7.11031 10.1922 7.99993 10.5067V21.6533C7.12124 21.9693 6.38081 22.5828 5.90693 23.3874C5.43305 24.192 5.2556 25.137 5.40533 26.0587C5.55505 26.9804 6.02252 27.8207 6.72672 28.4339C7.43093 29.0471 8.32747 29.3947 9.261 29.4163C10.1945 29.4379 11.1062 29.1322 11.838 28.5522C12.5698 27.9722 13.0757 27.1545 13.2679 26.2407C13.4601 25.327 13.3266 24.3747 12.8904 23.5491C12.4543 22.7234 11.743 22.0763 10.8799 21.72C11.082 21.2355 11.4226 20.8215 11.8591 20.5297C12.2955 20.238 12.8083 20.0815 13.3333 20.08H18.6666C19.8864 20.0798 21.0692 19.6614 22.0179 18.8947C22.9666 18.128 23.6238 17.0593 23.8799 15.8667C24.7714 15.5638 25.5274 14.9562 26.0149 14.1507C26.5025 13.3453 26.6903 12.3937 26.5454 11.4635C26.4004 10.5332 25.932 9.6839 25.2225 9.06501C24.513 8.44612 23.6079 8.09732 22.6666 8.08001V8.08001ZM9.33326 5.41335C9.59697 5.41335 9.85475 5.49154 10.074 5.63805C10.2933 5.78456 10.4642 5.9928 10.5651 6.23644C10.666 6.48007 10.6924 6.74816 10.641 7.0068C10.5895 7.26544 10.4625 7.50302 10.2761 7.68949C10.0896 7.87596 9.85202 8.00295 9.59338 8.05439C9.33474 8.10584 9.06665 8.07944 8.82302 7.97852C8.57938 7.8776 8.37114 7.70671 8.22463 7.48744C8.07813 7.26817 7.99993 7.01039 7.99993 6.74668C7.99993 6.39306 8.1404 6.05392 8.39045 5.80387C8.6405 5.55382 8.97964 5.41335 9.33326 5.41335ZM9.33326 26.7467C9.06955 26.7467 8.81177 26.6685 8.5925 26.522C8.37323 26.3755 8.20234 26.1672 8.10142 25.9236C8.0005 25.68 7.9741 25.4119 8.02555 25.1532C8.07699 24.8946 8.20398 24.657 8.39045 24.4705C8.57692 24.2841 8.8145 24.1571 9.07314 24.1056C9.33178 24.0542 9.59987 24.0806 9.8435 24.1815C10.0871 24.2824 10.2954 24.4533 10.4419 24.6726C10.5884 24.8919 10.6666 25.1496 10.6666 25.4133C10.6666 25.767 10.5261 26.1061 10.2761 26.3562C10.026 26.6062 9.68688 26.7467 9.33326 26.7467ZM22.6666 13.4133C22.4029 13.4133 22.1451 13.3351 21.9258 13.1886C21.7066 13.0421 21.5357 12.8339 21.4348 12.5903C21.3338 12.3466 21.3074 12.0785 21.3589 11.8199C21.4103 11.5613 21.5373 11.3237 21.7238 11.1372C21.9103 10.9507 22.1478 10.8237 22.4065 10.7723C22.6651 10.7209 22.9332 10.7473 23.1768 10.8482C23.4205 10.9491 23.6287 11.12 23.7752 11.3393C23.9217 11.5585 23.9999 11.8163 23.9999 12.08C23.9999 12.4336 23.8595 12.7728 23.6094 13.0228C23.3594 13.2729 23.0202 13.4133 22.6666 13.4133Z" fill="#3160F1"/>
</svg>
