<svg width="32" height="32" viewBox="0 0 32 32" fill="none" xmlns="http://www.w3.org/2000/svg">
<path d="M25.7563 26.023H6.24372C3.90128 26.023 2 24.1217 2 21.7793V9.4112C2 7.06876 3.90128 5.16748 6.24372 5.16748H25.7563C28.0987 5.16748 30 7.06876 30 9.4112V21.7793C30 24.1256 28.0987 26.023 25.7563 26.023Z" fill="#3160F1"/>
<path d="M21.6842 21.8964C23.9934 21.8964 25.8654 20.0244 25.8654 17.7152C25.8654 15.4059 23.9934 13.5339 21.6842 13.5339C19.3749 13.5339 17.5029 15.4059 17.5029 17.7152C17.5029 20.0244 19.3749 21.8964 21.6842 21.8964Z" fill="white"/>
<path d="M18.5336 21.7441C18.1745 21.8456 17.7997 21.8964 17.4093 21.8964C15.0981 21.8964 13.228 20.0225 13.228 17.7152C13.228 15.404 15.102 13.5339 17.4093 13.5339C17.7997 13.5339 18.1784 13.5886 18.5336 13.6862C16.769 14.1781 15.4768 15.7944 15.4768 17.7152C15.4768 19.636 16.769 21.2522 18.5336 21.7441Z" fill="white"/>
</svg>
