<svg width="32" height="32" viewBox="0 0 32 32" fill="none" xmlns="http://www.w3.org/2000/svg">
<path d="M22.6666 12V9.33334C22.6666 5.60001 19.7333 2.66667 15.9999 2.66667C12.2666 2.66667 9.33325 5.60001 9.33325 9.33334V12C7.06659 12 5.33325 13.7333 5.33325 16V25.3333C5.33325 27.6 7.06659 29.3333 9.33325 29.3333H22.6666C24.9333 29.3333 26.6666 27.6 26.6666 25.3333V16C26.6666 13.7333 24.9333 12 22.6666 12ZM11.9999 9.33334C11.9999 7.06667 13.7333 5.33334 15.9999 5.33334C18.2666 5.33334 19.9999 7.06667 19.9999 9.33334V12H11.9999V9.33334ZM17.3333 22.6667C17.3333 23.4667 16.7999 24 15.9999 24C15.1999 24 14.6666 23.4667 14.6666 22.6667V18.6667C14.6666 17.8667 15.1999 17.3333 15.9999 17.3333C16.7999 17.3333 17.3333 17.8667 17.3333 18.6667V22.6667Z" fill="#3160F1"/>
</svg>
