<svg width="32" height="32" viewBox="0 0 32 32" fill="none" xmlns="http://www.w3.org/2000/svg">
<path d="M13.3334 6.00001H18.6667C19.4667 6.00001 20.0001 5.46668 20.0001 4.66668C20.0001 3.86668 19.4667 3.33334 18.6667 3.33334H13.3334C12.5334 3.33334 12.0001 3.86668 12.0001 4.66668C12.0001 5.46668 12.5334 6.00001 13.3334 6.00001ZM24.4001 11.4667L25.6001 10.2667C26.1334 9.73334 26.1334 8.93334 25.6001 8.40001C25.0667 7.86668 24.2667 7.86668 23.7334 8.40001L22.5334 9.60001C18.6667 6.53334 13.3334 6.53334 9.46673 9.60001L8.26673 8.40001C7.73339 7.86668 6.9334 7.86668 6.40006 8.40001C5.86673 8.93334 5.86673 9.73334 6.40006 10.2667L7.60006 11.4667C4.00006 16.1333 4.80006 22.8 9.46673 26.4C14.1334 30 20.8001 29.2 24.4001 24.5333C27.4667 20.6667 27.4667 15.3333 24.4001 11.4667ZM18.2667 19.3333C17.7334 20.1333 16.9334 20.6667 16.0001 20.6667C14.5334 20.6667 13.3334 19.4667 13.3334 18C13.3334 17.0667 13.8667 16.1333 14.6667 15.7333V12.6667C14.6667 11.8667 15.2001 11.3333 16.0001 11.3333C16.8001 11.3333 17.3334 11.8667 17.3334 12.6667V15.7333C18.6667 16.4 19.0667 18 18.2667 19.3333Z" fill="#3160F1"/>
</svg>
