<svg width="32" height="32" viewBox="0 0 32 32" fill="none" xmlns="http://www.w3.org/2000/svg">
<path d="M9.45455 17.0909H5.09091C4.43636 17.0909 4 17.5273 4 18.1818V26.9091C4 27.5636 4.43636 28 5.09091 28H9.45455C10.1091 28 10.5455 27.5636 10.5455 26.9091V18.1818C10.5455 17.5273 10.1091 17.0909 9.45455 17.0909ZM26.9091 12.7273H22.5455C21.8909 12.7273 21.4545 13.1636 21.4545 13.8182V26.9091C21.4545 27.5636 21.8909 28 22.5455 28H26.9091C27.5636 28 28 27.5636 28 26.9091V13.8182C28 13.1636 27.5636 12.7273 26.9091 12.7273ZM18.1818 4H13.8182C13.1636 4 12.7273 4.43636 12.7273 5.09091V26.9091C12.7273 27.5636 13.1636 28 13.8182 28H18.1818C18.8364 28 19.2727 27.5636 19.2727 26.9091V5.09091C19.2727 4.43636 18.8364 4 18.1818 4Z" fill="#3160F1"/>
</svg>
